{"glyphs":{"0":{"ha":872,"x_min":64,"x_max":808,"o":"m 64 482 q 106 739 64 626 q 233 915 149 851 q 436 978 317 978 q 637 914 553 978 q 765 738 721 850 q 808 482 808 625 q 765 226 808 339 q 636 49 721 114 q 436 -15 551 -15 q 237 50 321 -15 q 108 228 153 115 q 64 482 64 342 m 215 481 q 247 284 215 364 q 331 165 279 204 q 439 126 382 126 q 548 165 499 126 q 627 282 597 203 q 657 481 657 361 q 626 678 657 599 q 546 797 596 758 q 439 836 496 836 q 328 797 379 836 q 246 678 276 758 q 215 481 215 599 z "},"1":{"ha":497,"x_min":28,"x_max":399,"o":"m 399 0 l 247 0 l 247 751 l 111 628 l 28 740 l 272 963 l 399 963 l 399 0 z "},"2":{"ha":789,"x_min":83,"x_max":706,"o":"m 99 144 l 403 421 q 515 547 475 489 q 554 669 554 604 q 511 784 554 742 q 400 826 468 826 q 279 771 324 826 q 235 635 235 715 l 235 606 l 85 606 l 83 638 q 169 886 83 794 q 400 978 254 978 q 560 941 490 978 q 667 836 629 904 q 706 676 706 768 q 661 502 706 578 q 533 349 617 426 l 299 139 l 703 139 l 703 0 l 97 0 l 99 144 z "},"3":{"ha":815,"x_min":85,"x_max":751,"o":"m 418 -15 q 251 28 328 -15 q 130 147 175 72 q 85 308 85 221 l 85 315 l 236 315 l 236 308 q 260 217 236 260 q 327 151 285 175 q 418 126 369 126 q 509 151 467 126 q 576 217 551 175 q 600 308 600 260 q 576 399 600 357 q 509 465 551 440 q 418 490 467 490 q 279 451 357 490 l 239 564 q 418 617 326 617 q 586 577 510 617 q 707 467 663 538 q 751 308 751 396 q 707 147 751 221 q 585 28 663 72 q 418 -15 508 -15 m 200 557 l 518 824 l 107 824 l 107 963 l 697 963 l 697 818 l 278 450 l 200 557 z "},"4":{"ha":790,"x_min":49,"x_max":738,"o":"m 607 192 l 607 0 l 456 0 l 456 192 l 49 192 l 49 321 l 393 963 l 607 963 l 607 331 l 738 331 l 738 192 l 607 192 m 456 767 l 206 331 l 456 331 l 456 767 z "},"5":{"ha":801,"x_min":69,"x_max":736,"o":"m 403 -15 q 235 28 313 -15 q 114 147 158 72 q 69 308 69 221 l 221 308 q 245 217 221 260 q 312 151 269 175 q 403 126 354 126 q 494 151 451 126 q 560 217 536 175 q 585 308 585 260 q 560 399 585 357 q 494 465 536 440 q 403 490 451 490 q 231 406 307 490 l 179 526 q 281 592 231 568 q 403 617 332 617 q 571 577 494 617 q 692 467 647 538 q 736 308 736 396 q 692 147 736 221 q 570 28 647 72 q 403 -15 493 -15 m 83 442 l 133 963 l 672 963 l 672 824 l 269 824 l 231 406 l 83 442 z "},"6":{"ha":831,"x_min":68,"x_max":763,"o":"m 428 -12 q 233 44 314 -12 q 110 201 153 100 q 68 438 68 303 q 108 698 68 576 q 231 897 147 819 q 440 974 314 974 q 588 938 521 974 q 697 844 654 903 q 753 717 739 785 l 621 699 q 557 792 603 750 q 438 835 511 835 q 317 781 365 835 q 246 648 268 728 q 228 490 224 568 q 306 590 247 550 q 435 631 364 631 q 599 592 524 631 q 718 483 674 553 q 763 324 763 413 q 717 156 763 233 q 595 33 672 78 q 428 -12 518 -12 m 425 126 q 518 151 475 126 q 586 219 561 176 q 611 311 611 263 q 586 403 611 361 q 518 471 561 446 q 425 496 475 496 q 331 471 374 496 q 263 403 288 446 q 238 311 238 361 q 263 219 238 261 q 331 151 288 176 q 425 126 374 126 z "},"7":{"ha":664,"x_min":28,"x_max":635,"o":"m 260 0 l 99 0 l 476 824 l 28 824 l 28 963 l 635 963 l 635 819 l 260 0 z "},"8":{"ha":783,"x_min":63,"x_max":719,"o":"m 392 -14 q 226 27 301 -14 q 107 140 151 68 q 63 300 63 213 q 106 451 63 386 q 225 549 150 515 q 392 583 300 583 q 558 549 483 583 q 676 451 633 515 q 719 300 719 386 q 676 140 719 213 q 557 27 632 68 q 392 -14 482 -14 m 392 128 q 518 177 467 128 q 569 300 569 226 q 519 413 569 371 q 392 456 468 456 q 264 413 315 456 q 213 300 213 371 q 265 177 213 226 q 392 128 317 128 m 392 471 q 251 501 314 471 q 152 586 189 531 q 115 715 115 642 q 152 847 115 788 q 252 941 189 907 q 392 975 315 975 q 531 941 467 975 q 631 847 594 907 q 668 715 668 788 q 631 586 668 642 q 531 501 594 531 q 392 471 468 471 m 392 588 q 486 620 449 588 q 524 707 524 653 q 485 798 524 761 q 392 835 447 835 q 297 798 336 835 q 258 707 258 761 q 297 620 258 653 q 392 588 335 588 z "},"9":{"ha":831,"x_min":68,"x_max":763,"o":"m 390 -12 q 244 23 310 -12 q 135 117 178 58 q 78 244 92 176 l 210 264 q 274 169 228 211 q 394 126 319 126 q 514 180 465 126 q 585 313 563 233 q 603 471 607 393 q 525 371 583 411 q 397 331 467 331 q 233 369 308 331 q 113 478 157 408 q 68 639 68 549 q 113 806 68 729 q 235 928 158 883 q 403 974 313 974 q 597 918 517 974 q 720 760 678 863 q 763 524 763 658 q 724 263 763 385 q 601 65 685 142 q 390 -12 517 -12 m 407 465 q 500 490 457 465 q 568 558 543 515 q 593 650 593 600 q 568 742 593 699 q 500 810 543 785 q 407 835 457 835 q 313 810 356 835 q 244 742 269 785 q 219 650 219 700 q 244 558 219 600 q 313 490 269 515 q 407 465 356 465 z "},"\r":{"ha":833,"x_min":0,"x_max":0,"o":""}," ":{"ha":271,"x_min":0,"x_max":0,"o":""},"A":{"ha":929,"x_min":14,"x_max":915,"o":"m 378 963 l 538 963 l 174 0 l 14 0 l 378 963 m 393 963 l 551 963 l 915 0 l 756 0 l 393 963 m 251 358 l 686 358 l 686 218 l 251 218 l 251 358 z "},"B":{"ha":868,"x_min":100,"x_max":813,"o":"m 100 963 l 500 963 q 634 927 572 963 q 732 831 696 892 q 768 696 768 769 q 740 585 768 633 q 663 507 711 536 q 772 424 731 482 q 813 286 813 365 q 774 142 813 208 q 670 38 736 76 q 526 0 604 0 l 100 0 l 100 963 m 518 143 q 619 185 578 143 q 661 286 661 226 q 619 386 661 344 q 518 428 578 428 l 251 428 l 251 143 l 518 143 m 488 567 q 578 605 540 567 q 617 696 617 643 q 578 786 617 749 q 488 824 540 824 l 251 824 l 251 567 l 488 567 z "},"C":{"ha":1071,"x_min":75,"x_max":1007,"o":"m 550 -19 q 312 48 421 -19 q 139 231 203 115 q 75 482 75 346 q 139 734 75 618 q 312 917 203 850 q 550 985 421 985 q 751 938 657 985 q 913 807 846 890 q 1006 618 979 724 l 876 600 q 755 774 842 707 q 560 842 668 842 q 393 793 469 842 q 272 662 317 744 q 226 482 226 579 q 272 302 226 385 q 393 171 317 219 q 560 122 469 122 q 755 190 668 122 q 876 364 842 257 l 1007 347 q 913 158 979 242 q 751 28 846 75 q 550 -19 657 -19 z "},"D":{"ha":956,"x_min":92,"x_max":881,"o":"m 92 963 l 400 963 q 641 898 531 963 q 816 723 751 833 q 881 482 881 613 q 816 241 881 351 q 641 65 751 131 q 400 0 531 0 l 92 0 l 92 963 m 385 136 q 558 183 479 136 q 683 308 638 229 q 729 482 729 388 q 683 656 729 576 q 558 781 638 735 q 385 826 479 826 l 243 826 l 243 136 l 385 136 z "},"E":{"ha":781,"x_min":92,"x_max":724,"o":"m 92 963 l 724 963 l 724 824 l 243 824 l 243 546 l 675 546 l 675 417 l 243 417 l 243 139 l 724 139 l 724 0 l 92 0 l 92 963 z "},"F":{"ha":744,"x_min":92,"x_max":693,"o":"m 92 963 l 693 963 l 693 824 l 243 824 l 243 546 l 647 546 l 647 417 l 243 417 l 243 0 l 92 0 l 92 963 z "},"G":{"ha":1079,"x_min":64,"x_max":1015,"o":"m 539 -19 q 301 48 411 -19 q 128 231 192 115 q 64 482 64 346 q 128 734 64 618 q 301 917 192 850 q 539 985 410 985 q 803 899 685 985 q 976 676 922 814 l 853 633 q 731 785 813 728 q 549 842 649 842 q 382 793 458 842 q 260 662 306 744 q 215 482 215 579 q 260 302 215 385 q 382 171 306 219 q 549 122 458 122 q 705 164 632 122 q 824 278 778 206 q 878 438 869 350 l 1015 482 q 951 231 1015 346 q 778 48 888 115 q 539 -19 668 -19 m 501 526 l 1015 526 l 1015 482 l 994 404 l 501 404 l 501 526 z "},"H":{"ha":953,"x_min":92,"x_max":861,"o":"m 710 0 l 710 417 l 243 417 l 243 0 l 92 0 l 92 963 l 243 963 l 243 546 l 710 546 l 710 963 l 861 963 l 861 0 l 710 0 z "},"I":{"ha":336,"x_min":92,"x_max":243,"o":"m 92 0 l 92 963 l 243 963 l 243 0 l 92 0 z "},"J":{"ha":310,"x_min":-150,"x_max":218,"o":"m -150 -157 l -89 -157 q 22 -112 -24 -157 q 67 -1 67 -67 l 67 963 l 218 963 l 218 4 q 178 -147 218 -78 q 72 -256 139 -215 q -76 -296 4 -296 l -150 -296 l -150 -157 z "},"K":{"ha":879,"x_min":92,"x_max":858,"o":"m 846 963 l 236 317 l 229 536 l 650 963 l 846 963 m 243 963 l 243 0 l 92 0 l 92 963 l 243 963 m 438 561 l 858 0 l 681 0 l 294 513 l 438 561 z "},"L":{"ha":675,"x_min":92,"x_max":647,"o":"m 647 0 l 92 0 l 92 963 l 243 963 l 243 139 l 647 139 l 647 0 z "},"M":{"ha":1189,"x_min":92,"x_max":1096,"o":"m 92 963 l 310 963 l 594 236 l 879 963 l 1096 963 l 1096 0 l 951 0 l 951 736 l 669 68 l 519 68 l 236 736 l 236 0 l 92 0 l 92 963 z "},"N":{"ha":986,"x_min":92,"x_max":893,"o":"m 674 0 l 236 743 l 236 0 l 92 0 l 92 963 l 285 963 l 749 161 l 749 963 l 893 963 l 893 0 l 674 0 z "},"O":{"ha":1129,"x_min":75,"x_max":1054,"o":"m 565 -19 q 319 48 432 -19 q 141 231 207 115 q 75 483 75 347 q 141 735 75 619 q 319 917 207 850 q 565 985 432 985 q 810 917 697 985 q 988 735 922 850 q 1054 483 1054 619 q 988 231 1054 347 q 810 48 922 115 q 565 -19 697 -19 m 565 122 q 734 171 657 122 q 857 302 811 219 q 903 483 903 385 q 857 663 903 581 q 733 793 811 744 q 565 842 656 842 q 394 793 472 842 q 271 663 317 744 q 225 483 225 581 q 271 302 225 385 q 394 171 317 219 q 565 122 472 122 z "},"P":{"ha":819,"x_min":92,"x_max":771,"o":"m 92 963 l 454 963 q 613 920 540 963 q 728 805 686 878 q 771 646 771 732 q 728 487 771 560 q 613 371 686 414 q 454 328 540 328 l 243 328 l 243 0 l 92 0 l 92 963 m 243 467 l 444 467 q 532 491 492 467 q 596 557 572 515 q 619 646 619 599 q 596 734 619 693 q 532 799 572 775 q 444 824 492 824 l 243 824 l 243 467 z "},"Q":{"ha":1142,"x_min":75,"x_max":1067,"o":"m 571 -12 q 322 54 436 -12 q 142 235 208 121 q 75 483 75 349 q 142 731 75 617 q 322 910 208 844 q 571 976 436 976 q 819 910 706 976 q 1000 730 933 843 q 1067 483 1067 617 q 1000 235 1067 349 q 819 54 933 121 q 571 -12 706 -12 m 708 -107 q 653 -37 690 -62 q 571 -12 617 -12 l 592 43 q 856 -86 806 43 l 882 -151 l 743 -194 l 708 -107 m 571 131 q 743 178 664 131 q 869 306 822 225 q 915 483 915 388 q 869 658 915 578 q 743 786 822 739 q 571 833 664 833 q 397 786 476 833 q 271 658 317 739 q 225 483 225 578 q 271 306 225 388 q 397 178 317 225 q 571 131 476 131 z "},"R":{"ha":863,"x_min":92,"x_max":831,"o":"m 92 963 l 454 963 q 613 920 540 963 q 728 806 686 878 q 771 647 771 733 q 728 494 771 561 q 614 389 686 426 q 454 351 542 351 l 243 351 l 243 0 l 92 0 l 92 963 m 578 240 q 518 322 556 294 q 417 349 481 349 l 207 349 l 207 425 l 411 425 q 555 415 501 425 q 649 372 608 406 q 718 271 689 339 l 831 0 l 681 0 l 578 240 m 444 469 q 531 494 490 469 q 595 559 571 518 q 619 647 619 600 q 595 735 619 694 q 531 799 571 775 q 444 824 490 824 l 243 824 l 243 469 l 444 469 z "},"S":{"ha":871,"x_min":60,"x_max":813,"o":"m 442 -21 q 238 8 342 -21 q 60 83 135 38 l 114 210 q 265 147 174 174 q 436 121 357 121 q 600 156 539 121 q 661 254 661 192 q 632 328 661 300 q 560 370 603 356 q 424 410 517 385 q 228 481 300 443 q 122 573 156 519 q 89 706 89 626 q 138 855 89 792 q 271 951 186 918 q 463 985 356 985 q 779 922 610 985 l 729 790 q 463 843 585 843 q 301 806 361 843 q 240 704 240 768 q 266 630 240 657 q 338 586 292 603 q 476 546 383 569 q 733 439 654 503 q 813 267 813 375 q 765 112 813 176 q 634 13 718 47 q 442 -21 550 -21 z "},"T":{"ha":719,"x_min":17,"x_max":703,"o":"m 283 824 l 18 824 l 17 963 l 703 963 l 703 824 l 435 824 l 435 0 l 283 0 l 283 824 z "},"U":{"ha":892,"x_min":85,"x_max":806,"o":"m 446 -7 q 265 42 347 -7 q 133 173 182 90 q 85 354 85 256 l 85 963 l 236 963 l 236 346 q 264 240 236 289 q 340 164 292 192 q 446 136 389 136 q 551 164 503 136 q 626 240 599 192 q 654 346 654 289 l 654 963 l 806 963 l 806 354 q 757 173 806 256 q 626 42 708 90 q 446 -7 543 -7 z "},"V":{"ha":847,"x_min":14,"x_max":832,"o":"m 321 0 l 14 963 l 168 963 l 424 165 l 679 963 l 832 963 l 526 0 l 321 0 z "},"W":{"ha":1207,"x_min":14,"x_max":1192,"o":"m 14 963 l 163 963 l 313 156 l 511 892 l 694 892 l 894 156 l 1043 963 l 1192 963 l 994 0 l 793 0 l 604 753 l 414 0 l 211 0 l 14 963 z "},"X":{"ha":836,"x_min":14,"x_max":822,"o":"m 190 0 l 822 963 l 646 963 l 14 0 l 190 0 m 822 0 l 190 963 l 14 963 l 646 0 l 822 0 z "},"Y":{"ha":818,"x_min":14,"x_max":804,"o":"m 332 304 l 14 963 l 179 963 l 406 486 l 638 963 l 804 963 l 483 304 l 483 0 l 332 0 l 332 304 z "},"Z":{"ha":783,"x_min":35,"x_max":747,"o":"m 747 0 l 35 0 l 35 163 l 564 824 l 58 824 l 58 963 l 740 963 l 740 800 l 213 139 l 747 139 l 747 0 z "},"a":{"ha":875,"x_min":60,"x_max":797,"o":"m 421 -12 q 240 36 322 -12 q 108 168 157 85 q 60 349 60 251 q 108 528 60 446 q 240 658 157 610 q 421 707 322 707 q 585 659 515 707 q 692 530 656 611 q 728 349 728 449 q 692 166 728 249 q 585 35 656 83 q 421 -12 515 -12 m 429 129 q 538 158 488 129 q 617 238 588 188 q 646 349 646 289 q 617 458 646 408 q 538 538 588 508 q 429 567 488 567 q 319 538 369 567 q 240 458 269 508 q 211 349 211 408 q 240 238 211 289 q 319 158 269 188 q 429 129 369 129 m 671 236 l 646 236 l 646 438 l 797 438 l 797 0 l 671 0 l 671 236 m 646 460 l 671 460 l 671 696 l 797 696 l 797 257 l 646 257 l 646 460 z "},"b":{"ha":890,"x_min":92,"x_max":829,"o":"m 468 -12 q 304 35 374 -12 q 198 166 235 83 q 161 349 161 249 q 198 530 161 449 q 304 659 235 611 q 468 707 374 707 q 649 658 567 707 q 781 528 732 610 q 829 349 829 446 q 781 168 829 251 q 649 36 732 85 q 468 -12 567 -12 m 92 1004 l 243 1004 l 243 179 l 218 181 l 218 0 l 92 0 l 92 1004 m 461 129 q 569 158 519 129 q 649 238 619 188 q 678 349 678 289 q 649 458 678 408 q 569 538 619 508 q 461 567 519 567 q 351 538 401 567 q 272 458 301 508 q 243 349 243 408 q 272 238 243 289 q 351 158 301 188 q 461 129 401 129 z "},"c":{"ha":825,"x_min":61,"x_max":765,"o":"m 421 -12 q 240 36 322 -12 q 109 168 157 85 q 61 349 61 251 q 109 528 61 446 q 240 660 157 611 q 421 708 322 708 q 580 672 507 708 q 701 571 653 635 q 765 428 750 507 l 636 410 q 559 522 617 478 q 429 567 501 567 q 320 538 369 567 q 242 458 271 508 q 213 349 213 408 q 242 238 213 289 q 320 158 271 188 q 429 129 369 129 q 559 174 501 129 q 636 288 617 218 l 765 268 q 701 125 750 189 q 580 24 653 61 q 421 -12 507 -12 z "},"d":{"ha":890,"x_min":61,"x_max":797,"o":"m 422 -12 q 241 36 324 -12 q 110 168 158 85 q 61 349 61 251 q 110 528 61 446 q 241 658 158 610 q 422 707 324 707 q 586 659 517 707 q 692 530 656 611 q 728 349 728 449 q 692 166 728 249 q 586 35 656 83 q 422 -12 517 -12 m 429 129 q 538 158 489 129 q 617 238 588 188 q 646 349 646 289 q 617 458 646 408 q 538 538 588 508 q 429 567 489 567 q 320 538 369 567 q 242 458 271 508 q 213 349 213 408 q 242 238 213 289 q 320 158 271 188 q 429 129 369 129 m 671 181 l 646 179 l 646 1004 l 797 1004 l 797 0 l 671 0 l 671 181 z "},"e":{"ha":821,"x_min":64,"x_max":771,"o":"m 425 -12 q 244 37 326 -12 q 113 169 161 86 q 64 349 64 251 q 113 528 64 446 q 244 660 161 611 q 425 708 326 708 q 603 660 524 708 q 726 529 682 611 q 771 349 771 447 q 767 290 771 318 l 210 290 q 283 163 222 214 q 426 113 344 113 q 540 141 489 113 q 622 218 590 169 l 733 163 q 606 34 688 81 q 425 -12 525 -12 m 636 410 q 563 531 622 482 q 426 581 504 581 q 289 531 349 581 q 214 410 229 482 l 636 410 z "},"f":{"ha":564,"x_min":28,"x_max":542,"o":"m 315 0 l 165 0 l 165 557 l 28 557 l 28 696 l 315 696 l 315 0 m 165 781 q 198 902 165 847 q 286 989 231 957 q 407 1021 342 1021 l 542 1021 l 542 888 l 414 888 q 344 859 374 888 q 315 788 315 831 l 315 696 l 507 696 l 507 557 l 165 557 l 165 781 z "},"g":{"ha":868,"x_min":61,"x_max":797,"o":"m 200 -175 l 469 -175 q 567 -148 522 -175 q 640 -75 613 -121 q 667 26 667 -29 l 667 531 l 671 531 l 671 696 l 797 696 l 797 28 q 751 -144 797 -65 q 628 -270 706 -224 q 458 -317 550 -317 l 200 -317 l 200 -175 m 421 -12 q 240 36 322 -12 q 109 168 157 85 q 61 349 61 251 q 109 528 61 446 q 240 658 157 610 q 421 707 322 707 q 585 659 515 707 q 692 530 656 611 q 728 349 728 449 q 692 166 728 249 q 585 35 656 83 q 421 -12 515 -12 m 429 129 q 538 158 489 129 q 617 238 588 188 q 646 349 646 289 q 617 458 646 408 q 538 538 588 508 q 429 567 489 567 q 320 538 369 567 q 242 458 271 508 q 213 349 213 408 q 242 238 213 289 q 320 158 271 188 q 429 129 369 129 z "},"h":{"ha":797,"x_min":92,"x_max":743,"o":"m 593 382 q 542 507 593 456 q 417 558 490 558 q 331 535 371 558 q 267 470 290 511 q 243 382 243 429 l 163 382 q 197 540 163 465 q 294 660 231 614 q 443 706 358 706 q 597 663 528 706 q 704 547 665 619 q 743 386 743 474 l 743 0 l 593 0 l 593 382 m 92 1004 l 243 1004 l 243 0 l 92 0 l 92 1004 z "},"i":{"ha":315,"x_min":76,"x_max":239,"o":"m 82 696 l 233 696 l 233 0 l 82 0 l 82 696 m 76 924 l 239 924 l 239 793 l 76 793 l 76 924 z "},"j":{"ha":318,"x_min":-83,"x_max":244,"o":"m -83 -132 l -12 -132 q 57 -103 28 -132 q 86 -33 86 -75 l 86 696 l 238 696 l 238 -33 q 205 -156 238 -100 q 117 -243 172 -211 q -4 -275 61 -275 l -83 -275 l -83 -132 m 81 924 l 244 924 l 244 793 l 81 793 l 81 924 z "},"k":{"ha":733,"x_min":92,"x_max":707,"o":"m 308 318 l 404 442 l 707 0 l 529 0 l 308 318 m 92 1004 l 243 1004 l 243 0 l 92 0 l 92 1004 m 243 449 l 496 696 l 682 696 l 243 240 l 243 449 z "},"l":{"ha":350,"x_min":92,"x_max":306,"o":"m 285 0 q 188 25 232 0 q 118 94 144 50 q 92 190 92 138 l 92 1004 l 243 1004 l 243 181 q 255 152 243 164 q 285 140 267 140 l 306 140 l 306 0 l 285 0 z "},"m":{"ha":1206,"x_min":78,"x_max":1151,"o":"m 1001 403 q 956 513 1001 467 q 846 558 910 558 q 736 513 782 558 q 690 403 690 467 l 608 404 q 641 551 608 482 q 733 664 674 621 q 871 707 793 707 q 1014 667 950 707 q 1115 558 1078 626 q 1151 408 1151 489 l 1151 0 l 1001 0 l 1001 403 m 78 696 l 204 696 l 204 525 l 229 515 l 229 0 l 78 0 l 78 696 m 540 403 q 494 513 540 467 q 385 558 449 558 q 275 513 321 558 q 229 403 229 467 l 147 404 q 180 551 147 482 q 272 664 213 621 q 410 707 332 707 q 553 667 489 707 q 653 558 617 626 q 690 408 690 489 l 690 0 l 540 0 l 540 403 z "},"n":{"ha":783,"x_min":78,"x_max":729,"o":"m 579 383 q 528 508 579 457 q 403 560 476 560 q 317 536 357 560 q 253 472 276 513 q 229 383 229 431 l 149 383 q 183 541 149 467 q 281 661 217 615 q 429 707 344 707 q 583 664 514 707 q 690 548 651 621 q 729 388 729 475 l 729 0 l 579 0 l 579 383 m 78 696 l 204 696 l 204 525 l 229 515 l 229 0 l 78 0 l 78 696 z "},"o":{"ha":857,"x_min":60,"x_max":797,"o":"m 429 -12 q 244 36 329 -12 q 110 167 160 85 q 60 349 60 250 q 110 528 60 446 q 244 659 160 611 q 429 707 329 707 q 614 659 529 707 q 748 528 699 611 q 797 349 797 446 q 748 167 797 250 q 614 36 699 85 q 429 -12 529 -12 m 429 129 q 538 158 488 129 q 617 238 588 188 q 646 349 646 289 q 617 458 646 408 q 538 538 588 508 q 429 567 488 567 q 319 538 369 567 q 240 458 269 508 q 211 349 211 408 q 240 238 211 289 q 319 158 269 188 q 429 129 369 129 z "},"p":{"ha":886,"x_min":89,"x_max":825,"o":"m 465 -12 q 301 35 371 -12 q 194 166 231 83 q 158 349 158 249 q 194 530 158 449 q 301 659 231 611 q 465 707 371 707 q 647 658 564 707 q 777 527 729 610 q 825 347 825 444 q 777 167 825 250 q 647 36 729 85 q 465 -12 564 -12 m 89 696 l 215 696 l 215 515 l 240 515 l 240 -268 l 89 -268 l 89 696 m 457 129 q 566 158 517 129 q 644 238 615 188 q 674 349 674 289 q 644 458 674 408 q 566 538 615 508 q 457 567 517 567 q 348 538 397 567 q 269 458 299 508 q 240 349 240 408 q 269 238 240 289 q 348 158 299 188 q 457 129 397 129 z "},"q":{"ha":886,"x_min":60,"x_max":797,"o":"m 421 -12 q 240 36 322 -12 q 108 167 157 85 q 60 347 60 250 q 108 527 60 444 q 240 658 157 610 q 421 707 322 707 q 585 659 515 707 q 692 530 656 611 q 728 349 728 449 q 692 166 728 249 q 585 35 656 83 q 421 -12 515 -12 m 429 129 q 538 158 488 129 q 617 238 588 188 q 646 349 646 289 q 617 458 646 408 q 538 538 588 508 q 429 567 488 567 q 319 538 369 567 q 240 458 269 508 q 211 349 211 408 q 240 238 211 289 q 319 158 269 188 q 429 129 369 129 m 646 515 l 671 515 l 671 696 l 797 696 l 797 -268 l 646 -268 l 646 515 z "},"r":{"ha":531,"x_min":78,"x_max":500,"o":"m 78 696 l 204 696 l 204 515 l 229 515 l 229 0 l 78 0 l 78 696 m 149 332 q 187 509 149 425 q 297 645 225 593 q 464 697 369 697 l 500 697 l 500 558 l 422 558 q 326 532 371 558 q 256 460 282 506 q 229 364 229 415 l 149 332 z "},"s":{"ha":719,"x_min":61,"x_max":667,"o":"m 376 -14 q 203 13 285 -14 q 61 86 122 39 l 125 186 q 376 111 244 111 q 517 193 517 111 q 482 247 517 229 q 371 282 447 265 q 165 360 231 314 q 99 500 99 406 q 174 651 99 593 q 378 708 250 708 q 515 688 446 708 q 639 636 585 668 l 585 531 q 378 582 476 582 q 283 560 317 582 q 249 497 249 538 q 283 438 249 456 q 399 407 317 421 q 597 333 528 383 q 667 196 667 283 q 590 42 667 97 q 376 -14 513 -14 z "},"t":{"ha":619,"x_min":31,"x_max":569,"o":"m 194 556 l 31 556 l 31 696 l 556 696 l 556 557 l 344 557 l 344 238 q 374 168 344 197 q 444 139 403 139 l 569 139 l 569 0 l 436 0 q 315 31 371 0 q 227 117 260 63 q 194 238 194 171 l 194 556 m 194 696 l 194 900 l 344 900 l 344 696 l 194 696 z "},"u":{"ha":783,"x_min":53,"x_max":706,"o":"m 354 -12 q 201 31 269 -12 q 92 147 132 74 q 53 308 53 221 l 53 696 l 204 696 l 204 313 q 256 188 204 239 q 381 136 307 136 q 467 160 426 136 q 531 224 507 183 q 554 313 554 265 l 635 313 q 601 154 635 229 q 503 33 567 79 q 354 -12 439 -12 m 579 171 l 554 181 l 554 696 l 706 696 l 706 0 l 579 0 l 579 171 z "},"v":{"ha":722,"x_min":14,"x_max":708,"o":"m 265 0 l 14 696 l 169 696 l 361 156 l 554 696 l 708 696 l 456 0 l 265 0 z "},"w":{"ha":988,"x_min":14,"x_max":974,"o":"m 14 696 l 160 696 l 260 214 l 432 654 l 563 654 l 735 214 l 828 696 l 974 696 l 843 0 l 682 0 l 497 454 l 314 0 l 154 0 l 14 696 z "},"x":{"ha":711,"x_min":14,"x_max":697,"o":"m 14 696 l 186 696 l 693 0 l 522 0 l 14 696 m 524 696 l 697 696 l 189 0 l 17 0 l 524 696 z "},"y":{"ha":746,"x_min":18,"x_max":728,"o":"m 60 -181 l 168 -181 q 247 -158 214 -181 q 296 -93 281 -135 l 574 696 l 728 696 l 439 -124 q 344 -269 414 -214 q 176 -325 274 -325 l 60 -325 l 60 -181 m 18 696 l 172 696 l 403 0 l 250 0 l 18 696 z "},"z":{"ha":683,"x_min":49,"x_max":635,"o":"m 635 0 l 49 0 l 49 144 l 428 557 l 51 557 l 51 696 l 629 696 l 629 550 l 254 139 l 635 139 l 635 0 z "},".":{"ha":393,"x_min":97,"x_max":296,"o":"m 196 -15 q 127 15 157 -15 q 97 86 97 46 q 126 156 97 126 q 196 185 154 185 q 268 156 240 185 q 296 86 296 126 q 266 14 296 43 q 196 -15 236 -15 z "},",":{"ha":393,"x_min":71,"x_max":297,"o":"m 71 -190 q 147 -68 118 -124 q 181 -3 175 -12 q 124 22 150 -6 q 97 85 97 49 q 126 156 97 126 q 199 186 156 186 q 269 156 242 186 q 297 83 297 126 q 156 -247 297 -53 l 71 -190 z "},":":{"ha":393,"x_min":97,"x_max":296,"o":"m 196 433 q 127 463 157 433 q 97 533 97 493 q 126 604 97 575 q 196 633 154 633 q 268 604 240 633 q 296 533 296 575 q 266 462 296 490 q 196 433 236 433 m 196 -15 q 127 15 157 -15 q 97 86 97 46 q 126 156 97 126 q 196 185 154 185 q 268 156 240 185 q 296 86 296 126 q 266 14 296 43 q 196 -15 236 -15 z "},";":{"ha":393,"x_min":71,"x_max":297,"o":"m 71 -190 q 147 -68 118 -124 q 181 -3 175 -12 q 124 22 150 -6 q 97 85 97 49 q 126 156 97 126 q 199 186 156 186 q 269 156 242 186 q 297 83 297 126 q 156 -247 297 -53 l 71 -190 m 196 433 q 127 463 157 433 q 97 533 97 493 q 126 604 97 575 q 196 633 154 633 q 268 604 240 633 q 296 533 296 575 q 266 462 296 490 q 196 433 236 433 z "},"-":{"ha":622,"x_min":99,"x_max":522,"o":"m 99 467 l 522 467 l 522 333 l 99 333 l 99 467 z "},"+":{"ha":871,"x_min":106,"x_max":765,"o":"m 365 353 l 106 353 l 106 485 l 365 485 l 365 747 l 506 747 l 506 485 l 765 485 l 765 353 l 506 353 l 506 88 l 365 88 l 365 353 z "},"*":{"ha":700,"x_min":44,"x_max":654,"o":"m 413 533 q 373 594 381 576 q 357 653 365 613 l 350 688 l 396 721 l 431 700 q 478 668 463 682 q 522 614 493 654 l 579 535 l 469 454 l 413 533 m 563 733 q 475 714 506 714 q 436 717 467 714 l 396 721 l 379 776 l 408 803 q 453 838 436 828 q 519 864 471 847 l 613 893 l 654 763 l 563 733 m 306 811 q 286 866 290 846 q 282 938 282 886 l 282 1035 l 419 1035 l 419 938 q 415 866 419 886 q 393 810 410 846 l 379 776 l 321 776 l 306 811 m 44 764 l 88 894 l 179 865 q 246 838 228 849 q 294 800 264 828 l 321 776 l 304 721 q 275 718 292 721 q 225 715 231 715 q 138 735 196 715 l 44 764 m 118 536 l 175 614 q 221 669 206 656 q 271 703 236 683 l 304 721 l 350 688 q 345 667 347 676 q 342 650 343 657 q 325 595 333 614 q 286 533 317 576 l 229 456 l 118 536 z "},"^":{"ha":821,"x_min":93,"x_max":728,"o":"m 411 638 l 228 197 l 93 197 l 340 775 l 481 775 l 728 197 l 593 197 l 411 638 z "},"˜":{"ha":688,"x_min":97,"x_max":590,"o":"m 443 843 q 385 856 411 843 q 325 896 360 868 q 284 924 299 915 q 254 932 269 932 q 208 910 226 932 q 186 851 189 889 l 97 851 q 139 985 100 936 q 244 1033 178 1033 q 302 1022 276 1033 q 363 982 328 1010 q 403 953 388 963 q 433 944 418 944 q 481 965 463 944 q 501 1022 500 986 l 590 1022 q 549 892 588 940 q 443 843 510 843 z "},"/":{"ha":510,"x_min":-14,"x_max":524,"o":"m 138 -139 l -14 -139 l 372 963 l 524 963 l 138 -139 z "},"<":{"ha":776,"x_min":90,"x_max":696,"o":"m 251 486 l 696 303 l 696 168 l 90 417 l 90 556 l 696 804 l 696 669 l 251 486 z "},"=":{"ha":822,"x_min":90,"x_max":732,"o":"m 90 719 l 732 719 l 732 586 l 90 586 l 90 719 m 90 386 l 732 386 l 732 253 l 90 253 l 90 386 z "},">":{"ha":776,"x_min":79,"x_max":686,"o":"m 79 303 l 524 486 l 79 669 l 79 804 l 686 556 l 686 417 l 79 168 l 79 303 z "},"!":{"ha":356,"x_min":89,"x_max":267,"o":"m 226 265 l 128 265 l 96 963 l 257 963 l 226 265 m 178 -15 q 116 12 143 -15 q 89 75 89 39 q 115 138 89 111 q 178 164 140 164 q 242 138 217 164 q 267 75 267 111 q 240 11 267 38 q 178 -15 213 -15 z "},"?":{"ha":575,"x_min":24,"x_max":526,"o":"m 231 265 q 247 394 229 342 q 306 510 264 447 l 329 542 q 382 629 365 594 q 399 708 399 664 q 358 806 399 765 q 260 847 317 847 q 181 823 217 847 q 129 760 146 799 q 117 731 117 731 l 24 765 q 113 913 42 854 q 276 972 183 972 q 403 939 346 972 q 493 849 460 906 q 526 722 526 792 q 502 607 526 657 q 421 483 478 557 q 353 374 376 424 q 329 265 331 325 l 231 265 m 279 -15 q 217 12 244 -15 q 190 75 190 39 q 216 138 190 113 q 279 164 242 164 q 343 138 318 164 q 368 75 368 111 q 341 11 368 38 q 279 -15 314 -15 z "},"'":{"ha":296,"x_min":74,"x_max":222,"o":"m 210 581 l 86 581 l 74 963 l 222 963 l 210 581 z "},"\"":{"ha":564,"x_min":74,"x_max":489,"o":"m 210 581 l 86 581 l 74 963 l 222 963 l 210 581 m 478 581 l 354 581 l 342 963 l 489 963 l 478 581 z "},"#":{"ha":1018,"x_min":49,"x_max":969,"o":"m 738 356 l 925 356 l 925 236 l 724 236 l 693 0 l 567 0 l 596 236 l 363 236 l 333 0 l 206 0 l 236 236 l 49 236 l 49 356 l 250 356 l 281 597 l 92 597 l 92 717 l 294 717 l 324 943 l 451 943 l 422 717 l 656 717 l 685 943 l 811 943 l 782 717 l 969 717 l 969 597 l 768 597 l 738 356 m 378 356 l 611 356 l 640 597 l 407 597 l 378 356 z "},"@":{"ha":1438,"x_min":60,"x_max":1376,"o":"m 719 -283 q 378 -203 528 -283 q 144 22 228 -122 q 60 351 60 167 q 145 681 60 538 q 382 905 231 825 q 725 985 533 985 q 1060 908 911 985 q 1292 692 1208 831 q 1376 375 1376 553 q 1347 182 1376 269 q 1258 43 1317 94 q 1115 -8 1199 -8 q 1008 23 1050 -8 q 953 106 967 54 q 946 135 950 115 q 942 168 942 154 q 838 39 907 86 q 676 -8 768 -8 q 510 39 583 -8 q 395 167 436 86 q 354 346 354 247 q 396 526 354 446 q 511 653 438 607 q 676 700 585 700 q 823 663 758 700 q 921 560 888 626 l 921 692 l 1068 692 l 1068 201 q 1090 133 1068 157 q 1149 108 1113 108 q 1237 186 1210 108 q 1264 374 1264 264 q 1194 641 1264 525 q 1002 819 1125 757 q 725 882 879 882 q 444 815 567 882 q 252 626 321 747 q 183 351 183 506 q 251 75 183 196 q 442 -113 319 -46 q 719 -181 564 -181 q 860 -165 789 -181 q 992 -118 931 -149 l 1026 -218 q 885 -266 968 -249 q 719 -283 801 -283 m 711 125 q 821 154 772 125 q 897 234 869 183 q 925 347 925 285 q 897 460 925 410 q 820 540 869 511 q 711 569 771 569 q 601 540 650 569 q 524 460 551 511 q 496 347 496 410 q 524 234 496 285 q 601 154 551 183 q 711 125 650 125 z "},"$":{"ha":932,"x_min":90,"x_max":842,"o":"m 472 -21 q 269 8 372 -21 q 90 83 165 38 l 143 210 q 296 147 204 172 q 467 121 388 121 q 630 156 569 121 q 690 254 690 192 q 661 328 690 300 q 589 370 632 356 q 453 410 546 385 q 258 481 329 443 q 153 573 186 519 q 119 706 119 626 q 167 855 119 792 q 300 951 215 918 q 493 985 385 985 q 808 922 642 985 l 760 790 q 492 843 615 843 q 331 806 390 843 q 271 704 271 768 q 297 630 271 657 q 368 586 322 603 q 507 546 414 569 q 763 439 685 503 q 842 267 842 375 q 794 113 842 178 q 663 13 747 47 q 472 -21 579 -21 m 435 6 l 547 6 l 547 -150 l 435 -150 l 435 6 m 435 1117 l 547 1117 l 547 960 l 435 960 l 435 1117 z "},"%":{"ha":1201,"x_min":56,"x_max":1146,"o":"m 289 464 q 120 536 185 464 q 56 729 56 608 q 119 923 56 850 q 289 996 183 996 q 458 922 394 996 q 521 729 521 849 q 456 536 521 608 q 289 464 392 464 m 333 0 l 197 0 l 875 993 l 1011 993 l 333 0 m 289 554 q 374 603 343 554 q 406 729 406 651 q 374 856 406 808 q 289 904 343 904 q 202 856 233 904 q 171 729 171 807 q 202 602 171 650 q 289 554 233 554 m 914 -10 q 745 63 810 -10 q 681 257 681 136 q 745 451 681 378 q 914 524 810 524 q 1083 450 1019 524 q 1146 257 1146 376 q 1081 63 1146 136 q 914 -10 1017 -10 m 914 82 q 1001 131 969 82 q 1032 257 1032 179 q 1001 384 1032 336 q 914 432 969 432 q 827 383 858 432 q 796 257 796 335 q 827 130 796 178 q 914 82 858 82 z "},"&":{"ha":1054,"x_min":93,"x_max":967,"o":"m 431 -15 q 258 16 335 -15 q 138 107 182 47 q 93 247 93 167 q 144 396 93 333 q 314 531 196 458 q 226 649 254 594 q 197 757 197 703 q 276 924 197 863 q 475 985 354 985 q 660 928 589 985 q 731 772 731 871 q 681 638 731 697 q 533 522 632 579 l 754 297 q 858 463 807 367 l 954 406 q 831 215 897 301 l 967 81 l 879 -15 l 743 119 q 597 19 669 54 q 431 -15 524 -15 m 443 117 q 653 199 568 117 l 397 456 q 280 363 318 407 q 242 264 242 318 q 297 158 242 199 q 443 117 353 117 m 438 607 q 553 690 517 654 q 590 769 590 725 q 559 841 590 814 q 475 868 528 868 q 382 839 415 868 q 349 760 349 810 q 367 692 349 724 q 438 607 386 660 z "},"(":{"ha":465,"x_min":104,"x_max":392,"o":"m 274 -244 q 148 48 192 -119 q 104 406 104 215 q 148 765 104 597 q 274 1056 192 932 l 392 1004 q 254 406 254 738 q 392 -192 254 75 l 274 -244 z "},")":{"ha":465,"x_min":72,"x_max":361,"o":"m 72 -192 q 210 406 210 71 q 72 1004 210 742 l 192 1056 q 317 765 274 932 q 361 406 361 597 q 317 48 361 215 q 192 -244 274 -119 l 72 -192 z "},"{":{"ha":532,"x_min":83,"x_max":474,"o":"m 342 543 q 323 451 342 483 q 263 406 304 419 q 323 360 304 392 q 342 269 342 329 l 342 14 q 367 -65 342 -37 q 444 -92 393 -92 l 474 -92 l 474 -224 l 426 -224 q 251 -167 311 -224 q 192 -4 192 -111 l 192 274 q 131 340 192 340 l 83 340 l 83 472 l 131 472 q 192 539 192 472 l 192 817 q 251 979 192 924 q 426 1035 311 1035 l 474 1035 l 474 904 l 444 904 q 367 877 393 904 q 342 799 342 850 l 342 543 z "},"|":{"ha":414,"x_min":132,"x_max":282,"o":"m 282 -269 l 132 -269 l 132 1031 l 282 1031 l 282 -269 z "},"}":{"ha":532,"x_min":58,"x_max":449,"o":"m 190 799 q 165 877 190 850 q 88 904 139 904 l 58 904 l 58 1035 l 106 1035 q 281 979 222 1035 q 340 817 340 924 l 340 539 q 401 472 340 472 l 449 472 l 449 340 l 401 340 q 340 274 340 340 l 340 -4 q 281 -168 340 -112 q 106 -224 222 -224 l 58 -224 l 58 -92 l 88 -92 q 165 -65 139 -92 q 190 14 190 -37 l 190 269 q 209 360 190 329 q 269 406 228 392 q 209 451 228 419 q 190 543 190 483 l 190 799 z "},"[":{"ha":478,"x_min":101,"x_max":408,"o":"m 101 1035 l 408 1035 l 408 904 l 251 904 l 251 -92 l 408 -92 l 408 -224 l 101 -224 l 101 1035 z "},"\\":{"ha":513,"x_min":-14,"x_max":526,"o":"m -14 963 l 140 963 l 526 -139 l 372 -139 l -14 963 z "},"]":{"ha":478,"x_min":69,"x_max":376,"o":"m 69 -224 l 69 -92 l 226 -92 l 226 904 l 69 904 l 69 1035 l 376 1035 l 376 -224 l 69 -224 z "},"‘":{"ha":317,"x_min":54,"x_max":281,"o":"m 281 1090 q 205 967 233 1024 q 171 901 176 911 q 227 878 200 904 q 254 815 254 851 q 225 744 254 774 q 154 714 196 714 q 82 744 110 714 q 54 817 54 774 q 197 1146 54 951 l 281 1090 z "},"’":{"ha":317,"x_min":36,"x_max":263,"o":"m 36 771 q 112 893 83 838 q 146 958 140 949 q 88 983 115 956 q 61 1046 61 1010 q 91 1117 61 1088 q 163 1146 121 1146 q 235 1117 207 1146 q 263 1043 263 1088 q 228 898 263 981 q 119 714 194 815 l 36 771 z "},"“":{"ha":546,"x_min":54,"x_max":510,"o":"m 281 1090 q 205 967 233 1024 q 171 901 176 911 q 227 878 200 904 q 254 815 254 851 q 225 744 254 774 q 154 714 196 714 q 82 744 110 714 q 54 817 54 774 q 197 1146 54 951 l 281 1090 m 510 1090 q 434 967 463 1024 q 400 901 406 911 q 456 878 429 904 q 483 815 483 851 q 454 744 483 774 q 383 714 425 714 q 311 744 339 714 q 283 817 283 774 q 426 1146 283 951 l 510 1090 z "},"”":{"ha":546,"x_min":36,"x_max":492,"o":"m 265 771 q 341 893 313 838 q 375 958 369 949 q 318 983 344 956 q 292 1046 292 1010 q 321 1117 292 1088 q 392 1146 350 1146 q 464 1117 436 1146 q 492 1043 492 1088 q 458 898 492 981 q 349 714 424 815 l 265 771 m 36 771 q 112 893 83 838 q 146 958 140 949 q 88 983 115 956 q 61 1046 61 1010 q 91 1117 61 1088 q 163 1146 121 1146 q 235 1117 207 1146 q 263 1043 263 1088 q 228 898 263 981 q 119 714 194 815 l 36 771 z "},"‚":{"ha":317,"x_min":36,"x_max":263,"o":"m 36 -181 q 112 -58 83 -114 q 146 7 140 -3 q 88 31 115 4 q 61 94 61 58 q 91 165 61 136 q 163 194 121 194 q 235 165 207 194 q 263 92 263 136 q 228 -53 263 29 q 119 -237 194 -136 l 36 -181 z "},"„":{"ha":546,"x_min":36,"x_max":492,"o":"m 265 -181 q 341 -58 313 -114 q 375 7 369 -3 q 318 31 344 4 q 292 94 292 58 q 321 165 292 136 q 392 194 350 194 q 464 165 436 194 q 492 92 492 136 q 458 -53 492 29 q 349 -237 424 -136 l 265 -181 m 36 -181 q 112 -58 83 -114 q 146 7 140 -3 q 88 31 115 4 q 61 94 61 58 q 91 165 61 136 q 163 194 121 194 q 235 165 207 194 q 263 92 263 136 q 228 -53 263 29 q 119 -237 194 -136 l 36 -181 z "},"•":{"ha":464,"x_min":86,"x_max":378,"o":"m 232 239 q 128 281 171 239 q 86 385 86 324 q 128 488 86 447 q 232 529 169 529 q 335 488 293 529 q 378 385 378 446 q 335 281 378 322 q 232 239 293 239 z "},"_":{"ha":694,"x_min":0,"x_max":694,"o":"m 694 -133 l 0 -133 l 0 0 l 694 0 l 694 -133 z "},"–":{"ha":694,"x_min":0,"x_max":694,"o":"m 694 317 l 0 317 l 0 450 l 694 450 l 694 317 z "},"—":{"ha":1389,"x_min":0,"x_max":1389,"o":"m 1389 317 l 0 317 l 0 450 l 1389 450 l 1389 317 z "},"™":{"ha":1383,"x_min":44,"x_max":1339,"o":"m 658 972 l 774 972 l 999 565 l 1221 972 l 1338 972 l 1339 396 l 1222 396 l 1221 782 l 1026 411 l 969 411 l 774 775 l 774 396 l 658 396 l 658 972 m 249 872 l 44 872 l 44 972 l 581 972 l 581 872 l 375 872 l 375 396 l 249 396 l 249 872 z "},"®":{"ha":1122,"x_min":72,"x_max":1049,"o":"m 561 0 q 315 65 428 0 q 138 243 203 131 q 72 489 72 356 q 138 733 72 621 q 315 911 203 846 q 561 976 428 976 q 806 911 693 976 q 983 733 918 846 q 1049 489 1049 621 q 983 243 1049 356 q 806 65 918 131 q 561 0 693 0 m 561 79 q 767 134 672 79 q 916 283 861 189 q 971 489 971 376 q 916 694 971 600 q 767 842 861 788 q 561 897 672 897 q 355 842 449 897 q 206 694 261 788 q 151 489 151 600 q 206 283 151 376 q 355 134 261 189 q 561 79 449 79 m 703 210 l 642 353 q 561 407 619 407 l 424 407 l 424 476 l 550 476 q 665 453 621 476 q 731 381 708 431 l 801 210 l 703 210 m 369 765 l 594 765 q 688 740 644 765 q 756 674 731 715 q 781 582 781 632 q 728 465 781 508 q 594 422 675 422 l 467 422 l 467 210 l 369 210 l 369 765 m 596 496 q 658 522 632 496 q 683 585 683 547 q 658 649 683 622 q 596 676 632 676 l 467 676 l 467 496 l 596 496 z "},"©":{"ha":1122,"x_min":72,"x_max":1049,"o":"m 561 0 q 315 65 428 0 q 138 243 203 131 q 72 489 72 356 q 138 733 72 621 q 315 911 203 846 q 561 976 428 976 q 806 911 693 976 q 983 733 918 846 q 1049 489 1049 621 q 983 243 1049 356 q 806 65 918 131 q 561 0 693 0 m 561 79 q 767 134 672 79 q 916 283 861 189 q 971 489 971 376 q 916 694 971 600 q 767 842 861 788 q 561 897 672 897 q 355 842 449 897 q 206 694 261 788 q 151 489 151 600 q 206 283 151 376 q 355 134 261 189 q 561 79 449 79 m 558 207 q 423 245 485 207 q 324 348 361 283 q 288 489 288 413 q 324 630 288 565 q 423 733 361 694 q 558 771 485 771 q 721 715 649 771 q 817 569 793 658 l 718 554 q 658 641 700 608 q 563 674 615 674 q 481 649 518 674 q 421 581 443 624 q 399 489 399 539 q 421 397 399 439 q 481 329 443 354 q 563 304 518 304 q 658 337 615 304 q 718 424 700 369 l 817 408 q 721 263 793 319 q 558 207 649 207 z "},"¤":{"ha":971,"x_min":44,"x_max":928,"o":"m 44 92 l 190 238 q 118 444 118 329 q 136 551 118 500 q 188 646 154 603 l 44 790 l 136 883 l 279 740 q 485 806 372 806 q 693 740 600 806 l 835 883 l 928 790 l 785 647 q 854 444 854 556 q 835 334 854 388 q 782 238 817 281 l 928 92 l 835 -1 l 688 147 q 485 83 597 83 q 285 147 379 83 l 136 -1 l 44 92 m 485 213 q 606 244 550 213 q 694 328 661 275 q 726 444 726 382 q 694 562 726 508 q 606 647 661 615 q 485 678 550 678 q 366 646 421 678 q 279 560 311 614 q 247 444 247 507 q 279 328 247 381 q 366 244 311 275 q 485 213 421 213 z "},"¢":{"ha":861,"x_min":83,"x_max":788,"o":"m 443 -12 q 262 36 344 -12 q 131 168 179 85 q 83 349 83 251 q 131 528 83 446 q 262 660 179 611 q 443 708 344 708 q 602 672 529 708 q 724 571 675 635 q 788 428 772 507 l 658 410 q 581 522 639 478 q 451 567 524 567 q 342 538 392 567 q 264 458 293 508 q 235 349 235 408 q 264 238 235 289 q 342 158 293 188 q 451 129 392 129 q 581 174 524 129 q 658 288 639 218 l 788 268 q 724 125 772 189 q 602 24 675 61 q 443 -12 529 -12 m 389 8 l 500 8 l 500 -156 l 389 -156 l 389 8 m 389 854 l 500 854 l 500 690 l 389 690 l 389 854 z "},"£":{"ha":807,"x_min":69,"x_max":731,"o":"m 69 139 l 215 139 l 215 418 l 69 418 l 69 538 l 215 538 l 215 656 q 317 917 215 822 q 607 1011 419 1011 l 607 878 q 421 819 486 878 q 353 654 356 761 l 353 538 l 608 538 l 608 418 l 353 418 l 353 139 l 731 139 l 731 7 l 69 7 l 69 139 z "},"¥":{"ha":943,"x_min":49,"x_max":894,"o":"m 829 369 l 551 369 l 551 271 l 829 271 l 829 151 l 551 151 l 551 0 l 392 0 l 392 151 l 114 151 l 114 271 l 392 271 l 392 369 l 114 369 l 114 489 l 356 489 l 49 963 l 213 963 l 479 554 l 742 963 l 894 963 l 588 489 l 829 489 l 829 369 z "},"−":{"ha":801,"x_min":90,"x_max":711,"o":"m 711 418 l 90 418 l 90 551 l 711 551 l 711 418 z "},"±":{"ha":801,"x_min":90,"x_max":711,"o":"m 331 472 l 90 472 l 90 599 l 331 599 l 331 808 l 471 808 l 471 599 l 711 599 l 711 472 l 471 472 l 471 264 l 331 264 l 331 472 m 711 0 l 90 0 l 90 133 l 711 133 l 711 0 z "},"×":{"ha":747,"x_min":100,"x_max":647,"o":"m 100 307 l 279 486 l 100 665 l 194 760 l 374 581 l 553 760 l 647 665 l 468 486 l 647 307 l 553 213 l 374 392 l 194 213 l 100 307 z "},"÷":{"ha":819,"x_min":90,"x_max":729,"o":"m 90 551 l 729 551 l 729 418 l 90 418 l 90 551 m 410 107 q 340 137 369 107 q 311 207 311 167 q 340 278 311 249 q 410 307 368 307 q 482 277 454 307 q 510 207 510 247 q 480 135 510 164 q 410 107 450 107 m 410 665 q 341 696 371 665 q 311 767 311 726 q 340 836 311 807 q 410 865 368 865 q 482 836 454 865 q 510 767 510 807 q 480 694 510 724 q 410 665 450 665 z "},"¦":{"ha":411,"x_min":131,"x_max":281,"o":"m 281 544 l 131 544 l 131 1031 l 281 1031 l 281 544 m 281 -269 l 131 -269 l 131 217 l 281 217 l 281 -269 z "},"…":{"ha":985,"x_min":97,"x_max":888,"o":"m 196 -4 q 127 26 157 -4 q 97 96 97 56 q 126 167 97 138 q 196 196 154 196 q 268 166 240 196 q 296 96 296 136 q 266 24 296 53 q 196 -4 236 -4 m 492 -4 q 423 26 453 -4 q 393 96 393 57 q 422 167 393 138 q 492 196 450 196 q 564 166 536 196 q 592 96 592 136 q 562 24 592 53 q 492 -4 532 -4 m 788 -4 q 719 26 749 -4 q 689 96 689 57 q 717 167 689 138 q 788 196 746 196 q 860 166 832 196 q 888 96 888 136 q 858 24 888 53 q 788 -4 828 -4 z "},"·":{"ha":393,"x_min":97,"x_max":296,"o":"m 196 278 q 127 308 157 278 q 97 379 97 339 q 126 449 97 419 q 196 478 154 478 q 268 449 240 478 q 296 379 296 419 q 266 307 296 336 q 196 278 236 278 z "},"¡":{"ha":356,"x_min":89,"x_max":267,"o":"m 128 489 l 228 489 l 258 -208 l 97 -208 l 128 489 m 178 769 q 240 742 214 769 q 267 679 267 715 q 241 617 267 643 q 178 590 215 590 q 114 617 139 590 q 89 679 89 643 q 115 744 89 718 q 178 769 142 769 z "},"¿":{"ha":575,"x_min":49,"x_max":550,"o":"m 344 414 q 328 288 346 340 q 268 171 311 235 l 246 139 q 193 51 210 86 q 176 -28 176 17 q 217 -127 176 -86 q 315 -168 258 -168 q 394 -143 360 -168 q 444 -79 428 -118 l 457 -50 l 550 -85 q 463 -233 533 -174 q 299 -292 392 -292 q 172 -259 229 -292 q 81 -169 114 -226 q 49 -42 49 -111 q 72 74 49 24 q 153 197 96 124 q 221 305 197 256 q 244 414 244 354 l 344 414 m 296 694 q 358 667 332 694 q 385 604 385 640 q 359 542 385 568 q 296 515 333 515 q 232 542 257 515 q 207 604 207 568 q 233 669 207 643 q 296 694 260 694 z "},"°":{"ha":581,"x_min":56,"x_max":525,"o":"m 290 522 q 172 553 226 522 q 87 635 118 583 q 56 751 56 688 q 87 868 56 815 q 172 951 118 921 q 290 982 226 982 q 408 951 354 982 q 494 868 463 921 q 525 751 525 815 q 494 635 525 688 q 408 553 463 583 q 290 522 354 522 m 290 622 q 382 660 344 622 q 419 751 419 697 q 382 844 419 807 q 290 882 344 882 q 199 844 236 882 q 161 751 161 807 q 199 660 161 697 q 290 622 236 622 z "},"⁄":{"ha":374,"x_min":-208,"x_max":582,"o":"m 582 963 l -75 0 l -208 0 l 449 963 l 582 963 z "},"¶":{"ha":917,"x_min":38,"x_max":819,"o":"m 331 454 q 179 488 246 456 q 75 576 113 519 q 38 708 38 633 q 126 895 38 828 q 358 963 215 963 l 819 963 l 819 -139 l 669 -139 l 669 842 l 482 842 l 482 -139 l 331 -139 l 331 454 z "},"§":{"ha":799,"x_min":83,"x_max":715,"o":"m 713 421 q 674 308 711 354 q 583 242 638 261 q 689 71 689 183 q 604 -86 689 -31 q 383 -142 519 -142 q 215 -117 294 -142 q 83 -51 135 -92 l 133 60 q 256 3 188 24 q 383 -18 324 -18 q 533 83 533 -18 q 507 140 533 117 q 439 178 481 163 q 317 218 397 193 l 288 226 q 144 300 193 254 q 94 426 94 346 q 131 540 94 490 q 225 611 168 589 q 150 681 175 638 q 125 775 125 725 q 206 939 125 882 q 436 996 288 996 q 585 974 506 996 q 715 917 664 951 l 661 811 q 559 854 619 838 q 447 871 499 871 q 320 844 364 871 q 276 763 276 817 q 317 689 276 714 q 446 642 358 664 q 589 596 536 617 q 678 533 642 575 q 713 421 714 490 m 468 300 q 544 338 515 308 q 572 411 572 367 q 534 489 572 464 q 414 535 496 514 l 344 553 q 267 515 296 543 q 239 443 239 486 q 277 365 239 389 q 399 319 315 340 l 468 300 z "},"†":{"ha":818,"x_min":63,"x_max":756,"o":"m 63 669 l 333 669 l 333 993 l 483 993 l 483 669 l 756 669 l 756 536 l 483 536 l 483 -249 l 333 -249 l 333 536 l 63 536 l 63 669 z "},"‡":{"ha":818,"x_min":63,"x_max":756,"o":"m 756 211 l 756 78 l 483 78 l 483 -249 l 333 -249 l 333 78 l 63 78 l 63 211 l 333 211 l 333 538 l 63 538 l 63 671 l 333 671 l 333 993 l 483 993 l 483 671 l 756 671 l 756 538 l 483 538 l 483 211 l 756 211 z "},"~":{"ha":819,"x_min":74,"x_max":749,"o":"m 560 357 q 478 374 514 357 q 390 432 442 392 q 326 476 349 464 q 275 489 303 489 q 209 458 233 489 q 185 371 185 426 l 74 371 q 128 551 75 486 q 263 615 181 615 q 344 598 308 615 q 432 540 381 581 q 497 496 474 508 q 547 483 519 483 q 613 515 589 483 q 638 601 638 546 l 749 601 q 694 422 747 488 q 560 357 642 357 z "},"‹":{"ha":454,"x_min":57,"x_max":413,"o":"m 256 638 l 413 638 l 219 371 l 413 103 l 256 103 l 57 371 l 256 638 z "},"›":{"ha":454,"x_min":42,"x_max":397,"o":"m 235 371 l 42 638 l 199 638 l 397 371 l 199 103 l 42 103 l 235 371 z "},"ٚ":{"ha":0,"x_min":-200,"x_max":199,"o":"m -200 1242 q 0 1097 -6 1238 q 53 1203 1 1167 q 199 1242 104 1239 l 199 1132 q 84 1093 121 1126 q 47 972 47 1060 l -47 972 q -85 1093 -47 1060 q -200 1132 -122 1126 l -200 1242 z "},"ٛ":{"ha":0,"x_min":-200,"x_max":199,"o":"m -200 1082 q -85 1121 -122 1088 q -47 1242 -47 1154 l 47 1242 q 84 1121 47 1154 q 199 1082 121 1088 l 199 972 q 53 1010 104 974 q 0 1115 1 1046 q -200 972 -6 975 l -200 1082 z "},"Á":{"ha":928,"x_min":14,"x_max":915,"o":"m 378 963 l 538 963 l 174 0 l 14 0 l 378 963 m 393 963 l 551 963 l 915 0 l 756 0 l 393 963 m 251 358 l 686 358 l 686 218 l 251 218 l 251 358 m 578 1268 l 735 1268 l 529 1081 l 389 1081 l 578 1268 z "},"Ă":{"ha":928,"x_min":14,"x_max":915,"o":"m 378 963 l 538 963 l 174 0 l 14 0 l 378 963 m 393 963 l 551 963 l 915 0 l 756 0 l 393 963 m 251 358 l 686 358 l 686 218 l 251 218 l 251 358 m 460 1081 q 292 1135 358 1081 q 222 1278 225 1189 l 331 1278 q 369 1199 332 1229 q 460 1169 406 1169 q 551 1199 515 1169 q 589 1278 588 1229 l 697 1278 q 628 1135 694 1189 q 460 1081 561 1081 z "},"Â":{"ha":928,"x_min":14,"x_max":915,"o":"m 378 963 l 538 963 l 174 0 l 14 0 l 378 963 m 393 963 l 551 963 l 915 0 l 756 0 l 393 963 m 251 358 l 686 358 l 686 218 l 251 218 l 251 358 m 467 1199 l 331 1081 l 214 1081 l 388 1268 l 544 1268 l 718 1081 l 601 1081 l 467 1199 z "},"Ä":{"ha":928,"x_min":14,"x_max":915,"o":"m 378 963 l 538 963 l 174 0 l 14 0 l 378 963 m 393 963 l 551 963 l 915 0 l 756 0 l 393 963 m 251 358 l 686 358 l 686 218 l 251 218 l 251 358 m 368 1081 q 308 1105 333 1081 q 283 1164 283 1129 q 308 1223 283 1199 q 368 1247 333 1247 q 427 1223 403 1247 q 451 1164 451 1199 q 427 1105 451 1129 q 368 1081 403 1081 m 569 1081 q 510 1105 535 1081 q 486 1164 486 1129 q 510 1223 486 1199 q 569 1247 535 1247 q 628 1223 604 1247 q 653 1164 653 1199 q 628 1105 653 1129 q 569 1081 604 1081 z "},"À":{"ha":928,"x_min":14,"x_max":915,"o":"m 378 963 l 538 963 l 174 0 l 14 0 l 378 963 m 393 963 l 551 963 l 915 0 l 756 0 l 393 963 m 251 358 l 686 358 l 686 218 l 251 218 l 251 358 m 190 1268 l 347 1268 l 536 1081 l 397 1081 l 190 1268 z "},"Ā":{"ha":928,"x_min":14,"x_max":915,"o":"m 378 963 l 538 963 l 174 0 l 14 0 l 378 963 m 393 963 l 551 963 l 915 0 l 756 0 l 393 963 m 251 358 l 686 358 l 686 218 l 251 218 l 251 358 m 660 1081 l 260 1081 l 260 1178 l 660 1178 l 660 1081 z "},"Ą":{"ha":928,"x_min":14,"x_max":915,"o":"m 378 963 l 538 963 l 174 0 l 14 0 l 378 963 m 393 963 l 551 963 l 915 0 l 756 0 l 393 963 m 251 358 l 686 358 l 686 218 l 251 218 l 251 358 m 813 -315 q 685 -276 732 -315 q 639 -171 639 -237 q 693 -48 639 -103 q 850 46 747 7 l 913 0 q 787 -76 828 -37 q 746 -157 746 -114 q 768 -210 746 -190 q 832 -229 790 -229 l 914 -229 l 914 -315 l 813 -315 z "},"Å":{"ha":928,"x_min":14,"x_max":915,"o":"m 378 963 l 538 963 l 174 0 l 14 0 l 378 963 m 393 963 l 551 963 l 915 0 l 756 0 l 393 963 m 251 358 l 686 358 l 686 218 l 251 218 l 251 358 m 467 1081 q 351 1126 399 1081 q 304 1236 304 1171 q 351 1348 304 1301 q 467 1394 399 1394 q 581 1348 535 1394 q 628 1236 628 1301 q 581 1126 628 1171 q 467 1081 535 1081 m 467 1150 q 529 1174 504 1150 q 554 1236 554 1199 q 528 1299 554 1274 q 467 1325 503 1325 q 404 1300 429 1325 q 379 1236 379 1275 q 403 1174 379 1199 q 467 1150 428 1150 z "},"Ã":{"ha":928,"x_min":14,"x_max":915,"o":"m 378 963 l 538 963 l 174 0 l 14 0 l 378 963 m 393 963 l 551 963 l 915 0 l 756 0 l 393 963 m 251 358 l 686 358 l 686 218 l 251 218 l 251 358 m 574 1081 q 516 1093 542 1081 q 456 1133 490 1106 q 415 1161 431 1153 q 383 1169 399 1169 q 336 1148 354 1169 q 315 1089 318 1126 l 226 1089 q 268 1221 229 1172 q 374 1269 307 1269 q 432 1257 406 1269 q 493 1217 458 1244 q 533 1189 517 1197 q 564 1181 549 1181 q 613 1201 594 1181 q 633 1257 631 1221 l 721 1257 q 679 1128 718 1176 q 574 1081 640 1081 z "},"Æ":{"ha":1301,"x_min":11,"x_max":1244,"o":"m 375 963 l 535 963 l 171 0 l 11 0 l 375 963 m 413 824 l 413 963 l 776 963 l 776 824 l 413 824 m 250 358 l 628 358 l 628 218 l 250 218 l 250 358 m 613 963 l 1244 963 l 1244 824 l 764 824 l 764 546 l 1196 546 l 1196 417 l 764 417 l 764 139 l 1244 139 l 1244 0 l 613 0 l 613 963 z "},"Ć":{"ha":1071,"x_min":75,"x_max":1007,"o":"m 550 -19 q 312 48 421 -19 q 139 231 203 115 q 75 482 75 346 q 139 734 75 618 q 312 917 203 850 q 550 985 421 985 q 751 938 657 985 q 913 807 846 890 q 1006 618 979 724 l 876 600 q 755 774 842 707 q 560 842 668 842 q 393 793 469 842 q 272 662 317 744 q 226 482 226 579 q 272 302 226 385 q 393 171 317 219 q 560 122 469 122 q 755 190 668 122 q 876 364 842 257 l 1007 347 q 913 158 979 242 q 751 28 846 75 q 550 -19 657 -19 m 657 1278 l 814 1278 l 608 1090 l 468 1090 l 657 1278 z "},"Č":{"ha":1071,"x_min":75,"x_max":1007,"o":"m 550 -19 q 312 48 421 -19 q 139 231 203 115 q 75 482 75 346 q 139 734 75 618 q 312 917 203 850 q 550 985 421 985 q 751 938 657 985 q 913 807 846 890 q 1006 618 979 724 l 876 600 q 755 774 842 707 q 560 842 668 842 q 393 793 469 842 q 272 662 317 744 q 226 482 226 579 q 272 302 226 385 q 393 171 317 219 q 560 122 469 122 q 755 190 668 122 q 876 364 842 257 l 1007 347 q 913 158 979 242 q 751 28 846 75 q 550 -19 657 -19 m 625 1092 l 468 1092 l 294 1279 l 411 1279 l 547 1161 l 682 1279 l 799 1279 l 625 1092 z "},"Ç":{"ha":1071,"x_min":75,"x_max":1007,"o":"m 550 -19 q 312 48 421 -19 q 139 231 203 115 q 75 482 75 346 q 139 734 75 618 q 312 917 203 850 q 550 985 421 985 q 751 938 657 985 q 913 807 846 890 q 1006 618 979 724 l 876 600 q 755 774 842 707 q 560 842 668 842 q 393 793 469 842 q 272 662 317 744 q 226 482 226 579 q 272 302 226 385 q 393 171 317 219 q 560 122 469 122 q 755 190 668 122 q 876 364 842 257 l 1007 347 q 913 158 979 242 q 751 28 846 75 q 550 -19 657 -19 m 401 -335 l 421 -254 l 517 -256 q 569 -241 551 -256 q 586 -199 586 -226 q 569 -158 586 -174 q 522 -143 551 -143 l 465 -143 l 500 -7 l 596 -7 l 575 -93 q 661 -128 631 -99 q 692 -203 692 -158 q 642 -299 692 -262 q 508 -335 592 -335 l 401 -335 z "},"Ċ":{"ha":1071,"x_min":75,"x_max":1007,"o":"m 550 -19 q 312 48 421 -19 q 139 231 203 115 q 75 482 75 346 q 139 734 75 618 q 312 917 203 850 q 550 985 421 985 q 751 938 657 985 q 913 807 846 890 q 1006 618 979 724 l 876 600 q 755 774 842 707 q 560 842 668 842 q 393 793 469 842 q 272 662 317 744 q 226 482 226 579 q 272 302 226 385 q 393 171 317 219 q 560 122 469 122 q 755 190 668 122 q 876 364 842 257 l 1007 347 q 913 158 979 242 q 751 28 846 75 q 550 -19 657 -19 m 551 1094 q 492 1119 517 1094 q 467 1178 467 1143 q 492 1237 467 1213 q 551 1261 517 1261 q 610 1237 586 1261 q 635 1178 635 1213 q 610 1119 635 1143 q 551 1094 586 1094 z "},"Ð":{"ha":1017,"x_min":21,"x_max":943,"o":"m 154 963 l 461 963 q 702 898 592 963 q 878 723 813 833 q 943 482 943 613 q 878 241 943 351 q 702 65 813 131 q 461 0 592 0 l 154 0 l 154 963 m 446 136 q 619 183 540 136 q 745 308 699 229 q 792 482 792 388 q 745 656 792 576 q 619 781 699 735 q 446 826 540 826 l 306 826 l 306 136 l 446 136 m 21 546 l 453 546 l 453 417 l 21 417 l 21 546 z "},"Ď":{"ha":956,"x_min":92,"x_max":881,"o":"m 92 963 l 400 963 q 641 898 531 963 q 816 723 751 833 q 881 482 881 613 q 816 241 881 351 q 641 65 751 131 q 400 0 531 0 l 92 0 l 92 963 m 385 136 q 558 183 479 136 q 683 308 638 229 q 729 482 729 388 q 683 656 729 576 q 558 781 638 735 q 385 826 479 826 l 243 826 l 243 136 l 385 136 m 450 1081 l 293 1081 l 119 1268 l 236 1268 l 372 1150 l 507 1268 l 624 1268 l 450 1081 z "},"Đ":{"ha":1017,"x_min":21,"x_max":943,"o":"m 154 963 l 461 963 q 702 898 592 963 q 878 723 813 833 q 943 482 943 613 q 878 241 943 351 q 702 65 813 131 q 461 0 592 0 l 154 0 l 154 963 m 446 136 q 619 183 540 136 q 745 308 699 229 q 792 482 792 388 q 745 656 792 576 q 619 781 699 735 q 446 826 540 826 l 306 826 l 306 136 l 446 136 m 21 546 l 453 546 l 453 417 l 21 417 l 21 546 z "},"É":{"ha":781,"x_min":92,"x_max":724,"o":"m 92 963 l 724 963 l 724 824 l 243 824 l 243 546 l 675 546 l 675 417 l 243 417 l 243 139 l 724 139 l 724 0 l 92 0 l 92 963 m 507 1268 l 664 1268 l 458 1081 l 318 1081 l 507 1268 z "},"Ě":{"ha":781,"x_min":92,"x_max":724,"o":"m 92 963 l 724 963 l 724 824 l 243 824 l 243 546 l 675 546 l 675 417 l 243 417 l 243 139 l 724 139 l 724 0 l 92 0 l 92 963 m 501 1081 l 344 1081 l 171 1268 l 288 1268 l 424 1150 l 558 1268 l 675 1268 l 501 1081 z "},"Ê":{"ha":781,"x_min":92,"x_max":724,"o":"m 92 963 l 724 963 l 724 824 l 243 824 l 243 546 l 675 546 l 675 417 l 243 417 l 243 139 l 724 139 l 724 0 l 92 0 l 92 963 m 419 1199 l 283 1081 l 167 1081 l 340 1268 l 497 1268 l 671 1081 l 554 1081 l 419 1199 z "},"Ë":{"ha":781,"x_min":92,"x_max":724,"o":"m 92 963 l 724 963 l 724 824 l 243 824 l 243 546 l 675 546 l 675 417 l 243 417 l 243 139 l 724 139 l 724 0 l 92 0 l 92 963 m 332 1081 q 272 1105 297 1081 q 247 1164 247 1129 q 272 1223 247 1199 q 332 1247 297 1247 q 391 1223 367 1247 q 415 1164 415 1199 q 391 1105 415 1129 q 332 1081 367 1081 m 533 1081 q 474 1105 499 1081 q 450 1164 450 1129 q 474 1223 450 1199 q 533 1247 499 1247 q 592 1223 568 1247 q 617 1164 617 1199 q 592 1105 617 1129 q 533 1081 568 1081 z "},"Ė":{"ha":781,"x_min":92,"x_max":724,"o":"m 92 963 l 724 963 l 724 824 l 243 824 l 243 546 l 675 546 l 675 417 l 243 417 l 243 139 l 724 139 l 724 0 l 92 0 l 92 963 m 419 1081 q 360 1105 385 1081 q 335 1164 335 1129 q 360 1223 335 1199 q 419 1247 385 1247 q 478 1223 454 1247 q 503 1164 503 1199 q 478 1105 503 1129 q 419 1081 454 1081 z "},"È":{"ha":781,"x_min":92,"x_max":724,"o":"m 92 963 l 724 963 l 724 824 l 243 824 l 243 546 l 675 546 l 675 417 l 243 417 l 243 139 l 724 139 l 724 0 l 92 0 l 92 963 m 229 1275 l 386 1275 l 575 1088 l 436 1088 l 229 1275 z "},"Ē":{"ha":781,"x_min":92,"x_max":724,"o":"m 92 963 l 724 963 l 724 824 l 243 824 l 243 546 l 675 546 l 675 417 l 243 417 l 243 139 l 724 139 l 724 0 l 92 0 l 92 963 m 618 1081 l 218 1081 l 218 1178 l 618 1178 l 618 1081 z "},"Ę":{"ha":781,"x_min":92,"x_max":725,"o":"m 92 963 l 724 963 l 724 824 l 243 824 l 243 546 l 675 546 l 675 417 l 243 417 l 243 139 l 724 139 l 724 0 l 92 0 l 92 963 m 622 -315 q 495 -276 542 -315 q 449 -171 449 -237 q 503 -48 449 -103 q 661 46 557 7 l 724 0 q 597 -75 639 -36 q 556 -157 556 -114 q 578 -210 556 -190 q 642 -229 600 -229 l 725 -229 l 725 -315 l 622 -315 z "},"Ğ":{"ha":1079,"x_min":64,"x_max":1015,"o":"m 539 -19 q 301 48 411 -19 q 128 231 192 115 q 64 482 64 346 q 128 734 64 618 q 301 917 192 850 q 539 985 410 985 q 803 899 685 985 q 976 676 922 814 l 853 633 q 731 785 813 728 q 549 842 649 842 q 382 793 458 842 q 260 662 306 744 q 215 482 215 579 q 260 302 215 385 q 382 171 306 219 q 549 122 458 122 q 705 164 632 122 q 824 278 778 206 q 878 438 869 350 l 1015 482 q 951 231 1015 346 q 778 48 888 115 q 539 -19 668 -19 m 501 526 l 1015 526 l 1015 482 l 994 404 l 501 404 l 501 526 m 526 1090 q 358 1144 425 1090 q 289 1288 292 1199 l 397 1288 q 435 1209 399 1239 q 526 1179 472 1179 q 618 1209 582 1179 q 656 1288 654 1239 l 764 1288 q 694 1144 761 1199 q 526 1090 628 1090 z "},"Ģ":{"ha":1079,"x_min":64,"x_max":1015,"o":"m 539 -19 q 301 48 411 -19 q 128 231 192 115 q 64 482 64 346 q 128 734 64 618 q 301 917 192 850 q 539 985 410 985 q 803 899 685 985 q 976 676 922 814 l 853 633 q 731 785 813 728 q 549 842 649 842 q 382 793 458 842 q 260 662 306 744 q 215 482 215 579 q 260 302 215 385 q 382 171 306 219 q 549 122 458 122 q 705 164 632 122 q 824 278 778 206 q 878 438 869 350 l 1015 482 q 951 231 1015 346 q 778 48 888 115 q 539 -19 668 -19 m 501 526 l 1015 526 l 1015 482 l 994 404 l 501 404 l 501 526 m 414 -503 q 490 -380 461 -436 q 524 -314 518 -324 q 467 -290 494 -317 q 440 -228 440 -264 q 469 -156 440 -186 q 542 -126 499 -126 q 613 -156 585 -126 q 640 -229 640 -186 q 499 -558 640 -364 l 414 -503 z "},"Ġ":{"ha":1079,"x_min":64,"x_max":1015,"o":"m 539 -19 q 301 48 411 -19 q 128 231 192 115 q 64 482 64 346 q 128 734 64 618 q 301 917 192 850 q 539 985 410 985 q 803 899 685 985 q 976 676 922 814 l 853 633 q 731 785 813 728 q 549 842 649 842 q 382 793 458 842 q 260 662 306 744 q 215 482 215 579 q 260 302 215 385 q 382 171 306 219 q 549 122 458 122 q 705 164 632 122 q 824 278 778 206 q 878 438 869 350 l 1015 482 q 951 231 1015 346 q 778 48 888 115 q 539 -19 668 -19 m 501 526 l 1015 526 l 1015 482 l 994 404 l 501 404 l 501 526 m 538 1089 q 478 1113 503 1089 q 453 1172 453 1138 q 478 1231 453 1207 q 538 1256 503 1256 q 597 1231 572 1256 q 621 1172 621 1207 q 597 1113 621 1138 q 538 1089 572 1089 z "},"Ħ":{"ha":981,"x_min":56,"x_max":925,"o":"m 106 963 l 257 963 l 257 546 l 724 546 l 724 963 l 875 963 l 875 0 l 724 0 l 724 417 l 257 417 l 257 0 l 106 0 l 106 963 m 56 832 l 925 832 l 925 703 l 56 703 l 56 832 z "},"Í":{"ha":333,"x_min":92,"x_max":439,"o":"m 92 0 l 92 963 l 243 963 l 243 0 l 92 0 m 282 1268 l 439 1268 l 233 1081 l 93 1081 l 282 1268 z "},"Î":{"ha":333,"x_min":-85,"x_max":419,"o":"m 92 0 l 92 963 l 243 963 l 243 0 l 92 0 m 168 1199 l 32 1081 l -85 1081 l 89 1268 l 246 1268 l 419 1081 l 303 1081 l 168 1199 z "},"Ï":{"ha":333,"x_min":-25,"x_max":344,"o":"m 92 0 l 92 963 l 243 963 l 243 0 l 92 0 m 60 1081 q 0 1105 25 1081 q -25 1164 -25 1129 q 0 1223 -25 1199 q 60 1247 25 1247 q 119 1223 94 1247 q 143 1164 143 1199 q 119 1105 143 1129 q 60 1081 94 1081 m 261 1081 q 202 1105 226 1081 q 178 1164 178 1129 q 202 1223 178 1199 q 261 1247 226 1247 q 320 1223 296 1247 q 344 1164 344 1199 q 320 1105 344 1129 q 261 1081 296 1081 z "},"İ":{"ha":333,"x_min":86,"x_max":254,"o":"m 92 0 l 92 963 l 243 963 l 243 0 l 92 0 m 171 1081 q 111 1105 136 1081 q 86 1164 86 1129 q 111 1223 86 1199 q 171 1247 136 1247 q 230 1223 206 1247 q 254 1164 254 1199 q 230 1105 254 1129 q 171 1081 206 1081 z "},"Ì":{"ha":333,"x_min":-104,"x_max":243,"o":"m 92 0 l 92 963 l 243 963 l 243 0 l 92 0 m -104 1268 l 53 1268 l 242 1081 l 103 1081 l -104 1268 z "},"Ī":{"ha":333,"x_min":-33,"x_max":367,"o":"m 92 0 l 92 963 l 243 963 l 243 0 l 92 0 m 367 1081 l -33 1081 l -33 1178 l 367 1178 l 367 1081 z "},"Į":{"ha":333,"x_min":-31,"x_max":244,"o":"m 92 0 l 92 963 l 243 963 l 243 0 l 92 0 m 143 -315 q 16 -276 63 -315 q -31 -171 -31 -237 q 24 -48 -31 -103 q 181 46 78 7 l 243 0 q 117 -76 158 -37 q 76 -157 76 -114 q 99 -210 76 -190 q 163 -229 121 -229 l 244 -229 l 244 -315 l 143 -315 z "},"Ķ":{"ha":879,"x_min":92,"x_max":858,"o":"m 846 963 l 236 317 l 229 536 l 650 963 l 846 963 m 243 963 l 243 0 l 92 0 l 92 963 l 243 963 m 438 561 l 858 0 l 681 0 l 294 513 l 438 561 m 301 -494 q 377 -372 349 -428 q 411 -306 406 -315 q 355 -282 382 -308 q 328 -219 328 -256 q 357 -148 328 -178 q 429 -118 386 -118 q 500 -148 472 -118 q 528 -221 528 -178 q 386 -550 528 -356 l 301 -494 z "},"Ĺ":{"ha":675,"x_min":92,"x_max":647,"o":"m 647 0 l 92 0 l 92 963 l 243 963 l 243 139 l 647 139 l 647 0 m 282 1268 l 439 1268 l 233 1081 l 93 1081 l 282 1268 z "},"Ľ":{"ha":675,"x_min":-93,"x_max":647,"o":"m 647 0 l 92 0 l 92 963 l 243 963 l 243 139 l 647 139 l 647 0 m 238 1081 l 81 1081 l -93 1268 l 24 1268 l 160 1150 l 294 1268 l 411 1268 l 238 1081 z "},"Ļ":{"ha":675,"x_min":92,"x_max":647,"o":"m 647 0 l 92 0 l 92 963 l 243 963 l 243 139 l 647 139 l 647 0 m 221 -494 q 297 -372 268 -428 q 331 -306 325 -315 q 274 -282 301 -308 q 247 -219 247 -256 q 276 -148 247 -178 q 349 -118 306 -118 q 419 -148 392 -118 q 447 -221 447 -178 q 306 -550 447 -356 l 221 -494 z "},"Ł":{"ha":750,"x_min":49,"x_max":722,"o":"m 49 446 l 483 696 l 547 582 l 113 332 l 49 446 m 722 0 l 168 0 l 168 963 l 319 963 l 319 139 l 722 139 l 722 0 z "},"Ń":{"ha":985,"x_min":92,"x_max":893,"o":"m 674 0 l 236 743 l 236 0 l 92 0 l 92 963 l 285 963 l 749 161 l 749 963 l 893 963 l 893 0 l 674 0 m 592 1268 l 749 1268 l 543 1081 l 403 1081 l 592 1268 z "},"Ň":{"ha":985,"x_min":92,"x_max":893,"o":"m 674 0 l 236 743 l 236 0 l 92 0 l 92 963 l 285 963 l 749 161 l 749 963 l 893 963 l 893 0 l 674 0 m 565 1081 l 408 1081 l 235 1268 l 351 1268 l 488 1150 l 622 1268 l 739 1268 l 565 1081 z "},"Ņ":{"ha":985,"x_min":92,"x_max":893,"o":"m 674 0 l 236 743 l 236 0 l 92 0 l 92 963 l 285 963 l 749 161 l 749 963 l 893 963 l 893 0 l 674 0 m 372 -494 q 448 -372 419 -428 q 482 -306 476 -315 q 426 -282 453 -308 q 399 -219 399 -256 q 428 -148 399 -178 q 500 -118 457 -118 q 571 -148 543 -118 q 599 -221 599 -178 q 457 -550 599 -356 l 372 -494 z "},"Ñ":{"ha":985,"x_min":92,"x_max":893,"o":"m 674 0 l 236 743 l 236 0 l 92 0 l 92 963 l 285 963 l 749 161 l 749 963 l 893 963 l 893 0 l 674 0 m 599 1081 q 541 1093 567 1081 q 481 1133 515 1106 q 440 1161 456 1153 q 408 1169 424 1169 q 361 1148 379 1169 q 340 1089 343 1126 l 251 1089 q 293 1221 254 1172 q 399 1269 332 1269 q 457 1257 431 1269 q 518 1217 483 1244 q 558 1189 542 1197 q 589 1181 574 1181 q 638 1201 619 1181 q 658 1257 656 1221 l 746 1257 q 704 1128 743 1176 q 599 1081 665 1081 z "},"Ŋ":{"ha":986,"x_min":92,"x_max":893,"o":"m 674 0 l 236 743 l 236 0 l 92 0 l 92 963 l 285 963 l 749 161 l 749 963 l 893 963 l 893 0 l 674 0 m 571 -132 l 651 -132 q 720 -103 692 -132 q 749 -33 749 -75 l 749 696 l 893 696 l 893 -33 q 860 -156 893 -100 q 772 -243 828 -211 q 651 -275 717 -275 l 571 -275 l 571 -132 z "},"Ó":{"ha":1129,"x_min":75,"x_max":1054,"o":"m 565 -19 q 319 48 432 -19 q 141 231 207 115 q 75 483 75 347 q 141 735 75 619 q 319 917 207 850 q 565 985 432 985 q 810 917 697 985 q 988 735 922 850 q 1054 483 1054 619 q 988 231 1054 347 q 810 48 922 115 q 565 -19 697 -19 m 565 122 q 734 171 657 122 q 857 302 811 219 q 903 483 903 385 q 857 663 903 581 q 733 793 811 744 q 565 842 656 842 q 394 793 472 842 q 271 663 317 744 q 225 483 225 581 q 271 302 225 385 q 394 171 317 219 q 565 122 472 122 m 668 1278 l 825 1278 l 619 1090 l 479 1090 l 668 1278 z "},"Ô":{"ha":1129,"x_min":75,"x_max":1054,"o":"m 565 -19 q 319 48 432 -19 q 141 231 207 115 q 75 483 75 347 q 141 735 75 619 q 319 917 207 850 q 565 985 432 985 q 810 917 697 985 q 988 735 922 850 q 1054 483 1054 619 q 988 231 1054 347 q 810 48 922 115 q 565 -19 697 -19 m 565 122 q 734 171 657 122 q 857 302 811 219 q 903 483 903 385 q 857 663 903 581 q 733 793 811 744 q 565 842 656 842 q 394 793 472 842 q 271 663 317 744 q 225 483 225 581 q 271 302 225 385 q 394 171 317 219 q 565 122 472 122 m 560 1210 l 424 1092 l 307 1092 l 481 1279 l 638 1279 l 811 1092 l 694 1092 l 560 1210 z "},"Ö":{"ha":1129,"x_min":75,"x_max":1054,"o":"m 565 -19 q 319 48 432 -19 q 141 231 207 115 q 75 483 75 347 q 141 735 75 619 q 319 917 207 850 q 565 985 432 985 q 810 917 697 985 q 988 735 922 850 q 1054 483 1054 619 q 988 231 1054 347 q 810 48 922 115 q 565 -19 697 -19 m 565 122 q 734 171 657 122 q 857 302 811 219 q 903 483 903 385 q 857 663 903 581 q 733 793 811 744 q 565 842 656 842 q 394 793 472 842 q 271 663 317 744 q 225 483 225 581 q 271 302 225 385 q 394 171 317 219 q 565 122 472 122 m 467 1089 q 407 1113 432 1089 q 382 1172 382 1138 q 407 1231 382 1207 q 467 1256 432 1256 q 526 1231 501 1256 q 550 1172 550 1207 q 526 1113 550 1138 q 467 1089 501 1089 m 668 1089 q 609 1113 633 1089 q 585 1172 585 1138 q 609 1231 585 1207 q 668 1256 633 1256 q 727 1231 703 1256 q 751 1172 751 1207 q 727 1113 751 1138 q 668 1089 703 1089 z "},"Ò":{"ha":1129,"x_min":75,"x_max":1054,"o":"m 565 -19 q 319 48 432 -19 q 141 231 207 115 q 75 483 75 347 q 141 735 75 619 q 319 917 207 850 q 565 985 432 985 q 810 917 697 985 q 988 735 922 850 q 1054 483 1054 619 q 988 231 1054 347 q 810 48 922 115 q 565 -19 697 -19 m 565 122 q 734 171 657 122 q 857 302 811 219 q 903 483 903 385 q 857 663 903 581 q 733 793 811 744 q 565 842 656 842 q 394 793 472 842 q 271 663 317 744 q 225 483 225 581 q 271 302 225 385 q 394 171 317 219 q 565 122 472 122 m 281 1278 l 438 1278 l 626 1090 l 488 1090 l 281 1278 z "},"Ő":{"ha":1129,"x_min":75,"x_max":1054,"o":"m 565 -19 q 319 48 432 -19 q 141 231 207 115 q 75 483 75 347 q 141 735 75 619 q 319 917 207 850 q 565 985 432 985 q 810 917 697 985 q 988 735 922 850 q 1054 483 1054 619 q 988 231 1054 347 q 810 48 922 115 q 565 -19 697 -19 m 565 122 q 734 171 657 122 q 857 302 811 219 q 903 483 903 385 q 857 663 903 581 q 733 793 811 744 q 565 842 656 842 q 394 793 472 842 q 271 663 317 744 q 225 483 225 581 q 271 302 225 385 q 394 171 317 219 q 565 122 472 122 m 751 1275 l 903 1275 l 719 1088 l 582 1088 l 751 1275 m 499 1275 l 651 1275 l 467 1088 l 329 1088 l 499 1275 z "},"Ō":{"ha":1129,"x_min":75,"x_max":1054,"o":"m 565 -19 q 319 48 432 -19 q 141 231 207 115 q 75 483 75 347 q 141 735 75 619 q 319 917 207 850 q 565 985 432 985 q 810 917 697 985 q 988 735 922 850 q 1054 483 1054 619 q 988 231 1054 347 q 810 48 922 115 q 565 -19 697 -19 m 565 122 q 734 171 657 122 q 857 302 811 219 q 903 483 903 385 q 857 663 903 581 q 733 793 811 744 q 565 842 656 842 q 394 793 472 842 q 271 663 317 744 q 225 483 225 581 q 271 302 225 385 q 394 171 317 219 q 565 122 472 122 m 763 1092 l 363 1092 l 363 1189 l 763 1189 l 763 1092 z "},"Ø":{"ha":1129,"x_min":75,"x_max":1054,"o":"m 565 -19 q 319 48 432 -19 q 141 231 207 115 q 75 483 75 347 q 141 735 75 619 q 319 917 207 850 q 565 985 432 985 q 810 917 697 985 q 988 735 922 850 q 1054 483 1054 619 q 988 231 1054 347 q 810 48 922 115 q 565 -19 697 -19 m 565 122 q 735 171 657 122 q 858 302 813 219 q 903 483 903 385 q 858 663 903 581 q 735 793 813 744 q 565 842 657 842 q 395 793 474 842 q 271 663 317 744 q 225 483 225 581 q 271 302 225 385 q 395 171 317 219 q 565 122 474 122 m 447 -68 l 296 -68 l 682 1033 l 833 1033 l 447 -68 z "},"Õ":{"ha":1129,"x_min":75,"x_max":1054,"o":"m 565 -19 q 319 48 432 -19 q 141 231 207 115 q 75 483 75 347 q 141 735 75 619 q 319 917 207 850 q 565 985 432 985 q 810 917 697 985 q 988 735 922 850 q 1054 483 1054 619 q 988 231 1054 347 q 810 48 922 115 q 565 -19 697 -19 m 565 122 q 734 171 657 122 q 857 302 811 219 q 903 483 903 385 q 857 663 903 581 q 733 793 811 744 q 565 842 656 842 q 394 793 472 842 q 271 663 317 744 q 225 483 225 581 q 271 302 225 385 q 394 171 317 219 q 565 122 472 122 m 660 1090 q 602 1103 628 1090 q 542 1143 576 1115 q 501 1171 517 1163 q 469 1179 485 1179 q 422 1158 440 1179 q 401 1099 404 1136 l 313 1099 q 354 1231 315 1182 q 460 1279 393 1279 q 518 1267 492 1279 q 579 1226 544 1254 q 619 1199 603 1207 q 650 1190 635 1190 q 699 1210 681 1190 q 719 1267 717 1231 l 807 1267 q 765 1138 804 1186 q 660 1090 726 1090 z "},"Œ":{"ha":1592,"x_min":75,"x_max":1536,"o":"m 565 -19 q 319 48 432 -19 q 141 231 207 115 q 75 483 75 347 q 141 735 75 619 q 319 917 207 850 q 565 985 432 985 q 810 917 697 985 q 988 735 922 850 q 1054 483 1054 619 q 988 231 1054 347 q 810 48 922 115 q 565 -19 697 -19 m 565 122 q 734 171 657 122 q 857 302 811 219 q 903 483 903 385 q 857 663 903 581 q 733 793 811 744 q 565 842 656 842 q 394 793 472 842 q 271 663 317 744 q 225 483 225 581 q 271 302 225 385 q 394 171 317 219 q 565 122 472 122 m 904 963 l 1535 963 l 1536 824 l 1054 824 l 1054 546 l 1486 546 l 1486 417 l 1054 417 l 1054 139 l 1535 139 l 1535 0 l 904 0 l 904 963 z "},"Þ":{"ha":810,"x_min":92,"x_max":771,"o":"m 92 815 l 454 815 q 613 773 540 815 q 728 658 686 731 q 771 499 771 585 q 728 339 771 413 q 613 223 686 265 q 454 181 540 181 l 243 181 l 243 0 l 92 0 l 92 815 m 444 319 q 532 344 492 319 q 596 409 572 368 q 619 499 619 450 q 596 587 619 546 q 532 652 572 628 q 444 676 492 676 l 243 676 l 243 319 l 444 319 m 92 963 l 243 963 l 243 628 l 92 628 l 92 963 z "},"Ŕ":{"ha":863,"x_min":92,"x_max":831,"o":"m 92 963 l 454 963 q 613 920 540 963 q 728 806 686 878 q 771 647 771 733 q 728 494 771 561 q 614 389 686 426 q 454 351 542 351 l 243 351 l 243 0 l 92 0 l 92 963 m 578 240 q 518 322 556 294 q 417 349 481 349 l 207 349 l 207 425 l 411 425 q 555 415 501 425 q 649 372 608 406 q 718 271 689 339 l 831 0 l 681 0 l 578 240 m 444 469 q 531 494 490 469 q 595 559 571 518 q 619 647 619 600 q 595 735 619 694 q 531 799 571 775 q 444 824 490 824 l 243 824 l 243 469 l 444 469 m 485 1268 l 642 1268 l 436 1081 l 296 1081 l 485 1268 z "},"Ř":{"ha":863,"x_min":92,"x_max":831,"o":"m 92 963 l 454 963 q 613 920 540 963 q 728 806 686 878 q 771 647 771 733 q 728 494 771 561 q 614 389 686 426 q 454 351 542 351 l 243 351 l 243 0 l 92 0 l 92 963 m 578 240 q 518 322 556 294 q 417 349 481 349 l 207 349 l 207 425 l 411 425 q 555 415 501 425 q 649 372 608 406 q 718 271 689 339 l 831 0 l 681 0 l 578 240 m 444 469 q 531 494 490 469 q 595 559 571 518 q 619 647 619 600 q 595 735 619 694 q 531 799 571 775 q 444 824 490 824 l 243 824 l 243 469 l 444 469 m 464 1081 l 307 1081 l 133 1268 l 250 1268 l 386 1150 l 521 1268 l 638 1268 l 464 1081 z "},"Ŗ":{"ha":863,"x_min":92,"x_max":831,"o":"m 92 963 l 454 963 q 613 920 540 963 q 728 806 686 878 q 771 647 771 733 q 728 494 771 561 q 614 389 686 426 q 454 351 542 351 l 243 351 l 243 0 l 92 0 l 92 963 m 578 240 q 518 322 556 294 q 417 349 481 349 l 207 349 l 207 425 l 411 425 q 555 415 501 425 q 649 372 608 406 q 718 271 689 339 l 831 0 l 681 0 l 578 240 m 444 469 q 531 494 490 469 q 595 559 571 518 q 619 647 619 600 q 595 735 619 694 q 531 799 571 775 q 444 824 490 824 l 243 824 l 243 469 l 444 469 m 317 -494 q 392 -372 364 -428 q 426 -306 421 -315 q 370 -282 397 -308 q 343 -219 343 -256 q 372 -148 343 -178 q 444 -118 401 -118 q 515 -148 488 -118 q 543 -221 543 -178 q 401 -550 543 -356 l 317 -494 z "},"Ś":{"ha":871,"x_min":60,"x_max":813,"o":"m 442 -21 q 238 8 342 -21 q 60 83 135 38 l 114 210 q 265 147 174 174 q 436 121 357 121 q 600 156 539 121 q 661 254 661 192 q 632 328 661 300 q 560 370 603 356 q 424 410 517 385 q 228 481 300 443 q 122 573 156 519 q 89 706 89 626 q 138 855 89 792 q 271 951 186 918 q 463 985 356 985 q 779 922 610 985 l 729 790 q 463 843 585 843 q 301 806 361 843 q 240 704 240 768 q 266 630 240 657 q 338 586 292 603 q 476 546 383 569 q 733 439 654 503 q 813 267 813 375 q 765 112 813 176 q 634 13 718 47 q 442 -21 550 -21 m 549 1279 l 706 1279 l 500 1092 l 360 1092 l 549 1279 z "},"Š":{"ha":871,"x_min":60,"x_max":813,"o":"m 442 -21 q 238 8 342 -21 q 60 83 135 38 l 114 210 q 265 147 174 174 q 436 121 357 121 q 600 156 539 121 q 661 254 661 192 q 632 328 661 300 q 560 370 603 356 q 424 410 517 385 q 228 481 300 443 q 122 573 156 519 q 89 706 89 626 q 138 855 89 792 q 271 951 186 918 q 463 985 356 985 q 779 922 610 985 l 729 790 q 463 843 585 843 q 301 806 361 843 q 240 704 240 768 q 266 630 240 657 q 338 586 292 603 q 476 546 383 569 q 733 439 654 503 q 813 267 813 375 q 765 112 813 176 q 634 13 718 47 q 442 -21 550 -21 m 528 1092 l 371 1092 l 197 1279 l 314 1279 l 450 1161 l 585 1279 l 701 1279 l 528 1092 z "},"Ş":{"ha":871,"x_min":60,"x_max":813,"o":"m 442 -21 q 238 8 342 -21 q 60 83 135 38 l 114 210 q 265 147 174 174 q 436 121 357 121 q 600 156 539 121 q 661 254 661 192 q 632 328 661 300 q 560 370 603 356 q 424 410 517 385 q 228 481 300 443 q 122 573 156 519 q 89 706 89 626 q 138 855 89 792 q 271 951 186 918 q 463 985 356 985 q 779 922 610 985 l 729 790 q 463 843 585 843 q 301 806 361 843 q 240 704 240 768 q 266 630 240 657 q 338 586 292 603 q 476 546 383 569 q 733 439 654 503 q 813 267 813 375 q 765 112 813 176 q 634 13 718 47 q 442 -21 550 -21 m 297 -337 l 317 -257 l 411 -258 q 464 -244 446 -258 q 482 -201 482 -229 q 465 -161 482 -176 q 418 -146 447 -146 l 361 -146 l 396 -10 l 492 -10 l 471 -96 q 557 -131 526 -101 q 588 -206 588 -161 q 538 -301 588 -265 q 404 -337 488 -337 l 297 -337 z "},"Ș":{"ha":871,"x_min":60,"x_max":813,"o":"m 442 -21 q 238 8 342 -21 q 60 83 135 38 l 114 210 q 265 147 174 174 q 436 121 357 121 q 600 156 539 121 q 661 254 661 192 q 632 328 661 300 q 560 370 603 356 q 424 410 517 385 q 228 481 300 443 q 122 573 156 519 q 89 706 89 626 q 138 855 89 792 q 271 951 186 918 q 463 985 356 985 q 779 922 610 985 l 729 790 q 463 843 585 843 q 301 806 361 843 q 240 704 240 768 q 266 630 240 657 q 338 586 292 603 q 476 546 383 569 q 733 439 654 503 q 813 267 813 375 q 765 112 813 176 q 634 13 718 47 q 442 -21 550 -21 m 304 -506 q 380 -383 351 -439 q 414 -317 408 -326 q 358 -293 385 -319 q 331 -231 331 -267 q 360 -159 331 -189 q 432 -129 389 -129 q 503 -159 475 -129 q 531 -232 531 -189 q 389 -561 531 -367 l 304 -506 z "},"ẞ":{"ha":986,"x_min":99,"x_max":922,"o":"m 99 722 q 131 844 99 789 q 219 931 164 899 q 342 963 275 963 l 474 963 l 474 824 l 349 824 q 279 794 308 824 q 250 722 250 765 l 250 0 l 99 0 l 99 722 m 371 557 l 690 824 l 417 824 l 417 963 l 868 963 l 868 818 l 449 450 l 371 557 m 589 -15 q 441 19 510 -15 q 325 113 372 53 l 436 211 q 501 149 460 172 q 589 126 542 126 q 680 151 638 126 q 747 217 722 175 q 771 308 771 260 q 747 399 771 357 q 681 465 722 440 q 589 490 639 490 q 450 451 528 490 l 410 564 q 589 617 497 617 q 757 577 681 617 q 878 467 833 538 q 922 308 922 396 q 878 147 922 221 q 756 28 833 72 q 589 -15 679 -15 z "},"Ŧ":{"ha":719,"x_min":17,"x_max":703,"o":"m 144 546 l 576 546 l 576 417 l 144 417 l 144 546 m 283 824 l 18 824 l 17 963 l 703 963 l 703 824 l 435 824 l 435 0 l 283 0 l 283 824 z "},"Ť":{"ha":719,"x_min":17,"x_max":703,"o":"m 283 824 l 18 824 l 17 963 l 703 963 l 703 824 l 435 824 l 435 0 l 283 0 l 283 824 m 440 1081 l 283 1081 l 110 1268 l 226 1268 l 363 1150 l 497 1268 l 614 1268 l 440 1081 z "},"Ţ":{"ha":719,"x_min":17,"x_max":703,"o":"m 283 824 l 18 824 l 17 963 l 703 963 l 703 824 l 435 824 l 435 0 l 283 0 l 283 824 m 239 -326 l 258 -247 l 354 -247 q 407 -233 389 -247 q 425 -192 425 -218 q 408 -151 425 -167 q 360 -136 390 -136 l 303 -136 l 338 0 l 435 0 l 413 -86 q 499 -122 468 -92 q 529 -196 529 -151 q 480 -291 529 -256 q 347 -326 431 -326 l 239 -326 z "},"Ț":{"ha":719,"x_min":17,"x_max":703,"o":"m 283 824 l 18 824 l 17 963 l 703 963 l 703 824 l 435 824 l 435 0 l 283 0 l 283 824 m 233 -494 q 309 -372 281 -428 q 343 -306 338 -315 q 287 -282 314 -308 q 260 -219 260 -256 q 289 -148 260 -178 q 361 -118 318 -118 q 432 -148 404 -118 q 460 -221 460 -178 q 318 -550 460 -356 l 233 -494 z "},"Ú":{"ha":890,"x_min":85,"x_max":806,"o":"m 446 -7 q 265 42 347 -7 q 133 173 182 90 q 85 354 85 256 l 85 963 l 236 963 l 236 346 q 264 240 236 289 q 340 164 292 192 q 446 136 389 136 q 551 164 503 136 q 626 240 599 192 q 654 346 654 289 l 654 963 l 806 963 l 806 354 q 757 173 806 256 q 626 42 708 90 q 446 -7 543 -7 m 560 1268 l 717 1268 l 511 1081 l 371 1081 l 560 1268 z "},"Û":{"ha":890,"x_min":85,"x_max":806,"o":"m 446 -7 q 265 42 347 -7 q 133 173 182 90 q 85 354 85 256 l 85 963 l 236 963 l 236 346 q 264 240 236 289 q 340 164 292 192 q 446 136 389 136 q 551 164 503 136 q 626 240 599 192 q 654 346 654 289 l 654 963 l 806 963 l 806 354 q 757 173 806 256 q 626 42 708 90 q 446 -7 543 -7 m 449 1199 l 313 1081 l 196 1081 l 369 1268 l 526 1268 l 700 1081 l 583 1081 l 449 1199 z "},"Ü":{"ha":890,"x_min":85,"x_max":806,"o":"m 446 -7 q 265 42 347 -7 q 133 173 182 90 q 85 354 85 256 l 85 963 l 236 963 l 236 346 q 264 240 236 289 q 340 164 292 192 q 446 136 389 136 q 551 164 503 136 q 626 240 599 192 q 654 346 654 289 l 654 963 l 806 963 l 806 354 q 757 173 806 256 q 626 42 708 90 q 446 -7 543 -7 m 351 1081 q 292 1105 317 1081 q 267 1164 267 1129 q 292 1223 267 1199 q 351 1247 317 1247 q 410 1223 386 1247 q 435 1164 435 1199 q 410 1105 435 1129 q 351 1081 386 1081 m 553 1081 q 494 1105 518 1081 q 469 1164 469 1129 q 494 1223 469 1199 q 553 1247 518 1247 q 612 1223 588 1247 q 636 1164 636 1199 q 612 1105 636 1129 q 553 1081 588 1081 z "},"Ù":{"ha":890,"x_min":85,"x_max":806,"o":"m 446 -7 q 265 42 347 -7 q 133 173 182 90 q 85 354 85 256 l 85 963 l 236 963 l 236 346 q 264 240 236 289 q 340 164 292 192 q 446 136 389 136 q 551 164 503 136 q 626 240 599 192 q 654 346 654 289 l 654 963 l 806 963 l 806 354 q 757 173 806 256 q 626 42 708 90 q 446 -7 543 -7 m 183 1268 l 340 1268 l 529 1081 l 390 1081 l 183 1268 z "},"Ű":{"ha":890,"x_min":85,"x_max":806,"o":"m 446 -7 q 265 42 347 -7 q 133 173 182 90 q 85 354 85 256 l 85 963 l 236 963 l 236 346 q 264 240 236 289 q 340 164 292 192 q 446 136 389 136 q 551 164 503 136 q 626 240 599 192 q 654 346 654 289 l 654 963 l 806 963 l 806 354 q 757 173 806 256 q 626 42 708 90 q 446 -7 543 -7 m 646 1268 l 797 1268 l 614 1081 l 476 1081 l 646 1268 m 393 1268 l 546 1268 l 361 1081 l 224 1081 l 393 1268 z "},"Ū":{"ha":890,"x_min":85,"x_max":806,"o":"m 446 -7 q 265 42 347 -7 q 133 173 182 90 q 85 354 85 256 l 85 963 l 236 963 l 236 346 q 264 240 236 289 q 340 164 292 192 q 446 136 389 136 q 551 164 503 136 q 626 240 599 192 q 654 346 654 289 l 654 963 l 806 963 l 806 354 q 757 173 806 256 q 626 42 708 90 q 446 -7 543 -7 m 646 1081 l 246 1081 l 246 1178 l 646 1178 l 646 1081 z "},"Ų":{"ha":890,"x_min":85,"x_max":806,"o":"m 446 -7 q 265 42 347 -7 q 133 173 182 90 q 85 354 85 256 l 85 963 l 236 963 l 236 346 q 264 240 236 289 q 340 164 292 192 q 446 136 389 136 q 551 164 503 136 q 626 240 599 192 q 654 346 654 289 l 654 963 l 806 963 l 806 354 q 757 173 806 256 q 626 42 708 90 q 446 -7 543 -7 m 425 -310 q 299 -270 346 -310 q 251 -165 251 -231 q 306 -42 251 -97 q 464 53 360 14 l 526 7 q 400 -69 442 -31 q 358 -151 358 -108 q 381 -204 358 -185 q 444 -224 404 -224 l 528 -224 l 528 -310 l 425 -310 z "},"Ů":{"ha":890,"x_min":85,"x_max":806,"o":"m 446 -7 q 265 42 347 -7 q 133 173 182 90 q 85 354 85 256 l 85 963 l 236 963 l 236 346 q 264 240 236 289 q 340 164 292 192 q 446 136 389 136 q 551 164 503 136 q 626 240 599 192 q 654 346 654 289 l 654 963 l 806 963 l 806 354 q 757 173 806 256 q 626 42 708 90 q 446 -7 543 -7 m 450 1081 q 335 1126 382 1081 q 288 1236 288 1171 q 335 1348 288 1301 q 450 1394 382 1394 q 565 1348 518 1394 q 611 1236 611 1301 q 565 1126 611 1171 q 450 1081 518 1081 m 450 1150 q 513 1174 488 1150 q 538 1236 538 1199 q 512 1299 538 1274 q 450 1325 486 1325 q 388 1300 413 1325 q 363 1236 363 1275 q 387 1174 363 1199 q 450 1150 411 1150 z "},"Ẃ":{"ha":1206,"x_min":14,"x_max":1192,"o":"m 14 963 l 163 963 l 313 156 l 511 892 l 694 892 l 894 156 l 1043 963 l 1192 963 l 994 0 l 793 0 l 604 753 l 414 0 l 211 0 l 14 963 m 719 1224 l 876 1224 l 671 1036 l 531 1036 l 719 1224 z "},"Ŵ":{"ha":1206,"x_min":14,"x_max":1192,"o":"m 14 963 l 163 963 l 313 156 l 511 892 l 694 892 l 894 156 l 1043 963 l 1192 963 l 994 0 l 793 0 l 604 753 l 414 0 l 211 0 l 14 963 m 588 1156 l 451 1038 l 335 1038 l 508 1225 l 665 1225 l 839 1038 l 722 1038 l 588 1156 z "},"Ẅ":{"ha":1206,"x_min":14,"x_max":1192,"o":"m 14 963 l 163 963 l 313 156 l 511 892 l 694 892 l 894 156 l 1043 963 l 1192 963 l 994 0 l 793 0 l 604 753 l 414 0 l 211 0 l 14 963 m 504 967 q 444 991 469 967 q 419 1050 419 1015 q 444 1109 419 1085 q 504 1133 469 1133 q 563 1109 539 1133 q 588 1050 588 1085 q 563 991 588 1015 q 504 967 539 967 m 706 967 q 647 991 671 967 q 622 1050 622 1015 q 647 1109 622 1085 q 706 1133 671 1133 q 765 1109 740 1133 q 789 1050 789 1085 q 765 991 789 1015 q 706 967 740 967 z "},"Ẁ":{"ha":1206,"x_min":14,"x_max":1192,"o":"m 14 963 l 163 963 l 313 156 l 511 892 l 694 892 l 894 156 l 1043 963 l 1192 963 l 994 0 l 793 0 l 604 753 l 414 0 l 211 0 l 14 963 m 328 1225 l 485 1225 l 674 1038 l 535 1038 l 328 1225 z "},"Ý":{"ha":817,"x_min":14,"x_max":804,"o":"m 332 304 l 14 963 l 179 963 l 406 486 l 638 963 l 804 963 l 483 304 l 483 0 l 332 0 l 332 304 m 528 1268 l 685 1268 l 479 1081 l 339 1081 l 528 1268 z "},"Ŷ":{"ha":817,"x_min":14,"x_max":804,"o":"m 332 304 l 14 963 l 179 963 l 406 486 l 638 963 l 804 963 l 483 304 l 483 0 l 332 0 l 332 304 m 419 1199 l 283 1081 l 167 1081 l 340 1268 l 497 1268 l 671 1081 l 554 1081 l 419 1199 z "},"Ÿ":{"ha":817,"x_min":14,"x_max":804,"o":"m 332 304 l 14 963 l 179 963 l 406 486 l 638 963 l 804 963 l 483 304 l 483 0 l 332 0 l 332 304 m 317 1081 q 257 1105 282 1081 q 232 1164 232 1129 q 257 1223 232 1199 q 317 1247 282 1247 q 376 1223 351 1247 q 400 1164 400 1199 q 376 1105 400 1129 q 317 1081 351 1081 m 518 1081 q 459 1105 483 1081 q 435 1164 435 1129 q 459 1223 435 1199 q 518 1247 483 1247 q 577 1223 553 1247 q 601 1164 601 1199 q 577 1105 601 1129 q 518 1081 553 1081 z "},"Ỳ":{"ha":817,"x_min":14,"x_max":804,"o":"m 332 304 l 14 963 l 179 963 l 406 486 l 638 963 l 804 963 l 483 304 l 483 0 l 332 0 l 332 304 m 160 1268 l 317 1268 l 506 1081 l 367 1081 l 160 1268 z "},"Ź":{"ha":783,"x_min":35,"x_max":747,"o":"m 747 0 l 35 0 l 35 163 l 564 824 l 58 824 l 58 963 l 740 963 l 740 800 l 213 139 l 747 139 l 747 0 m 483 1268 l 640 1268 l 435 1081 l 294 1081 l 483 1268 z "},"Ž":{"ha":783,"x_min":35,"x_max":747,"o":"m 747 0 l 35 0 l 35 163 l 564 824 l 58 824 l 58 963 l 740 963 l 740 800 l 213 139 l 747 139 l 747 0 m 486 1081 l 329 1081 l 156 1268 l 272 1268 l 408 1150 l 543 1268 l 660 1268 l 486 1081 z "},"Ż":{"ha":783,"x_min":35,"x_max":747,"o":"m 747 0 l 35 0 l 35 163 l 564 824 l 58 824 l 58 963 l 740 963 l 740 800 l 213 139 l 747 139 l 747 0 m 406 1081 q 346 1105 371 1081 q 321 1164 321 1129 q 346 1223 321 1199 q 406 1247 371 1247 q 465 1223 440 1247 q 489 1164 489 1199 q 465 1105 489 1129 q 406 1081 440 1081 z "},"á":{"ha":875,"x_min":60,"x_max":797,"o":"m 421 -12 q 240 36 322 -12 q 108 168 157 85 q 60 349 60 251 q 108 528 60 446 q 240 658 157 610 q 421 707 322 707 q 585 659 515 707 q 692 530 656 611 q 728 349 728 449 q 692 166 728 249 q 585 35 656 83 q 421 -12 515 -12 m 429 129 q 538 158 488 129 q 617 238 588 188 q 646 349 646 289 q 617 458 646 408 q 538 538 588 508 q 429 567 488 567 q 319 538 369 567 q 240 458 269 508 q 211 349 211 408 q 240 238 211 289 q 319 158 269 188 q 429 129 369 129 m 671 236 l 646 236 l 646 438 l 797 438 l 797 0 l 671 0 l 671 236 m 646 460 l 671 460 l 671 696 l 797 696 l 797 257 l 646 257 l 646 460 m 518 1033 l 675 1033 l 469 846 l 329 846 l 518 1033 z "},"ă":{"ha":875,"x_min":60,"x_max":797,"o":"m 421 -12 q 240 36 322 -12 q 108 168 157 85 q 60 349 60 251 q 108 528 60 446 q 240 658 157 610 q 421 707 322 707 q 585 659 515 707 q 692 530 656 611 q 728 349 728 449 q 692 166 728 249 q 585 35 656 83 q 421 -12 515 -12 m 429 129 q 538 158 488 129 q 617 238 588 188 q 646 349 646 289 q 617 458 646 408 q 538 538 588 508 q 429 567 488 567 q 319 538 369 567 q 240 458 269 508 q 211 349 211 408 q 240 238 211 289 q 319 158 269 188 q 429 129 369 129 m 671 236 l 646 236 l 646 438 l 797 438 l 797 0 l 671 0 l 671 236 m 646 460 l 671 460 l 671 696 l 797 696 l 797 257 l 646 257 l 646 460 m 414 846 q 246 900 313 846 q 176 1043 179 954 l 285 1043 q 323 965 286 994 q 414 935 360 935 q 506 965 469 935 q 543 1043 542 994 l 651 1043 q 582 900 649 954 q 414 846 515 846 z "},"â":{"ha":875,"x_min":60,"x_max":797,"o":"m 421 -12 q 240 36 322 -12 q 108 168 157 85 q 60 349 60 251 q 108 528 60 446 q 240 658 157 610 q 421 707 322 707 q 585 659 515 707 q 692 530 656 611 q 728 349 728 449 q 692 166 728 249 q 585 35 656 83 q 421 -12 515 -12 m 429 129 q 538 158 488 129 q 617 238 588 188 q 646 349 646 289 q 617 458 646 408 q 538 538 588 508 q 429 567 488 567 q 319 538 369 567 q 240 458 269 508 q 211 349 211 408 q 240 238 211 289 q 319 158 269 188 q 429 129 369 129 m 671 236 l 646 236 l 646 438 l 797 438 l 797 0 l 671 0 l 671 236 m 646 460 l 671 460 l 671 696 l 797 696 l 797 257 l 646 257 l 646 460 m 425 963 l 289 844 l 172 844 l 346 1032 l 503 1032 l 676 844 l 560 844 l 425 963 z "},"ä":{"ha":875,"x_min":60,"x_max":797,"o":"m 421 -12 q 240 36 322 -12 q 108 168 157 85 q 60 349 60 251 q 108 528 60 446 q 240 658 157 610 q 421 707 322 707 q 585 659 515 707 q 692 530 656 611 q 728 349 728 449 q 692 166 728 249 q 585 35 656 83 q 421 -12 515 -12 m 429 129 q 538 158 488 129 q 617 238 588 188 q 646 349 646 289 q 617 458 646 408 q 538 538 588 508 q 429 567 488 567 q 319 538 369 567 q 240 458 269 508 q 211 349 211 408 q 240 238 211 289 q 319 158 269 188 q 429 129 369 129 m 671 236 l 646 236 l 646 438 l 797 438 l 797 0 l 671 0 l 671 236 m 646 460 l 671 460 l 671 696 l 797 696 l 797 257 l 646 257 l 646 460 m 321 842 q 261 866 286 842 q 236 925 236 890 q 261 984 236 960 q 321 1008 286 1008 q 380 984 356 1008 q 404 925 404 960 q 380 866 404 890 q 321 842 356 842 m 522 842 q 463 866 488 842 q 439 925 439 890 q 463 984 439 960 q 522 1008 488 1008 q 581 984 557 1008 q 606 925 606 960 q 581 866 606 890 q 522 842 557 842 z "},"à":{"ha":875,"x_min":60,"x_max":797,"o":"m 421 -12 q 240 36 322 -12 q 108 168 157 85 q 60 349 60 251 q 108 528 60 446 q 240 658 157 610 q 421 707 322 707 q 585 659 515 707 q 692 530 656 611 q 728 349 728 449 q 692 166 728 249 q 585 35 656 83 q 421 -12 515 -12 m 429 129 q 538 158 488 129 q 617 238 588 188 q 646 349 646 289 q 617 458 646 408 q 538 538 588 508 q 429 567 488 567 q 319 538 369 567 q 240 458 269 508 q 211 349 211 408 q 240 238 211 289 q 319 158 269 188 q 429 129 369 129 m 671 236 l 646 236 l 646 438 l 797 438 l 797 0 l 671 0 l 671 236 m 646 460 l 671 460 l 671 696 l 797 696 l 797 257 l 646 257 l 646 460 m 150 1033 l 307 1033 l 496 846 l 357 846 l 150 1033 z "},"ā":{"ha":875,"x_min":60,"x_max":797,"o":"m 421 -12 q 240 36 322 -12 q 108 168 157 85 q 60 349 60 251 q 108 528 60 446 q 240 658 157 610 q 421 707 322 707 q 585 659 515 707 q 692 530 656 611 q 728 349 728 449 q 692 166 728 249 q 585 35 656 83 q 421 -12 515 -12 m 429 129 q 538 158 488 129 q 617 238 588 188 q 646 349 646 289 q 617 458 646 408 q 538 538 588 508 q 429 567 488 567 q 319 538 369 567 q 240 458 269 508 q 211 349 211 408 q 240 238 211 289 q 319 158 269 188 q 429 129 369 129 m 671 236 l 646 236 l 646 438 l 797 438 l 797 0 l 671 0 l 671 236 m 646 460 l 671 460 l 671 696 l 797 696 l 797 257 l 646 257 l 646 460 m 614 846 l 214 846 l 214 943 l 614 943 l 614 846 z "},"ą":{"ha":875,"x_min":60,"x_max":799,"o":"m 421 -12 q 240 36 322 -12 q 108 168 157 85 q 60 349 60 251 q 108 528 60 446 q 240 658 157 610 q 421 707 322 707 q 585 659 515 707 q 692 530 656 611 q 728 349 728 449 q 692 166 728 249 q 585 35 656 83 q 421 -12 515 -12 m 429 129 q 538 158 488 129 q 617 238 588 188 q 646 349 646 289 q 617 458 646 408 q 538 538 588 508 q 429 567 488 567 q 319 538 369 567 q 240 458 269 508 q 211 349 211 408 q 240 238 211 289 q 319 158 269 188 q 429 129 369 129 m 671 236 l 646 236 l 646 438 l 797 438 l 797 0 l 671 0 l 671 236 m 646 460 l 671 460 l 671 696 l 797 696 l 797 257 l 646 257 l 646 460 m 696 -315 q 569 -276 617 -315 q 522 -171 522 -237 q 576 -48 522 -103 q 735 46 631 7 l 797 0 q 671 -75 713 -36 q 629 -157 629 -114 q 651 -210 629 -190 q 715 -229 674 -229 l 799 -229 l 799 -315 l 696 -315 z "},"å":{"ha":875,"x_min":60,"x_max":797,"o":"m 421 -12 q 240 36 322 -12 q 108 168 157 85 q 60 349 60 251 q 108 528 60 446 q 240 658 157 610 q 421 707 322 707 q 585 659 515 707 q 692 530 656 611 q 728 349 728 449 q 692 166 728 249 q 585 35 656 83 q 421 -12 515 -12 m 429 129 q 538 158 488 129 q 617 238 588 188 q 646 349 646 289 q 617 458 646 408 q 538 538 588 508 q 429 567 488 567 q 319 538 369 567 q 240 458 269 508 q 211 349 211 408 q 240 238 211 289 q 319 158 269 188 q 429 129 369 129 m 671 236 l 646 236 l 646 438 l 797 438 l 797 0 l 671 0 l 671 236 m 646 460 l 671 460 l 671 696 l 797 696 l 797 257 l 646 257 l 646 460 m 419 846 q 304 891 351 846 q 257 1001 257 936 q 304 1113 257 1067 q 419 1160 351 1160 q 534 1113 488 1160 q 581 1001 581 1067 q 534 891 581 936 q 419 846 488 846 m 419 915 q 482 940 457 915 q 507 1001 507 964 q 481 1065 507 1039 q 419 1090 456 1090 q 357 1065 382 1090 q 332 1001 332 1040 q 356 940 332 964 q 419 915 381 915 z "},"ã":{"ha":875,"x_min":60,"x_max":797,"o":"m 421 -12 q 240 36 322 -12 q 108 168 157 85 q 60 349 60 251 q 108 528 60 446 q 240 658 157 610 q 421 707 322 707 q 585 659 515 707 q 692 530 656 611 q 728 349 728 449 q 692 166 728 249 q 585 35 656 83 q 421 -12 515 -12 m 429 129 q 538 158 488 129 q 617 238 588 188 q 646 349 646 289 q 617 458 646 408 q 538 538 588 508 q 429 567 488 567 q 319 538 369 567 q 240 458 269 508 q 211 349 211 408 q 240 238 211 289 q 319 158 269 188 q 429 129 369 129 m 671 236 l 646 236 l 646 438 l 797 438 l 797 0 l 671 0 l 671 236 m 646 460 l 671 460 l 671 696 l 797 696 l 797 257 l 646 257 l 646 460 m 533 850 q 476 863 501 850 q 415 903 450 875 q 374 931 390 922 q 343 939 358 939 q 296 917 314 939 q 275 858 278 896 l 186 858 q 228 990 189 942 q 333 1039 267 1039 q 392 1026 365 1039 q 453 986 418 1014 q 492 958 476 967 q 524 950 508 950 q 572 970 554 950 q 593 1026 590 990 l 681 1026 q 639 898 678 946 q 533 850 600 850 z "},"æ":{"ha":1422,"x_min":60,"x_max":1372,"o":"m 421 -12 q 240 36 322 -12 q 108 168 157 85 q 60 349 60 251 q 108 528 60 446 q 240 658 157 610 q 421 707 322 707 q 585 659 515 707 q 692 530 656 611 q 728 349 728 449 q 692 166 728 249 q 585 35 656 83 q 421 -12 515 -12 m 429 129 q 538 158 488 129 q 617 238 588 188 q 646 349 646 289 q 617 458 646 408 q 538 538 588 508 q 429 567 488 567 q 319 538 369 567 q 240 458 269 508 q 211 349 211 408 q 240 238 211 289 q 319 158 269 188 q 429 129 369 129 m 668 236 l 646 236 l 646 438 l 785 438 l 785 0 l 668 0 l 668 236 m 646 460 l 668 460 l 668 696 l 785 696 l 785 257 l 646 257 l 646 460 m 1025 -12 q 860 36 933 -12 q 747 167 788 85 q 707 349 707 250 q 747 529 707 447 q 860 660 788 611 q 1025 708 932 708 q 1203 660 1124 708 q 1328 529 1283 611 q 1372 349 1372 447 q 1368 290 1372 318 l 1257 349 q 1226 465 1257 411 q 1142 549 1194 518 q 1026 581 1089 581 q 911 549 964 581 q 828 465 858 518 q 797 349 797 411 q 827 231 797 285 q 910 144 857 176 q 1026 113 963 113 q 1140 141 1089 113 q 1224 218 1192 169 l 1335 163 q 1206 34 1288 81 q 1025 -12 1124 -12 m 789 403 l 1342 403 l 1368 290 l 789 290 l 789 403 z "},"ć":{"ha":825,"x_min":61,"x_max":765,"o":"m 421 -12 q 240 36 322 -12 q 109 168 157 85 q 61 349 61 251 q 109 528 61 446 q 240 660 157 611 q 421 708 322 708 q 580 672 507 708 q 701 571 653 635 q 765 428 750 507 l 636 410 q 559 522 617 478 q 429 567 501 567 q 320 538 369 567 q 242 458 271 508 q 213 349 213 408 q 242 238 213 289 q 320 158 271 188 q 429 129 369 129 q 559 174 501 129 q 636 288 617 218 l 765 268 q 701 125 750 189 q 580 24 653 61 q 421 -12 507 -12 m 524 1032 l 681 1032 l 475 844 l 335 844 l 524 1032 z "},"č":{"ha":825,"x_min":61,"x_max":765,"o":"m 421 -12 q 240 36 322 -12 q 109 168 157 85 q 61 349 61 251 q 109 528 61 446 q 240 660 157 611 q 421 708 322 708 q 580 672 507 708 q 701 571 653 635 q 765 428 750 507 l 636 410 q 559 522 617 478 q 429 567 501 567 q 320 538 369 567 q 242 458 271 508 q 213 349 213 408 q 242 238 213 289 q 320 158 271 188 q 429 129 369 129 q 559 174 501 129 q 636 288 617 218 l 765 268 q 701 125 750 189 q 580 24 653 61 q 421 -12 507 -12 m 501 846 l 344 846 l 171 1033 l 288 1033 l 424 915 l 558 1033 l 675 1033 l 501 846 z "},"ç":{"ha":825,"x_min":61,"x_max":765,"o":"m 421 -12 q 240 36 322 -12 q 109 168 157 85 q 61 349 61 251 q 109 528 61 446 q 240 660 157 611 q 421 708 322 708 q 580 672 507 708 q 701 571 653 635 q 765 428 750 507 l 636 410 q 559 522 617 478 q 429 567 501 567 q 320 538 369 567 q 242 458 271 508 q 213 349 213 408 q 242 238 213 289 q 320 158 271 188 q 429 129 369 129 q 559 174 501 129 q 636 288 617 218 l 765 268 q 701 125 750 189 q 580 24 653 61 q 421 -12 507 -12 m 275 -326 l 294 -247 l 390 -247 q 443 -233 425 -247 q 461 -192 461 -218 q 444 -151 461 -167 q 396 -136 426 -136 l 339 -136 l 374 0 l 471 0 l 449 -86 q 535 -122 504 -92 q 565 -196 565 -151 q 516 -291 565 -256 q 383 -326 467 -326 l 275 -326 z "},"ċ":{"ha":825,"x_min":61,"x_max":765,"o":"m 421 -12 q 240 36 322 -12 q 109 168 157 85 q 61 349 61 251 q 109 528 61 446 q 240 660 157 611 q 421 708 322 708 q 580 672 507 708 q 701 571 653 635 q 765 428 750 507 l 636 410 q 559 522 617 478 q 429 567 501 567 q 320 538 369 567 q 242 458 271 508 q 213 349 213 408 q 242 238 213 289 q 320 158 271 188 q 429 129 369 129 q 559 174 501 129 q 636 288 617 218 l 765 268 q 701 125 750 189 q 580 24 653 61 q 421 -12 507 -12 m 418 844 q 358 869 383 844 q 333 928 333 893 q 358 987 333 963 q 418 1011 383 1011 q 477 987 453 1011 q 501 928 501 963 q 477 869 501 893 q 418 844 453 844 z "},"ð":{"ha":864,"x_min":85,"x_max":785,"o":"m 421 -12 q 253 33 331 -12 q 130 156 175 78 q 85 324 85 233 q 129 483 85 413 q 249 592 174 553 q 414 631 325 631 q 542 590 485 631 q 619 490 600 550 q 601 647 624 567 q 531 781 579 728 q 411 835 482 835 l 324 835 l 324 974 l 408 974 q 618 897 535 974 q 741 698 701 819 q 781 438 781 576 q 738 201 781 303 q 615 44 696 100 q 421 -12 535 -12 m 424 126 q 517 151 474 126 q 585 219 560 176 q 611 311 611 263 q 585 403 611 361 q 517 471 560 446 q 424 496 474 496 q 331 471 374 496 q 262 403 288 446 q 236 311 236 361 q 262 219 236 263 q 331 151 288 176 q 424 126 374 126 m 357 710 l 742 936 l 785 865 l 400 640 l 357 710 z "},"ď":{"ha":899,"x_min":61,"x_max":972,"o":"m 422 -12 q 241 36 324 -12 q 110 168 158 85 q 61 349 61 251 q 110 528 61 446 q 241 658 158 610 q 422 707 324 707 q 586 659 517 707 q 692 530 656 611 q 728 349 728 449 q 692 166 728 249 q 586 35 656 83 q 422 -12 517 -12 m 429 129 q 538 158 489 129 q 617 238 588 188 q 646 349 646 289 q 617 458 646 408 q 538 538 588 508 q 429 567 489 567 q 320 538 369 567 q 242 458 271 508 q 213 349 213 408 q 242 238 213 289 q 320 158 271 188 q 429 129 369 129 m 671 181 l 646 179 l 646 1004 l 797 1004 l 797 0 l 671 0 l 671 181 m 799 1142 l 642 1142 l 468 1329 l 585 1329 l 721 1211 l 856 1329 l 972 1329 l 799 1142 z "},"đ":{"ha":932,"x_min":61,"x_max":883,"o":"m 422 -12 q 241 36 324 -12 q 110 168 158 85 q 61 349 61 251 q 110 528 61 446 q 241 658 158 610 q 422 707 324 707 q 586 659 517 707 q 692 530 656 611 q 728 349 728 449 q 692 166 728 249 q 586 35 656 83 q 422 -12 517 -12 m 429 129 q 538 158 489 129 q 617 238 588 188 q 646 349 646 289 q 617 458 646 408 q 538 538 588 508 q 429 567 489 567 q 320 538 369 567 q 242 458 271 508 q 213 349 213 408 q 242 238 213 289 q 320 158 271 188 q 429 129 369 129 m 671 181 l 646 179 l 646 1004 l 797 1004 l 797 0 l 671 0 l 671 181 m 535 910 l 883 910 l 883 781 l 535 781 l 535 910 z "},"é":{"ha":821,"x_min":64,"x_max":771,"o":"m 425 -12 q 244 37 326 -12 q 113 169 161 86 q 64 349 64 251 q 113 528 64 446 q 244 660 161 611 q 425 708 326 708 q 603 660 524 708 q 726 529 682 611 q 771 349 771 447 q 767 290 771 318 l 210 290 q 283 163 222 214 q 426 113 344 113 q 540 141 489 113 q 622 218 590 169 l 733 163 q 606 34 688 81 q 425 -12 525 -12 m 636 410 q 563 531 622 482 q 426 581 504 581 q 289 531 349 581 q 214 410 229 482 l 636 410 m 532 1032 l 689 1032 l 483 844 l 343 844 l 532 1032 z "},"ě":{"ha":821,"x_min":64,"x_max":771,"o":"m 425 -12 q 244 37 326 -12 q 113 169 161 86 q 64 349 64 251 q 113 528 64 446 q 244 660 161 611 q 425 708 326 708 q 603 660 524 708 q 726 529 682 611 q 771 349 771 447 q 767 290 771 318 l 210 290 q 283 163 222 214 q 426 113 344 113 q 540 141 489 113 q 622 218 590 169 l 733 163 q 606 34 688 81 q 425 -12 525 -12 m 636 410 q 563 531 622 482 q 426 581 504 581 q 289 531 349 581 q 214 410 229 482 l 636 410 m 503 846 l 346 846 l 172 1033 l 289 1033 l 425 915 l 560 1033 l 676 1033 l 503 846 z "},"ê":{"ha":821,"x_min":64,"x_max":771,"o":"m 425 -12 q 244 37 326 -12 q 113 169 161 86 q 64 349 64 251 q 113 528 64 446 q 244 660 161 611 q 425 708 326 708 q 603 660 524 708 q 726 529 682 611 q 771 349 771 447 q 767 290 771 318 l 210 290 q 283 163 222 214 q 426 113 344 113 q 540 141 489 113 q 622 218 590 169 l 733 163 q 606 34 688 81 q 425 -12 525 -12 m 636 410 q 563 531 622 482 q 426 581 504 581 q 289 531 349 581 q 214 410 229 482 l 636 410 m 429 960 l 293 842 l 176 842 l 350 1029 l 507 1029 l 681 842 l 564 842 l 429 960 z "},"ë":{"ha":821,"x_min":64,"x_max":771,"o":"m 425 -12 q 244 37 326 -12 q 113 169 161 86 q 64 349 64 251 q 113 528 64 446 q 244 660 161 611 q 425 708 326 708 q 603 660 524 708 q 726 529 682 611 q 771 349 771 447 q 767 290 771 318 l 210 290 q 283 163 222 214 q 426 113 344 113 q 540 141 489 113 q 622 218 590 169 l 733 163 q 606 34 688 81 q 425 -12 525 -12 m 636 410 q 563 531 622 482 q 426 581 504 581 q 289 531 349 581 q 214 410 229 482 l 636 410 m 319 838 q 260 862 285 838 q 235 921 235 886 q 260 980 235 956 q 319 1004 285 1004 q 378 980 354 1004 q 403 921 403 956 q 378 862 403 886 q 319 838 354 838 m 521 838 q 462 862 486 838 q 438 921 438 886 q 462 980 438 956 q 521 1004 486 1004 q 580 980 556 1004 q 604 921 604 956 q 580 862 604 886 q 521 838 556 838 z "},"ė":{"ha":821,"x_min":64,"x_max":771,"o":"m 425 -12 q 244 37 326 -12 q 113 169 161 86 q 64 349 64 251 q 113 528 64 446 q 244 660 161 611 q 425 708 326 708 q 603 660 524 708 q 726 529 682 611 q 771 349 771 447 q 767 290 771 318 l 210 290 q 283 163 222 214 q 426 113 344 113 q 540 141 489 113 q 622 218 590 169 l 733 163 q 606 34 688 81 q 425 -12 525 -12 m 636 410 q 563 531 622 482 q 426 581 504 581 q 289 531 349 581 q 214 410 229 482 l 636 410 m 424 846 q 364 870 389 846 q 339 929 339 894 q 364 988 339 964 q 424 1013 389 1013 q 483 988 458 1013 q 507 929 507 964 q 483 870 507 894 q 424 846 458 846 z "},"è":{"ha":821,"x_min":64,"x_max":771,"o":"m 425 -12 q 244 37 326 -12 q 113 169 161 86 q 64 349 64 251 q 113 528 64 446 q 244 660 161 611 q 425 708 326 708 q 603 660 524 708 q 726 529 682 611 q 771 349 771 447 q 767 290 771 318 l 210 290 q 283 163 222 214 q 426 113 344 113 q 540 141 489 113 q 622 218 590 169 l 733 163 q 606 34 688 81 q 425 -12 525 -12 m 636 410 q 563 531 622 482 q 426 581 504 581 q 289 531 349 581 q 214 410 229 482 l 636 410 m 165 1033 l 322 1033 l 511 846 l 372 846 l 165 1033 z "},"ē":{"ha":821,"x_min":64,"x_max":771,"o":"m 425 -12 q 244 37 326 -12 q 113 169 161 86 q 64 349 64 251 q 113 528 64 446 q 244 660 161 611 q 425 708 326 708 q 603 660 524 708 q 726 529 682 611 q 771 349 771 447 q 767 290 771 318 l 210 290 q 283 163 222 214 q 426 113 344 113 q 540 141 489 113 q 622 218 590 169 l 733 163 q 606 34 688 81 q 425 -12 525 -12 m 636 410 q 563 531 622 482 q 426 581 504 581 q 289 531 349 581 q 214 410 229 482 l 636 410 m 619 846 l 219 846 l 219 943 l 619 943 l 619 846 z "},"ę":{"ha":821,"x_min":64,"x_max":771,"o":"m 425 -12 q 244 37 326 -12 q 113 169 161 86 q 64 349 64 251 q 113 528 64 446 q 244 660 161 611 q 425 708 326 708 q 603 660 524 708 q 726 529 682 611 q 771 349 771 447 q 767 290 771 318 l 210 290 q 283 163 222 214 q 426 113 344 113 q 540 141 489 113 q 622 218 590 169 l 733 163 q 606 34 688 81 q 425 -12 525 -12 m 636 410 q 563 531 622 482 q 426 581 504 581 q 289 531 349 581 q 214 410 229 482 l 636 410 m 421 -314 q 294 -275 340 -314 q 247 -169 247 -236 q 301 -46 247 -101 q 458 49 356 10 l 522 1 q 396 -74 438 -35 q 354 -156 354 -112 q 377 -208 354 -189 q 440 -228 400 -228 l 524 -228 l 524 -314 l 421 -314 z "},"ğ":{"ha":868,"x_min":61,"x_max":797,"o":"m 200 -175 l 469 -175 q 567 -148 522 -175 q 640 -75 613 -121 q 667 26 667 -29 l 667 531 l 671 531 l 671 696 l 797 696 l 797 28 q 751 -144 797 -65 q 628 -270 706 -224 q 458 -317 550 -317 l 200 -317 l 200 -175 m 421 -12 q 240 36 322 -12 q 109 168 157 85 q 61 349 61 251 q 109 528 61 446 q 240 658 157 610 q 421 707 322 707 q 585 659 515 707 q 692 530 656 611 q 728 349 728 449 q 692 166 728 249 q 585 35 656 83 q 421 -12 515 -12 m 429 129 q 538 158 489 129 q 617 238 588 188 q 646 349 646 289 q 617 458 646 408 q 538 538 588 508 q 429 567 489 567 q 320 538 369 567 q 242 458 271 508 q 213 349 213 408 q 242 238 213 289 q 320 158 271 188 q 429 129 369 129 m 410 846 q 242 900 308 846 q 172 1043 175 954 l 281 1043 q 319 965 282 994 q 410 935 356 935 q 501 965 465 935 q 539 1043 538 994 l 647 1043 q 578 900 644 954 q 410 846 511 846 z "},"ģ":{"ha":868,"x_min":61,"x_max":797,"o":"m 200 -175 l 469 -175 q 567 -148 522 -175 q 640 -75 613 -121 q 667 26 667 -29 l 667 531 l 671 531 l 671 696 l 797 696 l 797 28 q 751 -144 797 -65 q 628 -270 706 -224 q 458 -317 550 -317 l 200 -317 l 200 -175 m 421 -12 q 240 36 322 -12 q 109 168 157 85 q 61 349 61 251 q 109 528 61 446 q 240 658 157 610 q 421 707 322 707 q 585 659 515 707 q 692 530 656 611 q 728 349 728 449 q 692 166 728 249 q 585 35 656 83 q 421 -12 515 -12 m 429 129 q 538 158 489 129 q 617 238 588 188 q 646 349 646 289 q 617 458 646 408 q 538 538 588 508 q 429 567 489 567 q 320 538 369 567 q 242 458 271 508 q 213 349 213 408 q 242 238 213 289 q 320 158 271 188 q 429 129 369 129 m 546 1219 q 468 1092 494 1147 q 438 1031 442 1038 q 494 1007 467 1033 q 521 944 521 981 q 491 873 521 903 q 419 843 461 843 q 347 873 375 843 q 319 946 319 903 q 463 1275 319 1081 l 546 1219 z "},"ġ":{"ha":868,"x_min":61,"x_max":797,"o":"m 200 -175 l 469 -175 q 567 -148 522 -175 q 640 -75 613 -121 q 667 26 667 -29 l 667 531 l 671 531 l 671 696 l 797 696 l 797 28 q 751 -144 797 -65 q 628 -270 706 -224 q 458 -317 550 -317 l 200 -317 l 200 -175 m 421 -12 q 240 36 322 -12 q 109 168 157 85 q 61 349 61 251 q 109 528 61 446 q 240 658 157 610 q 421 707 322 707 q 585 659 515 707 q 692 530 656 611 q 728 349 728 449 q 692 166 728 249 q 585 35 656 83 q 421 -12 515 -12 m 429 129 q 538 158 489 129 q 617 238 588 188 q 646 349 646 289 q 617 458 646 408 q 538 538 588 508 q 429 567 489 567 q 320 538 369 567 q 242 458 271 508 q 213 349 213 408 q 242 238 213 289 q 320 158 271 188 q 429 129 369 129 m 421 847 q 361 872 386 847 q 336 931 336 896 q 361 990 336 965 q 421 1014 386 1014 q 480 990 456 1014 q 504 931 504 965 q 480 872 504 896 q 421 847 456 847 z "},"ħ":{"ha":836,"x_min":49,"x_max":782,"o":"m 632 382 q 581 507 632 456 q 456 558 529 558 q 369 535 410 558 q 306 470 329 511 q 282 382 282 429 l 201 382 q 235 540 201 465 q 333 660 269 614 q 481 706 396 706 q 634 663 565 706 q 742 547 703 619 q 782 386 782 474 l 782 0 l 632 0 l 632 382 m 131 1004 l 282 1004 l 282 0 l 131 0 l 131 1004 m 49 917 l 397 917 l 397 788 l 49 788 l 49 917 z "},"ı":{"ha":315,"x_min":82,"x_max":233,"o":"m 82 696 l 233 696 l 233 0 l 82 0 l 82 696 z "},"í":{"ha":315,"x_min":82,"x_max":431,"o":"m 82 696 l 233 696 l 233 0 l 82 0 l 82 696 m 274 1022 l 431 1022 l 225 835 l 85 835 l 274 1022 z "},"î":{"ha":315,"x_min":-94,"x_max":410,"o":"m 82 696 l 233 696 l 233 0 l 82 0 l 82 696 m 158 953 l 22 835 l -94 835 l 79 1022 l 236 1022 l 410 835 l 293 835 l 158 953 z "},"ï":{"ha":315,"x_min":-28,"x_max":342,"o":"m 82 696 l 233 696 l 233 0 l 82 0 l 82 696 m 57 833 q -3 858 22 833 q -28 918 -28 883 q -3 977 -28 953 q 57 1001 22 1001 q 116 977 92 1001 q 140 918 140 953 q 116 858 140 883 q 57 833 92 833 m 258 833 q 199 858 224 833 q 175 918 175 883 q 199 977 175 953 q 258 1001 224 1001 q 317 977 293 1001 q 342 918 342 953 q 317 858 342 883 q 258 833 293 833 z "},"ì":{"ha":315,"x_min":-115,"x_max":233,"o":"m 82 696 l 233 696 l 233 0 l 82 0 l 82 696 m -115 1021 l 42 1021 l 231 833 l 90 833 l -115 1021 z "},"ī":{"ha":315,"x_min":-42,"x_max":358,"o":"m 82 696 l 233 696 l 233 0 l 82 0 l 82 696 m 358 835 l -42 835 l -42 931 l 358 931 l 358 835 z "},"į":{"ha":315,"x_min":-42,"x_max":235,"o":"m 82 696 l 233 696 l 233 0 l 82 0 l 82 696 m 132 -315 q 6 -276 53 -315 q -42 -171 -42 -237 q 13 -48 -42 -103 q 171 46 67 7 l 233 0 q 107 -75 149 -36 q 65 -157 65 -114 q 88 -210 65 -190 q 151 -229 110 -229 l 235 -229 l 235 -315 l 132 -315 z "},"ķ":{"ha":733,"x_min":92,"x_max":707,"o":"m 308 318 l 404 442 l 707 0 l 529 0 l 308 318 m 92 1004 l 243 1004 l 243 0 l 92 0 l 92 1004 m 243 449 l 496 696 l 682 696 l 243 240 l 243 449 m 243 -515 q 319 -392 290 -449 q 353 -326 347 -336 q 297 -303 324 -329 q 269 -240 269 -276 q 299 -169 269 -199 q 371 -139 328 -139 q 442 -169 414 -139 q 469 -242 469 -199 q 328 -571 469 -376 l 243 -515 z "},"ĺ":{"ha":351,"x_min":92,"x_max":446,"o":"m 285 0 q 188 25 232 0 q 118 94 144 50 q 92 190 92 138 l 92 1004 l 243 1004 l 243 181 q 255 152 243 164 q 285 140 267 140 l 306 140 l 306 0 l 285 0 m 289 1329 l 446 1329 l 240 1142 l 100 1142 l 289 1329 z "},"ľ":{"ha":358,"x_min":-78,"x_max":426,"o":"m 285 0 q 188 25 232 0 q 118 94 144 50 q 92 190 92 138 l 92 1004 l 243 1004 l 243 181 q 255 152 243 164 q 285 140 267 140 l 306 140 l 306 0 l 285 0 m 253 1140 l 96 1140 l -78 1328 l 39 1328 l 175 1210 l 310 1328 l 426 1328 l 253 1140 z "},"ļ":{"ha":363,"x_min":85,"x_max":311,"o":"m 285 0 q 188 25 232 0 q 118 94 144 50 q 92 190 92 138 l 92 1004 l 243 1004 l 243 181 q 255 152 243 164 q 285 140 267 140 l 306 140 l 306 0 l 285 0 m 85 -515 q 160 -392 132 -449 q 194 -326 189 -336 q 138 -303 165 -329 q 111 -240 111 -276 q 140 -169 111 -199 q 213 -139 169 -139 q 283 -169 256 -139 q 311 -242 311 -199 q 169 -571 311 -376 l 85 -515 z "},"ł":{"ha":596,"x_min":49,"x_max":547,"o":"m 49 446 l 483 696 l 547 582 l 113 332 l 49 446 m 407 0 q 310 25 354 0 q 240 94 267 50 q 214 190 214 138 l 214 1004 l 365 1004 l 365 181 q 377 152 365 164 q 407 140 389 140 l 428 140 l 428 0 l 407 0 z "},"ń":{"ha":783,"x_min":78,"x_max":729,"o":"m 579 383 q 528 508 579 457 q 403 560 476 560 q 317 536 357 560 q 253 472 276 513 q 229 383 229 431 l 149 383 q 183 541 149 467 q 281 661 217 615 q 429 707 344 707 q 583 664 514 707 q 690 548 651 621 q 729 388 729 475 l 729 0 l 579 0 l 579 383 m 78 696 l 204 696 l 204 525 l 229 515 l 229 0 l 78 0 l 78 696 m 529 1031 l 686 1031 l 481 843 l 340 843 l 529 1031 z "},"ň":{"ha":783,"x_min":78,"x_max":729,"o":"m 579 383 q 528 508 579 457 q 403 560 476 560 q 317 536 357 560 q 253 472 276 513 q 229 383 229 431 l 149 383 q 183 541 149 467 q 281 661 217 615 q 429 707 344 707 q 583 664 514 707 q 690 548 651 621 q 729 388 729 475 l 729 0 l 579 0 l 579 383 m 78 696 l 204 696 l 204 525 l 229 515 l 229 0 l 78 0 l 78 696 m 506 843 l 349 843 l 175 1031 l 292 1031 l 428 913 l 563 1031 l 679 1031 l 506 843 z "},"ņ":{"ha":783,"x_min":78,"x_max":729,"o":"m 579 383 q 528 508 579 457 q 403 560 476 560 q 317 536 357 560 q 253 472 276 513 q 229 383 229 431 l 149 383 q 183 541 149 467 q 281 661 217 615 q 429 707 344 707 q 583 664 514 707 q 690 548 651 621 q 729 388 729 475 l 729 0 l 579 0 l 579 383 m 78 696 l 204 696 l 204 525 l 229 515 l 229 0 l 78 0 l 78 696 m 274 -515 q 349 -392 321 -449 q 383 -326 378 -336 q 327 -303 354 -329 q 300 -240 300 -276 q 329 -169 300 -199 q 401 -139 358 -139 q 472 -169 444 -139 q 500 -242 500 -199 q 358 -571 500 -376 l 274 -515 z "},"ñ":{"ha":783,"x_min":78,"x_max":729,"o":"m 579 383 q 528 508 579 457 q 403 560 476 560 q 317 536 357 560 q 253 472 276 513 q 229 383 229 431 l 149 383 q 183 541 149 467 q 281 661 217 615 q 429 707 344 707 q 583 664 514 707 q 690 548 651 621 q 729 388 729 475 l 729 0 l 579 0 l 579 383 m 78 696 l 204 696 l 204 525 l 229 515 l 229 0 l 78 0 l 78 696 m 549 838 q 491 850 517 838 q 431 890 465 863 q 390 918 406 910 q 358 926 374 926 q 311 905 329 926 q 290 846 293 883 l 201 846 q 243 978 204 929 q 349 1026 282 1026 q 407 1014 381 1026 q 468 974 433 1001 q 508 946 492 954 q 539 938 524 938 q 588 958 569 938 q 608 1014 606 978 l 696 1014 q 654 885 693 933 q 549 838 615 838 z "},"ŋ":{"ha":803,"x_min":78,"x_max":729,"o":"m 578 383 q 527 508 578 457 q 403 560 476 560 q 317 536 357 560 q 253 472 276 513 q 229 383 229 431 l 149 383 q 183 541 149 467 q 281 661 217 615 q 429 707 344 707 q 583 664 514 707 q 690 548 651 621 q 729 388 729 475 l 729 0 l 578 0 l 578 383 m 78 696 l 204 696 l 204 525 l 229 515 l 229 0 l 78 0 l 78 696 m 408 -132 l 479 -132 q 549 -103 521 -132 q 578 -33 578 -75 l 578 285 l 729 285 l 729 -33 q 697 -156 729 -100 q 608 -243 664 -211 q 488 -275 553 -275 l 408 -275 l 408 -132 z "},"ó":{"ha":857,"x_min":60,"x_max":797,"o":"m 429 -12 q 244 36 329 -12 q 110 167 160 85 q 60 349 60 250 q 110 528 60 446 q 244 659 160 611 q 429 707 329 707 q 614 659 529 707 q 748 528 699 611 q 797 349 797 446 q 748 167 797 250 q 614 36 699 85 q 429 -12 529 -12 m 429 129 q 538 158 488 129 q 617 238 588 188 q 646 349 646 289 q 617 458 646 408 q 538 538 588 508 q 429 567 488 567 q 319 538 369 567 q 240 458 269 508 q 211 349 211 408 q 240 238 211 289 q 319 158 269 188 q 429 129 369 129 m 532 1029 l 689 1029 l 483 842 l 343 842 l 532 1029 z "},"ô":{"ha":857,"x_min":60,"x_max":797,"o":"m 429 -12 q 244 36 329 -12 q 110 167 160 85 q 60 349 60 250 q 110 528 60 446 q 244 659 160 611 q 429 707 329 707 q 614 659 529 707 q 748 528 699 611 q 797 349 797 446 q 748 167 797 250 q 614 36 699 85 q 429 -12 529 -12 m 429 129 q 538 158 488 129 q 617 238 588 188 q 646 349 646 289 q 617 458 646 408 q 538 538 588 508 q 429 567 488 567 q 319 538 369 567 q 240 458 269 508 q 211 349 211 408 q 240 238 211 289 q 319 158 269 188 q 429 129 369 129 m 428 956 l 292 838 l 175 838 l 349 1025 l 506 1025 l 679 838 l 563 838 l 428 956 z "},"ö":{"ha":857,"x_min":60,"x_max":797,"o":"m 429 -12 q 244 36 329 -12 q 110 167 160 85 q 60 349 60 250 q 110 528 60 446 q 244 659 160 611 q 429 707 329 707 q 614 659 529 707 q 748 528 699 611 q 797 349 797 446 q 748 167 797 250 q 614 36 699 85 q 429 -12 529 -12 m 429 129 q 538 158 488 129 q 617 238 588 188 q 646 349 646 289 q 617 458 646 408 q 538 538 588 508 q 429 567 488 567 q 319 538 369 567 q 240 458 269 508 q 211 349 211 408 q 240 238 211 289 q 319 158 269 188 q 429 129 369 129 m 325 833 q 265 858 290 833 q 240 917 240 882 q 265 976 240 951 q 325 1000 290 1000 q 384 976 360 1000 q 408 917 408 951 q 384 858 408 882 q 325 833 360 833 m 526 833 q 467 858 492 833 q 443 917 443 882 q 467 976 443 951 q 526 1000 492 1000 q 585 976 561 1000 q 610 917 610 951 q 585 858 610 882 q 526 833 561 833 z "},"ò":{"ha":857,"x_min":60,"x_max":797,"o":"m 429 -12 q 244 36 329 -12 q 110 167 160 85 q 60 349 60 250 q 110 528 60 446 q 244 659 160 611 q 429 707 329 707 q 614 659 529 707 q 748 528 699 611 q 797 349 797 446 q 748 167 797 250 q 614 36 699 85 q 429 -12 529 -12 m 429 129 q 538 158 488 129 q 617 238 588 188 q 646 349 646 289 q 617 458 646 408 q 538 538 588 508 q 429 567 488 567 q 319 538 369 567 q 240 458 269 508 q 211 349 211 408 q 240 238 211 289 q 319 158 269 188 q 429 129 369 129 m 154 1031 l 311 1031 l 500 843 l 361 843 l 154 1031 z "},"ő":{"ha":857,"x_min":60,"x_max":797,"o":"m 429 -12 q 244 36 329 -12 q 110 167 160 85 q 60 349 60 250 q 110 528 60 446 q 244 659 160 611 q 429 707 329 707 q 614 659 529 707 q 748 528 699 611 q 797 349 797 446 q 748 167 797 250 q 614 36 699 85 q 429 -12 529 -12 m 429 129 q 538 158 488 129 q 617 238 588 188 q 646 349 646 289 q 617 458 646 408 q 538 538 588 508 q 429 567 488 567 q 319 538 369 567 q 240 458 269 508 q 211 349 211 408 q 240 238 211 289 q 319 158 269 188 q 429 129 369 129 m 625 1031 l 776 1031 l 593 843 l 456 843 l 625 1031 m 372 1031 l 525 1031 l 340 843 l 203 843 l 372 1031 z "},"ō":{"ha":857,"x_min":60,"x_max":797,"o":"m 429 -12 q 244 36 329 -12 q 110 167 160 85 q 60 349 60 250 q 110 528 60 446 q 244 659 160 611 q 429 707 329 707 q 614 659 529 707 q 748 528 699 611 q 797 349 797 446 q 748 167 797 250 q 614 36 699 85 q 429 -12 529 -12 m 429 129 q 538 158 488 129 q 617 238 588 188 q 646 349 646 289 q 617 458 646 408 q 538 538 588 508 q 429 567 488 567 q 319 538 369 567 q 240 458 269 508 q 211 349 211 408 q 240 238 211 289 q 319 158 269 188 q 429 129 369 129 m 625 844 l 225 844 l 225 942 l 625 942 l 625 844 z "},"ø":{"ha":857,"x_min":60,"x_max":797,"o":"m 429 -12 q 244 36 329 -12 q 110 167 160 85 q 60 349 60 250 q 110 528 60 446 q 244 659 160 611 q 429 707 329 707 q 614 659 529 707 q 748 528 699 611 q 797 349 797 446 q 748 167 797 250 q 614 36 699 85 q 429 -12 529 -12 m 429 124 q 540 153 489 124 q 622 235 592 183 q 651 349 651 288 q 622 461 651 410 q 540 542 592 513 q 429 572 489 572 q 317 542 368 572 q 235 461 265 513 q 206 349 206 410 q 235 235 206 288 q 317 153 265 183 q 429 124 368 124 m 350 -68 l 219 -68 l 514 771 l 644 771 l 350 -68 z "},"õ":{"ha":857,"x_min":60,"x_max":797,"o":"m 429 -12 q 244 36 329 -12 q 110 167 160 85 q 60 349 60 250 q 110 528 60 446 q 244 659 160 611 q 429 707 329 707 q 614 659 529 707 q 748 528 699 611 q 797 349 797 446 q 748 167 797 250 q 614 36 699 85 q 429 -12 529 -12 m 429 129 q 538 158 488 129 q 617 238 588 188 q 646 349 646 289 q 617 458 646 408 q 538 538 588 508 q 429 567 488 567 q 319 538 369 567 q 240 458 269 508 q 211 349 211 408 q 240 238 211 289 q 319 158 269 188 q 429 129 369 129 m 533 836 q 476 849 501 836 q 415 889 450 861 q 374 917 390 908 q 343 925 358 925 q 296 903 314 925 q 275 844 278 882 l 186 844 q 228 976 189 928 q 333 1025 267 1025 q 392 1013 365 1025 q 453 972 418 1000 q 492 944 476 953 q 524 936 508 936 q 572 956 554 936 q 593 1013 590 976 l 681 1013 q 639 884 678 932 q 533 836 600 836 z "},"œ":{"ha":1404,"x_min":60,"x_max":1354,"o":"m 429 -12 q 244 36 329 -12 q 110 167 160 85 q 60 349 60 250 q 110 528 60 446 q 244 659 160 611 q 429 707 329 707 q 614 659 529 707 q 748 528 699 611 q 797 349 797 446 q 748 167 797 250 q 614 36 699 85 q 429 -12 529 -12 m 429 129 q 538 158 488 129 q 617 238 588 188 q 646 349 646 289 q 617 458 646 408 q 538 538 588 508 q 429 567 488 567 q 319 538 369 567 q 240 458 269 508 q 211 349 211 408 q 240 238 211 289 q 319 158 269 188 q 429 129 369 129 m 1008 -12 q 828 37 911 -12 q 697 169 746 86 q 649 349 649 251 q 697 528 649 446 q 827 660 744 611 q 1008 708 910 708 q 1186 660 1107 708 q 1310 529 1265 611 q 1354 349 1354 447 q 1350 290 1354 318 l 1239 349 q 1208 465 1239 411 q 1125 549 1178 518 q 1010 581 1072 581 q 894 549 947 581 q 810 465 842 518 q 779 349 779 411 q 809 231 779 285 q 892 144 839 176 q 1010 113 944 113 q 1124 141 1072 113 q 1207 218 1175 169 l 1317 163 q 1190 34 1271 81 q 1008 -12 1108 -12 m 772 403 l 1325 403 l 1350 290 l 772 290 l 772 403 z "},"þ":{"ha":886,"x_min":89,"x_max":826,"o":"m 467 -12 q 301 35 371 -12 q 196 165 232 83 q 160 349 160 247 q 196 530 160 449 q 301 659 232 611 q 467 707 371 707 q 647 658 564 707 q 778 527 729 610 q 826 347 826 444 q 778 167 826 250 q 647 36 729 85 q 467 -12 564 -12 m 89 983 l 239 983 l 239 551 l 240 515 l 240 -268 l 89 -268 l 89 983 m 457 129 q 567 158 517 129 q 646 238 617 188 q 675 349 675 289 q 646 458 675 408 q 567 538 617 508 q 457 567 517 567 q 349 538 399 567 q 269 458 299 508 q 240 349 240 408 q 269 238 240 289 q 349 158 299 188 q 457 129 399 129 z "},"ŕ":{"ha":539,"x_min":78,"x_max":546,"o":"m 78 696 l 204 696 l 204 515 l 229 515 l 229 0 l 78 0 l 78 696 m 149 332 q 187 509 149 425 q 297 645 225 593 q 464 697 369 697 l 500 697 l 500 558 l 422 558 q 326 532 371 558 q 256 460 282 506 q 229 364 229 415 l 149 332 m 389 1021 l 546 1021 l 340 833 l 200 833 l 389 1021 z "},"ř":{"ha":539,"x_min":50,"x_max":554,"o":"m 78 696 l 204 696 l 204 515 l 229 515 l 229 0 l 78 0 l 78 696 m 149 332 q 187 509 149 425 q 297 645 225 593 q 464 697 369 697 l 500 697 l 500 558 l 422 558 q 326 532 371 558 q 256 460 282 506 q 229 364 229 415 l 149 332 m 381 833 l 224 833 l 50 1021 l 167 1021 l 303 903 l 438 1021 l 554 1021 l 381 833 z "},"ŗ":{"ha":539,"x_min":49,"x_max":500,"o":"m 78 696 l 204 696 l 204 515 l 229 515 l 229 0 l 78 0 l 78 696 m 149 332 q 187 509 149 425 q 297 645 225 593 q 464 697 369 697 l 500 697 l 500 558 l 422 558 q 326 532 371 558 q 256 460 282 506 q 229 364 229 415 l 149 332 m 49 -515 q 124 -392 96 -449 q 158 -326 153 -336 q 102 -303 129 -329 q 75 -240 75 -276 q 104 -169 75 -199 q 176 -139 133 -139 q 247 -169 219 -139 q 275 -242 275 -199 q 133 -571 275 -376 l 49 -515 z "},"ś":{"ha":719,"x_min":61,"x_max":667,"o":"m 376 -14 q 203 13 285 -14 q 61 86 122 39 l 125 186 q 376 111 244 111 q 517 193 517 111 q 482 247 517 229 q 371 282 447 265 q 165 360 231 314 q 99 500 99 406 q 174 651 99 593 q 378 708 250 708 q 515 688 446 708 q 639 636 585 668 l 585 531 q 378 582 476 582 q 283 560 317 582 q 249 497 249 538 q 283 438 249 456 q 399 407 317 421 q 597 333 528 383 q 667 196 667 283 q 590 42 667 97 q 376 -14 513 -14 m 482 1033 l 639 1033 l 433 846 l 293 846 l 482 1033 z "},"š":{"ha":719,"x_min":61,"x_max":667,"o":"m 376 -14 q 203 13 285 -14 q 61 86 122 39 l 125 186 q 376 111 244 111 q 517 193 517 111 q 482 247 517 229 q 371 282 447 265 q 165 360 231 314 q 99 500 99 406 q 174 651 99 593 q 378 708 250 708 q 515 688 446 708 q 639 636 585 668 l 585 531 q 378 582 476 582 q 283 560 317 582 q 249 497 249 538 q 283 438 249 456 q 399 407 317 421 q 597 333 528 383 q 667 196 667 283 q 590 42 667 97 q 376 -14 513 -14 m 450 846 l 293 846 l 119 1033 l 236 1033 l 372 915 l 507 1033 l 624 1033 l 450 846 z "},"ş":{"ha":719,"x_min":61,"x_max":667,"o":"m 376 -14 q 203 13 285 -14 q 61 86 122 39 l 125 186 q 376 111 244 111 q 517 193 517 111 q 482 247 517 229 q 371 282 447 265 q 165 360 231 314 q 99 500 99 406 q 174 651 99 593 q 378 708 250 708 q 515 688 446 708 q 639 636 585 668 l 585 531 q 378 582 476 582 q 283 560 317 582 q 249 497 249 538 q 283 438 249 456 q 399 407 317 421 q 597 333 528 383 q 667 196 667 283 q 590 42 667 97 q 376 -14 513 -14 m 228 -326 l 247 -247 l 343 -247 q 396 -233 378 -247 q 414 -192 414 -218 q 397 -151 414 -167 q 349 -136 379 -136 l 292 -136 l 326 0 l 424 0 l 401 -86 q 488 -122 457 -92 q 518 -196 518 -151 q 469 -291 518 -256 q 336 -326 419 -326 l 228 -326 z "},"ș":{"ha":719,"x_min":61,"x_max":667,"o":"m 376 -14 q 203 13 285 -14 q 61 86 122 39 l 125 186 q 376 111 244 111 q 517 193 517 111 q 482 247 517 229 q 371 282 447 265 q 165 360 231 314 q 99 500 99 406 q 174 651 99 593 q 378 708 250 708 q 515 688 446 708 q 639 636 585 668 l 585 531 q 378 582 476 582 q 283 560 317 582 q 249 497 249 538 q 283 438 249 456 q 399 407 317 421 q 597 333 528 383 q 667 196 667 283 q 590 42 667 97 q 376 -14 513 -14 m 247 -522 q 323 -399 294 -456 q 357 -333 351 -343 q 301 -310 328 -336 q 274 -247 274 -283 q 303 -176 274 -206 q 375 -146 332 -146 q 446 -176 418 -146 q 474 -249 474 -206 q 332 -578 474 -383 l 247 -522 z "},"ß":{"ha":818,"x_min":93,"x_max":757,"o":"m 226 -1 l 93 -1 l 93 731 q 129 867 93 804 q 227 965 165 929 q 363 1001 289 1001 q 500 965 438 1001 q 599 867 563 929 q 635 731 635 804 q 599 593 635 656 q 500 494 563 531 q 363 458 438 458 l 364 590 q 460 631 421 590 q 500 731 500 672 q 460 828 500 788 q 364 869 421 869 q 267 828 307 869 q 226 731 226 788 l 226 -1 m 450 -21 q 321 8 386 -21 l 378 131 q 451 114 411 114 q 572 164 524 114 q 621 286 621 214 q 572 408 621 358 q 451 457 524 457 l 358 457 l 358 569 l 450 569 q 605 534 535 569 q 716 434 675 499 q 757 288 757 369 q 716 132 757 203 q 605 20 675 61 q 450 -21 535 -21 z "},"ŧ":{"ha":754,"x_min":31,"x_max":569,"o":"m 104 442 l 451 442 l 451 343 l 104 343 l 104 442 m 194 556 l 31 556 l 31 696 l 556 696 l 556 557 l 344 557 l 344 238 q 374 168 344 197 q 444 139 403 139 l 569 139 l 569 0 l 436 0 q 315 31 371 0 q 227 117 260 63 q 194 238 194 171 l 194 556 m 194 696 l 194 900 l 344 900 l 344 696 l 194 696 z "},"ť":{"ha":619,"x_min":18,"x_max":569,"o":"m 194 556 l 31 556 l 31 696 l 556 696 l 556 557 l 344 557 l 344 238 q 374 168 344 197 q 444 139 403 139 l 569 139 l 569 0 l 436 0 q 315 31 371 0 q 227 117 260 63 q 194 238 194 171 l 194 556 m 194 696 l 194 900 l 344 900 l 344 696 l 194 696 m 349 1038 l 192 1038 l 18 1225 l 135 1225 l 271 1107 l 406 1225 l 522 1225 l 349 1038 z "},"ţ":{"ha":619,"x_min":31,"x_max":569,"o":"m 194 556 l 31 556 l 31 696 l 556 696 l 556 557 l 344 557 l 344 238 q 374 168 344 197 q 444 139 403 139 l 569 139 l 569 0 l 436 0 q 315 31 371 0 q 227 117 260 63 q 194 238 194 171 l 194 556 m 194 696 l 194 900 l 344 900 l 344 696 l 194 696 m 243 -306 l 263 -225 l 358 -226 q 410 -212 393 -226 q 428 -169 428 -197 q 411 -129 428 -144 q 364 -114 394 -114 l 307 -114 l 342 22 l 438 22 l 417 -64 q 503 -99 472 -69 q 533 -174 533 -129 q 483 -269 533 -233 q 351 -306 433 -306 l 243 -306 z "},"ț":{"ha":619,"x_min":31,"x_max":569,"o":"m 194 556 l 31 556 l 31 696 l 556 696 l 556 557 l 344 557 l 344 238 q 374 168 344 197 q 444 139 403 139 l 569 139 l 569 0 l 436 0 q 315 31 371 0 q 227 117 260 63 q 194 238 194 171 l 194 556 m 194 696 l 194 900 l 344 900 l 344 696 l 194 696 m 250 -515 q 326 -392 297 -449 q 360 -326 354 -336 q 303 -303 331 -329 q 276 -240 276 -276 q 306 -169 276 -199 q 378 -139 335 -139 q 449 -169 421 -139 q 476 -242 476 -199 q 335 -571 476 -376 l 250 -515 z "},"ú":{"ha":790,"x_min":53,"x_max":706,"o":"m 354 -12 q 201 31 269 -12 q 92 147 132 74 q 53 308 53 221 l 53 696 l 204 696 l 204 313 q 256 188 204 239 q 381 136 307 136 q 467 160 426 136 q 531 224 507 183 q 554 313 554 265 l 635 313 q 601 154 635 229 q 503 33 567 79 q 354 -12 439 -12 m 579 171 l 554 181 l 554 696 l 706 696 l 706 0 l 579 0 l 579 171 m 490 1019 l 647 1019 l 442 832 l 301 832 l 490 1019 z "},"û":{"ha":790,"x_min":53,"x_max":706,"o":"m 354 -12 q 201 31 269 -12 q 92 147 132 74 q 53 308 53 221 l 53 696 l 204 696 l 204 313 q 256 188 204 239 q 381 136 307 136 q 467 160 426 136 q 531 224 507 183 q 554 313 554 265 l 635 313 q 601 154 635 229 q 503 33 567 79 q 354 -12 439 -12 m 579 171 l 554 181 l 554 696 l 706 696 l 706 0 l 579 0 l 579 171 m 393 953 l 257 835 l 140 835 l 314 1022 l 471 1022 l 644 835 l 528 835 l 393 953 z "},"ü":{"ha":790,"x_min":53,"x_max":706,"o":"m 354 -12 q 201 31 269 -12 q 92 147 132 74 q 53 308 53 221 l 53 696 l 204 696 l 204 313 q 256 188 204 239 q 381 136 307 136 q 467 160 426 136 q 531 224 507 183 q 554 313 554 265 l 635 313 q 601 154 635 229 q 503 33 567 79 q 354 -12 439 -12 m 579 171 l 554 181 l 554 696 l 706 696 l 706 0 l 579 0 l 579 171 m 282 832 q 222 856 247 832 q 197 915 197 881 q 222 974 197 950 q 282 999 247 999 q 341 974 317 999 q 365 915 365 950 q 341 856 365 881 q 282 832 317 832 m 483 832 q 424 856 449 832 q 400 915 400 881 q 424 974 400 950 q 483 999 449 999 q 542 974 518 999 q 567 915 567 950 q 542 856 567 881 q 483 832 518 832 z "},"ù":{"ha":790,"x_min":53,"x_max":706,"o":"m 354 -12 q 201 31 269 -12 q 92 147 132 74 q 53 308 53 221 l 53 696 l 204 696 l 204 313 q 256 188 204 239 q 381 136 307 136 q 467 160 426 136 q 531 224 507 183 q 554 313 554 265 l 635 313 q 601 154 635 229 q 503 33 567 79 q 354 -12 439 -12 m 579 171 l 554 181 l 554 696 l 706 696 l 706 0 l 579 0 l 579 171 m 101 1021 l 258 1021 l 447 833 l 308 833 l 101 1021 z "},"ű":{"ha":790,"x_min":53,"x_max":735,"o":"m 354 -12 q 201 31 269 -12 q 92 147 132 74 q 53 308 53 221 l 53 696 l 204 696 l 204 313 q 256 188 204 239 q 381 136 307 136 q 467 160 426 136 q 531 224 507 183 q 554 313 554 265 l 635 313 q 601 154 635 229 q 503 33 567 79 q 354 -12 439 -12 m 579 171 l 554 181 l 554 696 l 706 696 l 706 0 l 579 0 l 579 171 m 583 1021 l 735 1021 l 551 833 l 414 833 l 583 1021 m 331 1021 l 483 1021 l 299 833 l 161 833 l 331 1021 z "},"ū":{"ha":790,"x_min":53,"x_max":706,"o":"m 354 -12 q 201 31 269 -12 q 92 147 132 74 q 53 308 53 221 l 53 696 l 204 696 l 204 313 q 256 188 204 239 q 381 136 307 136 q 467 160 426 136 q 531 224 507 183 q 554 313 554 265 l 635 313 q 601 154 635 229 q 503 33 567 79 q 354 -12 439 -12 m 579 171 l 554 181 l 554 696 l 706 696 l 706 0 l 579 0 l 579 171 m 582 833 l 182 833 l 182 931 l 582 931 l 582 833 z "},"ų":{"ha":790,"x_min":53,"x_max":707,"o":"m 354 -12 q 201 31 269 -12 q 92 147 132 74 q 53 308 53 221 l 53 696 l 204 696 l 204 313 q 256 188 204 239 q 381 136 307 136 q 467 160 426 136 q 531 224 507 183 q 554 313 554 265 l 635 313 q 601 154 635 229 q 503 33 567 79 q 354 -12 439 -12 m 579 171 l 554 181 l 554 696 l 706 696 l 706 0 l 579 0 l 579 171 m 604 -315 q 477 -276 524 -315 q 431 -171 431 -237 q 485 -48 431 -103 q 642 46 539 7 l 706 0 q 579 -75 621 -36 q 538 -157 538 -114 q 560 -210 538 -190 q 624 -229 582 -229 l 707 -229 l 707 -315 l 604 -315 z "},"ů":{"ha":790,"x_min":53,"x_max":706,"o":"m 354 -12 q 201 31 269 -12 q 92 147 132 74 q 53 308 53 221 l 53 696 l 204 696 l 204 313 q 256 188 204 239 q 381 136 307 136 q 467 160 426 136 q 531 224 507 183 q 554 313 554 265 l 635 313 q 601 154 635 229 q 503 33 567 79 q 354 -12 439 -12 m 579 171 l 554 181 l 554 696 l 706 696 l 706 0 l 579 0 l 579 171 m 375 833 q 260 878 307 833 q 213 989 213 924 q 260 1101 213 1054 q 375 1147 307 1147 q 490 1101 443 1147 q 536 989 536 1054 q 490 878 536 924 q 375 833 443 833 m 375 903 q 438 927 413 903 q 463 989 463 951 q 437 1052 463 1026 q 375 1078 411 1078 q 313 1053 338 1078 q 288 989 288 1028 q 312 927 288 951 q 375 903 336 903 z "},"ẃ":{"ha":986,"x_min":14,"x_max":974,"o":"m 14 696 l 160 696 l 260 214 l 432 654 l 563 654 l 735 214 l 828 696 l 974 696 l 843 0 l 682 0 l 497 454 l 314 0 l 154 0 l 14 696 m 611 981 l 768 981 l 563 793 l 422 793 l 611 981 z "},"ŵ":{"ha":986,"x_min":14,"x_max":974,"o":"m 14 696 l 160 696 l 260 214 l 432 654 l 563 654 l 735 214 l 828 696 l 974 696 l 843 0 l 682 0 l 497 454 l 314 0 l 154 0 l 14 696 m 497 911 l 361 793 l 244 793 l 418 981 l 575 981 l 749 793 l 632 793 l 497 911 z "},"ẅ":{"ha":986,"x_min":14,"x_max":974,"o":"m 14 696 l 160 696 l 260 214 l 432 654 l 563 654 l 735 214 l 828 696 l 974 696 l 843 0 l 682 0 l 497 454 l 314 0 l 154 0 l 14 696 m 400 792 q 340 816 365 792 q 315 875 315 840 q 340 934 315 910 q 400 958 365 958 q 459 934 435 958 q 483 875 483 910 q 459 816 483 840 q 400 792 435 792 m 601 792 q 542 816 567 792 q 518 875 518 840 q 542 934 518 910 q 601 958 567 958 q 660 934 636 958 q 685 875 685 910 q 660 816 685 840 q 601 792 636 792 z "},"ẁ":{"ha":986,"x_min":14,"x_max":974,"o":"m 14 696 l 160 696 l 260 214 l 432 654 l 563 654 l 735 214 l 828 696 l 974 696 l 843 0 l 682 0 l 497 454 l 314 0 l 154 0 l 14 696 m 219 979 l 376 979 l 565 792 l 426 792 l 219 979 z "},"ý":{"ha":758,"x_min":18,"x_max":728,"o":"m 60 -181 l 168 -181 q 247 -158 214 -181 q 296 -93 281 -135 l 574 696 l 728 696 l 439 -124 q 344 -269 414 -214 q 176 -325 274 -325 l 60 -325 l 60 -181 m 18 696 l 172 696 l 403 0 l 250 0 l 18 696 m 486 1022 l 643 1022 l 438 835 l 297 835 l 486 1022 z "},"ŷ":{"ha":758,"x_min":18,"x_max":728,"o":"m 60 -181 l 168 -181 q 247 -158 214 -181 q 296 -93 281 -135 l 574 696 l 728 696 l 439 -124 q 344 -269 414 -214 q 176 -325 274 -325 l 60 -325 l 60 -181 m 18 696 l 172 696 l 403 0 l 250 0 l 18 696 m 381 953 l 244 835 l 128 835 l 301 1022 l 458 1022 l 632 835 l 515 835 l 381 953 z "},"ÿ":{"ha":758,"x_min":18,"x_max":728,"o":"m 60 -181 l 168 -181 q 247 -158 214 -181 q 296 -93 281 -135 l 574 696 l 728 696 l 439 -124 q 344 -269 414 -214 q 176 -325 274 -325 l 60 -325 l 60 -181 m 18 696 l 172 696 l 403 0 l 250 0 l 18 696 m 275 833 q 215 858 240 833 q 190 917 190 882 q 215 976 190 951 q 275 1000 240 1000 q 334 976 310 1000 q 358 917 358 951 q 334 858 358 882 q 275 833 310 833 m 476 833 q 417 858 442 833 q 393 917 393 882 q 417 976 393 951 q 476 1000 442 1000 q 535 976 511 1000 q 560 917 560 951 q 535 858 560 882 q 476 833 511 833 z "},"ỳ":{"ha":758,"x_min":18,"x_max":728,"o":"m 60 -181 l 168 -181 q 247 -158 214 -181 q 296 -93 281 -135 l 574 696 l 728 696 l 439 -124 q 344 -269 414 -214 q 176 -325 274 -325 l 60 -325 l 60 -181 m 18 696 l 172 696 l 403 0 l 250 0 l 18 696 m 119 1022 l 276 1022 l 465 835 l 326 835 l 119 1022 z "},"ź":{"ha":683,"x_min":49,"x_max":635,"o":"m 635 0 l 49 0 l 49 144 l 428 557 l 51 557 l 51 696 l 629 696 l 629 550 l 254 139 l 635 139 l 635 0 m 435 1021 l 592 1021 l 386 833 l 246 833 l 435 1021 z "},"ž":{"ha":683,"x_min":49,"x_max":635,"o":"m 635 0 l 49 0 l 49 144 l 428 557 l 51 557 l 51 696 l 629 696 l 629 550 l 254 139 l 635 139 l 635 0 m 426 833 l 269 833 l 96 1021 l 213 1021 l 349 903 l 483 1021 l 600 1021 l 426 833 z "},"ż":{"ha":683,"x_min":49,"x_max":635,"o":"m 635 0 l 49 0 l 49 144 l 428 557 l 51 557 l 51 696 l 629 696 l 629 550 l 254 139 l 635 139 l 635 0 m 343 832 q 283 856 308 832 q 258 915 258 881 q 283 974 258 950 q 343 999 308 999 q 402 974 378 999 q 426 915 426 950 q 402 856 426 881 q 343 832 378 832 z "},"ء":{"ha":724,"x_min":64,"x_max":664,"o":"m 460 168 q 360 150 411 150 q 250 181 297 150 q 181 271 203 211 q 168 343 168 308 q 208 460 168 408 q 317 536 247 511 l 463 589 l 511 454 l 369 403 q 330 372 344 393 q 315 326 315 351 q 338 269 315 292 q 394 246 361 246 q 425 251 410 246 l 615 321 l 638 233 l 460 168 m 64 119 l 615 321 l 664 186 l 111 -17 l 64 119 z "},"ا":{"ha":300,"x_min":86,"x_max":229,"o":"m 86 922 l 229 922 l 229 0 l 86 0 l 86 922 z "},"ﺎ":{"ha":396,"x_min":86,"x_max":410,"o":"m 328 0 q 206 33 261 0 q 118 121 150 65 q 86 243 86 176 l 86 922 l 229 922 l 229 251 q 258 181 229 210 q 328 151 288 151 l 396 151 q 410 138 410 151 l 410 14 q 396 0 410 0 l 328 0 z "},"أ":{"ha":301,"x_min":-83,"x_max":344,"o":"m 86 844 l 229 844 l 229 0 l 86 0 l 86 844 m -83 976 l 50 1026 q 17 1051 33 1035 q -8 1092 0 1068 q -17 1136 -17 1113 q 13 1224 -17 1183 q 93 1283 43 1265 l 193 1318 l 231 1215 l 142 1182 q 113 1160 124 1175 q 103 1128 103 1146 q 120 1086 103 1103 q 163 1069 138 1069 q 186 1074 174 1069 l 307 1118 l 344 1015 l -46 872 l -83 976 z "},"ﺄ":{"ha":396,"x_min":-35,"x_max":410,"o":"m 328 0 q 206 33 261 0 q 118 121 150 65 q 86 243 86 176 l 86 844 l 229 844 l 229 251 q 258 181 229 210 q 328 151 288 151 l 396 151 q 410 138 410 151 l 410 14 q 396 0 410 0 l 328 0 m -35 976 l 99 1026 q 65 1051 82 1035 q 40 1092 49 1068 q 32 1136 32 1113 q 62 1224 32 1183 q 142 1283 92 1265 l 242 1318 l 279 1215 l 190 1182 q 162 1160 172 1175 q 151 1128 151 1146 q 169 1086 151 1103 q 211 1069 186 1069 q 235 1074 222 1069 l 356 1118 l 393 1015 l 3 872 l -35 976 z "},"إ":{"ha":300,"x_min":-60,"x_max":368,"o":"m -60 -417 l 74 -367 q 40 -342 57 -358 q 14 -301 24 -325 q 7 -256 7 -276 q 36 -168 7 -208 q 117 -110 65 -128 l 217 -74 l 254 -178 l 164 -211 q 137 -232 147 -217 q 126 -264 126 -247 q 144 -307 126 -290 q 186 -324 161 -324 q 210 -319 197 -324 l 331 -275 l 368 -378 l -22 -521 l -60 -417 m 86 922 l 229 922 l 229 0 l 86 0 l 86 922 z "},"ﺈ":{"ha":396,"x_min":-25,"x_max":410,"o":"m 328 0 q 206 33 261 0 q 118 121 150 65 q 86 243 86 176 l 86 922 l 229 922 l 229 251 q 258 181 229 210 q 328 151 288 151 l 396 151 q 410 138 410 151 l 410 14 q 396 0 410 0 l 328 0 m -25 -417 l 108 -367 q 75 -342 92 -358 q 49 -301 58 -325 q 42 -256 42 -276 q 71 -168 42 -208 q 150 -110 100 -128 l 251 -74 l 289 -178 l 199 -211 q 172 -232 182 -217 q 161 -264 161 -247 q 178 -307 161 -290 q 221 -324 196 -324 q 244 -319 232 -324 l 365 -275 l 403 -378 l 11 -521 l -25 -417 z "},"آ":{"ha":290,"x_min":-83,"x_max":338,"o":"m 83 844 l 226 844 l 226 0 l 83 0 l 83 844 m -83 946 q -49 1033 -83 1000 q 38 1067 -14 1067 l 338 1067 l 338 956 l 53 956 q 25 945 36 956 q 14 917 14 935 l 14 856 l -83 856 l -83 946 z "},"ﺂ":{"ha":396,"x_min":-83,"x_max":410,"o":"m 328 0 q 206 33 261 0 q 118 121 150 65 q 86 243 86 176 l 86 844 l 229 844 l 229 251 q 258 181 229 210 q 328 151 288 151 l 396 151 q 410 138 410 151 l 410 14 q 396 0 410 0 l 328 0 m -83 946 q -49 1033 -83 1000 q 38 1067 -14 1067 l 338 1067 l 338 956 l 53 956 q 25 945 36 956 q 14 917 14 935 l 14 856 l -83 856 l -83 946 z "},"ٱ":{"ha":300,"x_min":-135,"x_max":410,"o":"m 83 844 l 226 844 l 226 0 l 83 0 l 83 844 m 150 893 q 63 930 99 893 q 28 1019 28 967 l 28 1058 l 104 1065 l 107 1026 q 123 1001 110 1013 q 154 990 136 990 l 267 990 q 301 1004 286 990 q 315 1039 315 1018 q 302 1077 315 1063 q 264 1092 289 1092 q 242 1085 254 1092 q 211 1068 229 1079 l 65 981 l 32 1068 l 181 1158 q 221 1177 201 1171 q 267 1183 240 1183 q 368 1142 326 1183 q 410 1040 410 1100 q 368 936 410 979 q 267 893 326 893 l 150 893 m -135 1047 l 53 1158 l 97 1079 l 103 1068 l -83 958 l -135 1047 z "},"ﭑ":{"ha":396,"x_min":-135,"x_max":410,"o":"m 328 0 q 206 33 261 0 q 118 121 150 65 q 86 243 86 176 l 86 844 l 229 844 l 229 251 q 258 181 229 210 q 328 151 288 151 l 396 151 q 410 138 410 151 l 410 14 q 396 0 410 0 l 328 0 m -135 1047 l 53 1158 l 97 1079 l 103 1068 l -83 958 l -135 1047 m 150 893 q 63 930 99 893 q 28 1019 28 967 l 28 1054 l 104 1065 l 104 1033 q 120 1005 104 1019 q 154 990 136 990 l 267 990 q 301 1004 286 990 q 315 1039 315 1018 q 302 1077 315 1063 q 264 1092 289 1092 q 242 1085 254 1092 q 211 1068 229 1079 l 65 981 l 32 1068 l 181 1158 q 221 1177 201 1171 q 267 1183 240 1183 q 368 1142 326 1183 q 410 1040 410 1100 q 368 936 410 979 q 267 893 326 893 l 150 893 z "},"ٮ":{"ha":1207,"x_min":86,"x_max":1149,"o":"m 410 0 q 248 44 322 0 q 130 162 174 88 q 86 324 86 236 l 86 474 l 229 474 l 229 331 q 253 241 229 282 q 319 176 278 200 q 410 151 361 151 l 875 151 q 968 189 931 151 q 1006 282 1006 226 l 1006 474 l 1149 474 l 1149 282 q 1113 141 1149 206 q 1014 38 1076 76 q 875 0 951 0 l 410 0 z "},"ب":{"ha":1207,"x_min":86,"x_max":1149,"o":"m 410 0 q 248 44 322 0 q 130 162 174 88 q 86 324 86 236 l 86 474 l 229 474 l 229 331 q 253 241 229 282 q 319 176 278 200 q 410 151 361 151 l 875 151 q 968 189 931 151 q 1006 282 1006 226 l 1006 474 l 1149 474 l 1149 282 q 1113 141 1149 206 q 1014 38 1076 76 q 875 0 951 0 l 410 0 m 717 -267 l 575 -267 l 575 -125 l 717 -125 l 717 -267 z "},"ﺐ":{"ha":1310,"x_min":86,"x_max":1324,"o":"m 410 0 q 248 44 322 0 q 130 162 174 88 q 86 324 86 236 l 86 474 l 229 474 l 229 331 q 253 241 229 282 q 319 176 278 200 q 410 151 361 151 l 875 151 q 968 189 931 151 q 1006 282 1006 226 l 1006 474 l 1149 474 l 1149 250 q 1177 180 1149 208 q 1247 151 1206 151 l 1310 151 q 1324 138 1324 151 l 1324 14 q 1310 0 1324 0 l 1247 0 q 1142 26 1188 0 q 1069 100 1097 53 q 988 26 1038 53 q 875 0 938 0 l 410 0 m 582 -125 l 724 -125 l 724 -267 l 582 -267 l 582 -125 z "},"ﺒ":{"ha":465,"x_min":-14,"x_max":479,"o":"m 0 0 q -14 14 -14 0 l -14 138 q 0 151 -14 151 l 63 151 q 132 180 103 151 q 161 250 161 208 l 161 474 l 304 474 l 304 250 q 333 180 304 208 q 403 151 363 151 l 465 151 q 479 138 479 151 l 479 14 q 465 0 479 0 l 403 0 q 303 24 347 0 q 232 89 260 47 q 162 24 206 47 q 63 0 118 0 l 0 0 m 163 -124 l 304 -124 l 304 -265 l 163 -265 l 163 -124 z "},"ﺑ":{"ha":369,"x_min":-14,"x_max":310,"o":"m 0 0 q -14 14 -14 0 l -14 138 q 0 151 -14 151 l 68 151 q 138 181 108 151 q 167 251 167 210 l 167 515 l 310 515 l 310 243 q 278 121 310 176 q 190 33 246 65 q 68 0 135 0 l 0 0 m 0 -125 l 142 -125 l 142 -267 l 0 -267 l 0 -125 z "},"پ":{"ha":1207,"x_min":86,"x_max":1149,"o":"m 410 0 q 248 44 322 0 q 130 162 174 88 q 86 324 86 236 l 86 474 l 229 474 l 229 331 q 253 241 229 282 q 319 176 278 200 q 410 151 361 151 l 875 151 q 968 189 931 151 q 1006 282 1006 226 l 1006 474 l 1149 474 l 1149 282 q 1113 141 1149 206 q 1014 38 1076 76 q 875 0 951 0 l 410 0 m 575 -339 l 717 -339 l 717 -479 l 575 -479 l 575 -339 m 468 -125 l 608 -125 l 608 -267 l 468 -267 l 468 -125 m 681 -125 l 822 -125 l 822 -267 l 681 -267 l 681 -125 z "},"ﭗ":{"ha":1310,"x_min":86,"x_max":1324,"o":"m 410 0 q 248 44 322 0 q 130 162 174 88 q 86 324 86 236 l 86 474 l 229 474 l 229 331 q 253 241 229 282 q 319 176 278 200 q 410 151 361 151 l 875 151 q 968 189 931 151 q 1006 282 1006 226 l 1006 474 l 1122 474 l 1122 282 q 1092 140 1122 204 q 1006 38 1063 75 q 875 0 950 0 l 410 0 m 575 -339 l 717 -339 l 717 -479 l 575 -479 l 575 -339 m 468 -125 l 608 -125 l 608 -267 l 468 -267 l 468 -125 m 681 -125 l 822 -125 l 822 -267 l 681 -267 l 681 -125 m 1247 0 q 1091 69 1149 0 q 1033 242 1033 139 l 1033 474 l 1149 474 l 1149 250 q 1177 180 1149 208 q 1247 151 1206 151 l 1310 151 q 1324 138 1324 151 l 1324 14 q 1310 0 1324 0 l 1247 0 z "},"ﭙ":{"ha":508,"x_min":-14,"x_max":522,"o":"m -14 138 q 0 151 -14 151 l 83 151 q 153 180 124 151 q 182 250 182 208 l 182 474 l 325 474 l 325 250 q 354 180 325 208 q 424 151 383 151 l 508 151 q 522 138 522 151 l 522 14 q 508 0 522 0 l 424 0 q 326 24 369 0 q 254 89 282 47 q 183 24 226 47 q 83 0 139 0 l 0 0 q -14 14 -14 0 l -14 138 m 182 -339 l 324 -339 l 324 -479 l 182 -479 l 182 -339 m 75 -125 l 217 -125 l 217 -267 l 75 -267 l 75 -125 m 289 -125 l 429 -125 l 429 -267 l 289 -267 l 289 -125 z "},"ﭘ":{"ha":426,"x_min":-14,"x_max":360,"o":"m 0 0 q -14 14 -14 0 l -14 138 q 0 151 -14 151 l 118 151 q 188 181 160 151 q 217 251 217 210 l 217 515 l 360 515 l 360 243 q 328 121 360 176 q 240 33 296 65 q 118 0 185 0 l 0 0 m 108 -339 l 249 -339 l 249 -479 l 108 -479 l 108 -339 m 0 -125 l 142 -125 l 142 -267 l 0 -267 l 0 -125 m 214 -125 l 354 -125 l 354 -267 l 214 -267 l 214 -125 z "},"ت":{"ha":1207,"x_min":86,"x_max":1149,"o":"m 410 0 q 248 44 322 0 q 130 162 174 88 q 86 324 86 236 l 86 474 l 229 474 l 229 331 q 253 241 229 282 q 319 176 278 200 q 410 151 361 151 l 875 151 q 968 189 931 151 q 1006 282 1006 226 l 1006 474 l 1149 474 l 1149 282 q 1113 141 1149 206 q 1014 38 1076 76 q 875 0 951 0 l 410 0 m 442 614 l 583 614 l 583 474 l 442 474 l 442 614 m 656 614 l 797 614 l 797 474 l 656 474 l 656 614 z "},"ﺖ":{"ha":1310,"x_min":86,"x_max":1324,"o":"m 86 474 l 229 474 l 229 331 q 253 241 229 282 q 319 176 278 200 q 410 151 361 151 l 875 151 q 968 189 931 151 q 1006 282 1006 226 l 1006 474 l 1149 474 l 1149 250 q 1177 180 1149 208 q 1247 151 1206 151 l 1310 151 q 1324 138 1324 151 l 1324 14 q 1310 0 1324 0 l 1247 0 q 1142 26 1188 0 q 1069 100 1097 53 q 988 26 1038 53 q 875 0 938 0 l 410 0 q 248 44 322 0 q 130 162 174 88 q 86 324 86 236 l 86 474 m 442 614 l 583 614 l 583 474 l 442 474 l 442 614 m 656 614 l 797 614 l 797 474 l 656 474 l 656 614 z "},"ﺘ":{"ha":508,"x_min":-14,"x_max":522,"o":"m -14 138 q 0 151 -14 151 l 83 151 q 153 180 124 151 q 182 250 182 208 l 182 474 l 325 474 l 325 250 q 354 180 325 208 q 424 151 383 151 l 508 151 q 522 138 522 151 l 522 14 q 508 0 522 0 l 424 0 q 326 24 369 0 q 254 89 282 47 q 183 24 226 47 q 83 0 139 0 l 0 0 q -14 14 -14 0 l -14 138 m 78 743 l 218 743 l 218 603 l 78 603 l 78 743 m 290 743 l 432 743 l 432 603 l 290 603 l 290 743 z "},"ﺗ":{"ha":419,"x_min":-14,"x_max":360,"o":"m 0 0 q -14 14 -14 0 l -14 138 q 0 151 -14 151 l 118 151 q 188 181 160 151 q 217 251 217 210 l 217 515 l 360 515 l 360 243 q 328 121 360 176 q 240 33 296 65 q 118 0 185 0 l 0 0 m 3 783 l 144 783 l 144 643 l 3 643 l 3 783 m 217 783 l 357 783 l 357 643 l 217 643 l 217 783 z "},"ث":{"ha":1207,"x_min":86,"x_max":1149,"o":"m 410 0 q 248 44 322 0 q 130 162 174 88 q 86 324 86 236 l 86 474 l 229 474 l 229 331 q 253 241 229 282 q 319 176 278 200 q 410 151 361 151 l 875 151 q 968 189 931 151 q 1006 282 1006 226 l 1006 474 l 1149 474 l 1149 282 q 1113 141 1149 206 q 1014 38 1076 76 q 875 0 951 0 l 410 0 m 582 614 l 582 474 l 442 474 l 442 614 l 582 614 m 796 614 l 796 474 l 654 474 l 654 614 l 796 614 m 690 828 l 690 688 l 549 688 l 549 828 l 690 828 z "},"ﺚ":{"ha":1310,"x_min":86,"x_max":1324,"o":"m 410 0 q 248 44 322 0 q 130 162 174 88 q 86 324 86 236 l 86 474 l 229 474 l 229 331 q 253 241 229 282 q 319 176 278 200 q 410 151 361 151 l 875 151 q 968 189 931 151 q 1006 282 1006 226 l 1006 474 l 1122 474 l 1122 282 q 1092 140 1122 204 q 1006 38 1063 75 q 875 0 950 0 l 410 0 m 1247 0 q 1091 69 1149 0 q 1033 242 1033 139 l 1033 474 l 1149 474 l 1149 250 q 1177 180 1149 208 q 1247 151 1206 151 l 1310 151 q 1324 138 1324 151 l 1324 14 q 1310 0 1324 0 l 1247 0 m 442 614 l 583 614 l 583 474 l 442 474 l 442 614 m 656 614 l 797 614 l 797 474 l 656 474 l 656 614 m 549 828 l 690 828 l 690 688 l 549 688 l 549 828 z "},"ﺜ":{"ha":508,"x_min":-14,"x_max":522,"o":"m 0 0 q -14 14 -14 0 l -14 138 q 0 151 -14 151 l 83 151 q 153 180 124 151 q 182 250 182 208 l 182 474 l 325 474 l 325 250 q 354 180 325 208 q 424 151 383 151 l 508 151 q 522 138 522 151 l 522 14 q 508 0 522 0 l 424 0 q 324 26 368 0 q 254 96 279 51 q 183 26 228 51 q 83 0 139 0 l 0 0 m 75 742 l 217 742 l 217 601 l 75 601 l 75 742 m 289 742 l 431 742 l 431 601 l 289 601 l 289 742 m 182 956 l 324 956 l 324 815 l 182 815 l 182 956 z "},"ﺛ":{"ha":419,"x_min":-14,"x_max":360,"o":"m 0 0 q -14 14 -14 0 l -14 138 q 0 151 -14 151 l 118 151 q 188 181 160 151 q 217 251 217 210 l 217 515 l 360 515 l 360 243 q 328 121 360 176 q 240 33 296 65 q 118 0 185 0 l 0 0 m 3 783 l 144 783 l 144 643 l 3 643 l 3 783 m 217 783 l 357 783 l 357 643 l 217 643 l 217 783 m 110 997 l 251 997 l 251 856 l 110 856 l 110 997 z "},"ٹ":{"ha":1207,"x_min":88,"x_max":1149,"o":"m 410 0 q 248 44 322 0 q 131 161 174 88 q 88 324 88 235 l 88 474 l 231 474 l 231 331 q 255 241 231 282 q 320 176 279 200 q 410 151 361 151 l 876 151 q 969 189 932 151 q 1006 282 1006 226 l 1006 474 l 1149 474 l 1149 282 q 1113 140 1149 206 q 1015 38 1078 75 q 876 0 953 0 l 410 0 m 472 569 l 678 569 q 712 584 697 569 q 726 618 726 599 q 713 657 726 642 q 675 672 700 672 q 652 666 665 672 q 621 647 639 660 l 476 560 l 443 649 l 592 739 q 632 758 613 751 q 678 764 651 764 q 778 722 736 764 q 821 619 821 679 q 779 516 821 558 q 678 474 738 474 l 472 474 l 472 569 m 481 671 q 510 769 510 690 l 510 881 l 608 881 l 608 792 l 608 849 q 597 769 608 804 q 567 721 585 733 l 481 671 z "},"ﭧ":{"ha":1310,"x_min":86,"x_max":1324,"o":"m 410 0 q 248 44 322 0 q 130 162 174 88 q 86 324 86 236 l 86 474 l 229 474 l 229 331 q 253 241 229 282 q 319 176 278 200 q 410 151 361 151 l 875 151 q 968 189 931 151 q 1006 282 1006 226 l 1006 474 l 1122 474 l 1122 282 q 1092 140 1122 204 q 1006 38 1063 75 q 875 0 950 0 l 410 0 m 1247 0 q 1091 69 1149 0 q 1033 242 1033 139 l 1033 474 l 1149 474 l 1149 250 q 1177 180 1149 208 q 1247 151 1206 151 l 1310 151 q 1324 138 1324 151 l 1324 14 q 1310 0 1324 0 l 1247 0 m 465 574 l 671 574 q 705 588 690 574 q 719 622 719 603 q 706 661 719 646 q 668 676 693 676 q 645 670 658 676 q 614 651 632 664 l 469 564 l 436 653 l 585 743 q 625 762 606 756 q 671 768 644 768 q 772 726 729 768 q 814 624 814 683 q 772 520 814 563 q 671 478 731 478 l 465 478 l 465 574 m 474 675 q 503 774 503 694 l 503 885 l 601 885 l 601 796 l 601 853 q 590 773 601 808 q 560 725 578 738 l 474 675 z "},"ﭩ":{"ha":479,"x_min":-14,"x_max":493,"o":"m -14 138 q 0 151 -14 151 l 69 151 q 139 180 110 151 q 168 250 168 208 l 168 474 l 311 474 l 311 250 q 340 180 311 208 q 410 151 369 151 l 479 151 q 493 138 493 151 l 493 14 q 479 0 493 0 l 410 0 q 309 26 354 0 q 239 96 264 53 q 169 26 214 51 q 69 0 125 0 l 0 0 q -14 14 -14 0 l -14 138 m 99 708 l 304 708 q 338 723 324 708 q 353 757 353 738 q 340 796 353 781 q 303 811 326 811 q 282 806 293 811 q 249 786 271 800 l 104 699 l 71 788 l 219 878 q 258 897 239 890 q 304 903 278 903 q 406 860 364 903 q 449 758 449 818 q 407 655 449 697 q 304 613 365 613 l 99 613 l 99 708 m 108 810 q 130 845 124 821 q 136 908 136 869 l 136 1019 l 236 1019 l 236 931 l 236 988 q 224 907 236 942 q 193 860 213 872 l 108 810 z "},"ﭨ":{"ha":369,"x_min":-24,"x_max":354,"o":"m 0 0 q -14 14 -14 0 l -14 138 q 0 151 -14 151 l 68 151 q 138 181 108 151 q 167 251 167 210 l 167 515 l 310 515 l 310 243 q 278 121 310 176 q 190 33 246 65 q 68 0 135 0 l 0 0 m 6 751 l 211 751 q 245 765 231 751 q 260 800 260 779 q 247 838 260 824 q 208 853 233 853 q 186 847 199 853 q 156 829 174 840 l 10 742 l -24 829 l 125 919 q 165 938 146 932 q 211 944 185 944 q 313 903 271 944 q 354 801 354 861 q 313 697 354 740 q 211 654 271 654 l 6 654 l 6 751 m 14 853 q 43 951 43 872 l 43 1063 l 142 1063 l 142 972 l 142 1031 q 130 949 142 985 q 100 903 118 914 l 14 853 z "},"ݖ":{"ha":1207,"x_min":86,"x_max":1149,"o":"m 410 0 q 248 44 322 0 q 130 162 174 88 q 86 324 86 236 l 86 474 l 229 474 l 229 331 q 253 241 229 282 q 319 176 278 200 q 410 151 361 151 l 875 151 q 968 189 931 151 q 1006 282 1006 226 l 1006 474 l 1149 474 l 1149 282 q 1113 141 1149 206 q 1014 38 1076 76 q 875 0 951 0 l 410 0 m 572 485 q 535 606 572 572 q 419 644 497 639 l 419 753 q 566 716 515 751 q 618 610 617 681 q 672 716 621 681 q 818 753 724 751 l 818 644 q 704 606 742 639 q 667 485 667 572 l 572 485 z "},"ࢠ":{"ha":1207,"x_min":86,"x_max":1149,"o":"m 410 0 q 248 44 322 0 q 130 162 174 88 q 86 324 86 236 l 86 474 l 229 474 l 229 331 q 253 241 229 282 q 319 176 278 200 q 410 151 361 151 l 875 151 q 968 189 931 151 q 1006 282 1006 226 l 1006 474 l 1149 474 l 1149 282 q 1113 141 1149 206 q 1014 38 1076 76 q 875 0 951 0 l 410 0 m 590 -407 q 553 -286 590 -319 q 438 -247 515 -253 l 438 -137 q 584 -174 533 -139 q 636 -281 635 -210 q 690 -174 639 -210 q 836 -137 742 -139 l 836 -247 q 722 -286 758 -253 q 685 -407 685 -319 l 590 -407 z "},"ج":{"ha":971,"x_min":90,"x_max":911,"o":"m 415 -454 q 256 -410 329 -454 q 139 -293 182 -367 q 96 -135 96 -219 q 127 1 96 -64 q 214 110 158 65 l 615 407 l 418 500 q 393 510 407 506 q 365 515 379 515 q 323 505 344 515 q 283 478 301 494 l 190 374 l 90 460 l 185 574 q 265 635 218 614 q 365 656 313 656 q 425 648 401 656 q 474 628 449 640 l 775 486 q 800 482 786 482 l 911 482 l 911 343 l 765 343 l 314 11 q 247 -133 247 -46 q 272 -222 247 -181 q 337 -287 296 -262 q 426 -311 378 -311 l 831 -311 l 831 -454 l 415 -454 m 526 -10 l 668 -10 l 668 -150 l 526 -150 l 526 -10 z "},"ﺞ":{"ha":976,"x_min":90,"x_max":990,"o":"m 415 -454 q 256 -410 329 -454 q 139 -293 182 -367 q 96 -135 96 -219 q 127 1 96 -64 q 214 110 158 65 l 615 407 l 418 500 q 393 510 407 506 q 365 515 379 515 q 323 505 344 515 q 283 478 301 494 l 190 374 l 90 460 l 185 574 q 265 635 218 614 q 365 656 313 656 q 425 648 401 656 q 474 628 449 640 l 775 486 q 800 482 786 482 l 911 482 l 911 343 l 764 343 l 714 306 l 714 250 q 742 180 714 208 q 811 151 771 151 l 976 151 q 990 138 990 151 l 990 14 q 976 0 990 0 l 811 0 q 658 54 715 0 q 599 200 600 108 l 599 221 l 314 11 q 247 -133 247 -46 q 272 -222 247 -181 q 337 -287 296 -262 q 426 -311 378 -311 l 831 -311 l 831 -454 l 415 -454 m 464 -49 l 585 -49 l 585 -171 l 464 -171 l 464 -49 z "},"ﺠ":{"ha":964,"x_min":-14,"x_max":978,"o":"m 0 0 q -14 14 -14 0 l -14 138 q 0 151 -14 151 l 265 151 q 465 224 385 151 l 628 371 l 400 479 q 375 490 389 485 q 347 494 361 494 q 303 484 325 494 q 265 457 281 474 l 157 333 l 57 419 l 167 553 q 247 613 200 592 q 347 635 294 635 q 407 627 383 635 q 456 607 431 619 l 757 465 q 782 461 765 461 l 907 461 l 907 322 l 767 322 l 718 278 l 718 250 q 747 180 718 208 q 817 151 776 151 l 964 151 q 978 138 978 151 l 978 14 q 964 0 978 0 l 817 0 q 682 47 736 0 q 610 172 628 94 l 544 113 q 407 29 485 58 q 244 0 329 0 l 0 0 m 254 -125 l 396 -125 l 396 -267 l 254 -267 l 254 -125 z "},"ﺟ":{"ha":967,"x_min":-14,"x_max":907,"o":"m 0 0 q -14 14 -14 0 l -14 138 q 0 151 -14 151 l 265 151 q 465 224 385 151 l 628 371 l 400 479 q 375 490 389 485 q 347 494 361 494 q 303 484 325 494 q 265 457 281 474 l 157 333 l 57 419 l 167 553 q 247 613 200 592 q 347 635 294 635 q 407 627 383 635 q 456 607 431 619 l 757 465 q 782 461 765 461 l 907 461 l 907 322 l 769 322 l 544 113 q 407 29 485 58 q 244 0 329 0 l 0 0 m 265 -125 l 401 -125 l 401 -265 l 265 -265 l 265 -125 z "},"چ":{"ha":971,"x_min":90,"x_max":911,"o":"m 415 -454 q 256 -410 329 -454 q 139 -293 182 -367 q 96 -135 96 -219 q 127 1 96 -64 q 214 110 158 65 l 615 407 l 418 500 q 393 510 407 506 q 365 515 379 515 q 323 505 344 515 q 283 478 301 494 l 190 374 l 90 460 l 185 574 q 265 635 218 614 q 365 656 313 656 q 425 648 401 656 q 474 628 449 640 l 775 486 q 800 482 786 482 l 911 482 l 911 343 l 765 343 l 314 11 q 247 -133 247 -46 q 272 -222 247 -181 q 337 -287 296 -262 q 426 -311 378 -311 l 831 -311 l 831 -454 l 415 -454 m 582 -108 l 704 -108 l 704 -222 l 582 -222 l 582 -108 m 501 61 l 622 61 l 622 -62 l 501 -62 l 501 61 m 669 61 l 790 61 l 790 -62 l 669 -62 l 669 61 z "},"ﭻ":{"ha":976,"x_min":90,"x_max":990,"o":"m 415 -454 q 256 -410 329 -454 q 139 -293 182 -367 q 96 -135 96 -219 q 127 1 96 -64 q 214 110 158 65 l 615 407 l 418 500 q 393 510 407 506 q 365 515 379 515 q 323 505 344 515 q 283 478 301 494 l 190 374 l 90 460 l 185 574 q 265 635 218 614 q 365 656 313 656 q 425 648 401 656 q 474 628 449 640 l 775 486 q 800 482 786 482 l 911 482 l 911 343 l 764 343 l 714 306 l 714 250 q 742 180 714 208 q 811 151 771 151 l 976 151 q 990 138 990 151 l 990 14 q 976 0 990 0 l 811 0 q 658 54 715 0 q 599 200 600 108 l 599 221 l 314 11 q 247 -133 247 -46 q 272 -222 247 -181 q 337 -287 296 -262 q 426 -311 378 -311 l 831 -311 l 831 -454 l 415 -454 m 449 -156 l 538 -156 l 538 -244 l 449 -244 l 449 -156 m 382 -18 l 469 -18 l 469 -107 l 382 -107 l 382 -18 m 517 -18 l 606 -18 l 606 -107 l 517 -107 l 517 -18 z "},"ﭽ":{"ha":964,"x_min":-14,"x_max":978,"o":"m 0 0 q -14 14 -14 0 l -14 138 q 0 151 -14 151 l 265 151 q 465 224 385 151 l 628 371 l 400 479 q 375 490 389 485 q 347 494 361 494 q 303 484 325 494 q 265 457 281 474 l 157 333 l 57 419 l 167 553 q 247 613 200 592 q 347 635 294 635 q 407 627 383 635 q 456 607 431 619 l 757 465 q 782 461 769 461 l 907 461 l 907 322 l 767 322 l 718 278 l 718 250 q 747 180 718 208 q 817 151 776 151 l 964 151 q 978 138 978 151 l 978 14 q 964 0 978 0 l 817 0 q 681 49 736 0 q 611 174 625 97 l 544 113 q 407 29 485 58 q 244 0 329 0 l 0 0 m 296 -339 l 438 -339 l 438 -479 l 296 -479 l 296 -339 m 189 -125 l 331 -125 l 331 -267 l 189 -267 l 189 -125 m 403 -125 l 543 -125 l 543 -267 l 403 -267 l 403 -125 z "},"ﭼ":{"ha":967,"x_min":-14,"x_max":907,"o":"m 0 0 q -14 14 -14 0 l -14 138 q 0 151 -14 151 l 265 151 q 465 224 385 151 l 628 371 l 400 479 q 375 490 389 485 q 347 494 361 494 q 303 484 325 494 q 265 457 281 474 l 157 333 l 57 419 l 167 553 q 247 613 200 592 q 347 635 294 635 q 407 627 383 635 q 456 607 431 619 l 757 465 q 782 461 765 461 l 907 461 l 907 322 l 769 322 l 544 113 q 407 29 485 58 q 244 0 329 0 l 0 0 m 296 -340 l 438 -340 l 438 -482 l 296 -482 l 296 -340 m 189 -126 l 331 -126 l 331 -268 l 189 -268 l 189 -126 m 403 -126 l 543 -126 l 543 -268 l 403 -268 l 403 -126 z "},"ح":{"ha":971,"x_min":90,"x_max":911,"o":"m 415 -454 q 256 -410 329 -454 q 139 -293 182 -367 q 96 -135 96 -219 q 127 1 96 -64 q 214 110 158 65 l 615 407 l 418 500 q 393 510 407 506 q 365 515 379 515 q 323 505 344 515 q 283 478 301 494 l 190 374 l 90 460 l 185 574 q 265 635 218 614 q 365 656 313 656 q 425 648 401 656 q 474 628 449 640 l 775 486 q 800 482 786 482 l 911 482 l 911 343 l 765 343 l 314 11 q 247 -133 247 -46 q 272 -222 247 -181 q 337 -287 296 -262 q 426 -311 378 -311 l 831 -311 l 831 -454 l 415 -454 z "},"ﺢ":{"ha":976,"x_min":90,"x_max":990,"o":"m 415 -454 q 256 -410 329 -454 q 139 -293 182 -367 q 96 -135 96 -219 q 127 1 96 -64 q 214 110 158 65 l 615 407 l 418 500 q 393 510 407 506 q 365 515 379 515 q 323 505 344 515 q 283 478 301 494 l 190 374 l 90 460 l 185 574 q 265 635 218 614 q 365 656 313 656 q 425 648 401 656 q 474 628 449 640 l 775 486 q 800 482 786 482 l 911 482 l 911 343 l 764 343 l 714 306 l 714 250 q 742 180 714 208 q 811 151 771 151 l 976 151 q 990 138 990 151 l 990 14 q 976 0 990 0 l 811 0 q 658 54 715 0 q 599 200 600 108 l 599 221 l 314 11 q 247 -133 247 -46 q 272 -222 247 -181 q 337 -287 296 -262 q 426 -311 378 -311 l 831 -311 l 831 -454 l 415 -454 z "},"ﺤ":{"ha":964,"x_min":-14,"x_max":978,"o":"m 0 0 q -14 14 -14 0 l -14 138 q 0 151 -14 151 l 265 151 q 465 224 385 151 l 628 371 l 400 479 q 375 490 389 485 q 347 494 361 494 q 303 484 325 494 q 265 457 281 474 l 157 333 l 57 419 l 167 553 q 247 613 200 592 q 347 635 294 635 q 407 627 383 635 q 456 607 431 619 l 757 465 q 782 461 765 461 l 907 461 l 907 322 l 767 322 l 718 278 l 718 250 q 747 180 718 208 q 817 151 776 151 l 964 151 q 978 138 978 151 l 978 14 q 964 0 978 0 l 817 0 q 681 49 736 0 q 611 174 625 97 l 544 113 q 407 29 485 58 q 244 0 329 0 l 0 0 z "},"ﺣ":{"ha":967,"x_min":-14,"x_max":907,"o":"m 0 0 q -14 14 -14 0 l -14 138 q 0 151 -14 151 l 265 151 q 465 224 385 151 l 628 371 l 400 479 q 375 490 389 485 q 347 494 361 494 q 303 484 325 494 q 265 457 281 474 l 157 333 l 57 419 l 167 553 q 247 613 200 592 q 347 635 294 635 q 407 627 383 635 q 456 607 431 619 l 757 465 q 782 461 765 461 l 907 461 l 907 322 l 769 322 l 544 113 q 407 29 485 58 q 244 0 329 0 l 0 0 z "},"خ":{"ha":971,"x_min":90,"x_max":911,"o":"m 415 -454 q 256 -410 329 -454 q 139 -293 182 -367 q 96 -135 96 -219 q 127 1 96 -64 q 214 110 158 65 l 615 407 l 418 500 q 393 510 407 506 q 365 515 379 515 q 323 505 344 515 q 283 478 301 494 l 190 374 l 90 460 l 185 574 q 265 635 218 614 q 365 656 313 656 q 425 648 401 656 q 474 628 449 640 l 775 486 q 800 482 786 482 l 911 482 l 911 343 l 765 343 l 314 11 q 247 -133 247 -46 q 272 -222 247 -181 q 337 -287 296 -262 q 426 -311 378 -311 l 831 -311 l 831 -454 l 415 -454 m 290 915 l 432 915 l 432 775 l 290 775 l 290 915 z "},"ﺦ":{"ha":976,"x_min":90,"x_max":990,"o":"m 415 -454 q 256 -410 329 -454 q 139 -293 182 -367 q 96 -135 96 -219 q 127 1 96 -64 q 214 110 158 65 l 615 407 l 418 500 q 393 510 407 506 q 365 515 379 515 q 323 505 344 515 q 283 478 301 494 l 190 374 l 90 460 l 185 574 q 265 635 218 614 q 365 656 313 656 q 425 648 401 656 q 474 628 449 640 l 775 486 q 800 482 786 482 l 911 482 l 911 343 l 765 343 l 714 304 l 714 250 q 742 180 714 208 q 811 151 771 151 l 976 151 q 990 138 990 151 l 990 14 q 976 0 990 0 l 811 0 q 658 54 715 0 q 599 200 600 108 l 599 221 l 314 11 q 247 -133 247 -46 q 272 -222 247 -181 q 337 -287 296 -262 q 426 -311 378 -311 l 831 -311 l 831 -454 l 415 -454 m 290 915 l 432 915 l 432 775 l 290 775 l 290 915 z "},"ﺨ":{"ha":964,"x_min":-14,"x_max":978,"o":"m 0 0 q -14 14 -14 0 l -14 138 q 0 151 -14 151 l 265 151 q 465 224 385 151 l 628 371 l 400 479 q 375 490 389 485 q 347 494 361 494 q 303 484 325 494 q 265 457 281 474 l 157 333 l 57 419 l 167 553 q 247 613 200 592 q 347 635 294 635 q 407 627 383 635 q 456 607 431 619 l 757 465 q 782 461 765 461 l 907 461 l 907 322 l 769 322 l 718 275 l 718 250 q 747 180 718 208 q 817 151 776 151 l 964 151 q 978 138 978 151 l 978 14 q 964 0 978 0 l 817 0 q 682 47 736 0 q 610 172 628 94 l 544 113 q 407 29 485 58 q 244 0 329 0 l 0 0 m 419 756 l 279 756 l 279 896 l 419 896 l 419 756 z "},"ﺧ":{"ha":967,"x_min":-14,"x_max":907,"o":"m 0 0 q -14 14 -14 0 l -14 138 q 0 151 -14 151 l 265 151 q 465 224 385 151 l 628 371 l 400 479 q 375 490 389 485 q 347 494 361 494 q 303 484 325 494 q 265 457 281 474 l 157 333 l 57 419 l 167 553 q 247 613 200 592 q 347 635 294 635 q 407 627 383 635 q 456 607 431 619 l 757 465 q 782 461 765 461 l 907 461 l 907 322 l 769 322 l 544 113 q 407 29 485 58 q 244 0 329 0 l 0 0 m 278 896 l 419 896 l 419 756 l 278 756 l 278 896 z "},"د":{"ha":708,"x_min":79,"x_max":650,"o":"m 79 151 l 407 151 q 477 179 449 151 q 506 247 506 207 q 492 297 506 275 q 446 340 478 318 l 175 526 l 256 643 l 549 442 q 624 359 597 406 q 650 251 650 313 q 615 124 650 182 q 522 33 581 67 q 394 0 464 0 l 79 0 l 79 151 z "},"ﺪ":{"ha":776,"x_min":79,"x_max":790,"o":"m 79 151 l 399 151 q 467 176 439 151 q 496 240 496 200 q 488 279 496 251 l 361 624 l 497 674 l 660 224 q 698 171 671 190 q 761 151 725 151 l 776 151 q 790 138 790 151 l 790 14 q 776 0 790 0 l 754 0 q 650 26 696 0 q 582 93 604 53 q 503 23 547 46 q 399 0 460 0 l 79 0 l 79 151 z "},"ذ":{"ha":708,"x_min":79,"x_max":650,"o":"m 79 151 l 407 151 q 477 179 449 151 q 506 247 506 207 q 492 297 506 275 q 446 340 478 318 l 175 526 l 256 643 l 549 442 q 624 359 597 406 q 650 251 650 313 q 615 124 650 182 q 522 33 581 67 q 394 0 464 0 l 79 0 l 79 151 m 192 904 l 333 904 l 333 764 l 192 764 l 192 904 z "},"ﺬ":{"ha":776,"x_min":79,"x_max":790,"o":"m 79 151 l 399 151 q 467 176 439 151 q 496 240 496 200 q 488 279 496 251 l 361 624 l 497 674 l 660 224 q 698 171 671 190 q 761 151 725 151 l 776 151 q 790 138 790 151 l 790 14 q 776 0 790 0 l 754 0 q 650 26 696 0 q 582 93 604 53 q 503 23 547 46 q 399 0 460 0 l 79 0 l 79 151 m 360 915 l 501 915 l 501 775 l 360 775 l 360 915 z "},"ڈ":{"ha":708,"x_min":79,"x_max":650,"o":"m 79 151 l 407 151 q 477 179 449 151 q 506 247 506 207 q 492 297 506 275 q 446 340 478 318 l 175 526 l 256 643 l 549 442 q 624 359 597 406 q 650 251 650 313 q 615 124 650 182 q 522 33 581 67 q 394 0 464 0 l 79 0 l 79 151 m 111 879 l 317 879 q 351 893 336 879 q 365 928 365 907 q 352 966 365 951 q 314 981 339 981 q 291 974 304 981 q 260 957 278 968 l 115 869 l 82 957 l 231 1047 q 271 1066 251 1060 q 317 1072 290 1072 q 418 1031 376 1072 q 460 929 460 989 q 418 825 460 868 q 317 782 376 782 l 111 782 l 111 879 m 119 981 q 149 1079 149 1000 l 149 1190 l 247 1190 l 247 1100 l 247 1158 q 235 1077 247 1113 q 206 1031 224 1042 l 119 981 z "},"ﮉ":{"ha":776,"x_min":79,"x_max":790,"o":"m 79 151 l 399 151 q 467 176 439 151 q 496 240 496 200 q 488 279 496 251 l 361 624 l 497 674 l 660 224 q 698 171 671 190 q 761 151 725 151 l 776 151 q 790 138 790 151 l 790 14 q 776 0 790 0 l 754 0 q 650 26 696 0 q 582 93 604 53 q 503 23 547 46 q 399 0 460 0 l 79 0 l 79 151 m 275 910 l 482 910 q 515 924 501 910 q 529 958 529 938 q 516 997 529 982 q 479 1011 503 1011 q 456 1005 469 1011 q 425 988 443 999 l 281 900 l 247 988 l 396 1078 q 482 1103 436 1103 q 583 1061 540 1103 q 625 960 625 1019 q 583 856 625 899 q 482 813 542 813 l 275 813 l 275 910 m 285 1011 q 306 1047 300 1022 q 313 1110 313 1071 l 313 1221 l 413 1221 l 413 1131 l 413 1188 q 401 1108 413 1143 q 371 1061 389 1072 l 285 1011 z "},"ر":{"ha":385,"x_min":-50,"x_max":322,"o":"m -50 -254 q 95 -165 51 -197 q 159 -87 139 -132 q 179 36 179 -42 l 179 474 l 322 474 l 322 38 q 292 -140 322 -71 q 195 -261 261 -210 q 4 -374 129 -312 l -50 -254 z "},"ﺮ":{"ha":483,"x_min":-50,"x_max":497,"o":"m -50 -254 q 95 -165 51 -197 q 159 -87 139 -132 q 179 36 179 -42 l 179 474 l 322 474 l 322 38 q 292 -140 322 -71 q 195 -261 261 -210 q 4 -374 129 -312 l -50 -254 m 421 0 q 272 68 324 0 q 219 242 219 136 l 219 474 l 322 474 l 322 250 q 351 180 322 208 q 421 151 379 151 l 483 151 q 497 138 497 151 l 497 14 q 483 0 497 0 l 421 0 z "},"ز":{"ha":393,"x_min":-50,"x_max":322,"o":"m -50 -254 q 95 -165 51 -197 q 159 -87 139 -132 q 179 36 179 -42 l 179 474 l 322 474 l 322 38 q 292 -140 322 -71 q 195 -261 261 -210 q 4 -374 129 -312 l -50 -254 m 179 742 l 321 742 l 321 600 l 179 600 l 179 742 z "},"ﺰ":{"ha":483,"x_min":-50,"x_max":497,"o":"m -50 -254 q 95 -165 51 -197 q 159 -87 139 -132 q 179 36 179 -42 l 179 474 l 322 474 l 322 38 q 292 -140 322 -71 q 195 -261 261 -210 q 4 -374 129 -312 l -50 -254 m 421 0 q 272 68 324 0 q 219 242 219 136 l 219 474 l 322 474 l 322 250 q 351 180 322 208 q 421 151 379 151 l 483 151 q 497 138 497 151 l 497 14 q 483 0 497 0 l 421 0 m 179 742 l 321 742 l 321 600 l 179 600 l 179 742 z "},"ڑ":{"ha":385,"x_min":-50,"x_max":429,"o":"m -50 -254 q 95 -165 51 -197 q 159 -87 139 -132 q 179 36 179 -42 l 179 474 l 322 474 l 322 38 q 292 -140 322 -71 q 195 -261 261 -210 q 4 -374 129 -312 l -50 -254 m 81 715 l 286 715 q 320 730 306 715 q 335 764 335 744 q 322 803 335 788 q 283 818 308 818 q 261 812 274 818 q 231 793 249 806 l 85 706 l 51 794 l 200 885 q 240 903 221 897 q 286 910 260 910 q 388 867 346 910 q 429 765 429 825 q 388 662 429 704 q 286 619 346 619 l 81 619 l 81 715 m 89 817 q 118 915 118 836 l 118 1026 l 217 1026 l 217 938 l 217 994 q 206 914 217 949 q 175 867 194 879 l 89 817 z "},"ﮍ":{"ha":483,"x_min":-50,"x_max":497,"o":"m -50 -254 q 95 -165 51 -197 q 159 -87 139 -132 q 179 36 179 -42 l 179 474 l 322 474 l 322 38 q 292 -140 322 -71 q 195 -261 261 -210 q 4 -374 129 -312 l -50 -254 m 421 0 q 272 68 324 0 q 219 242 219 136 l 219 474 l 322 474 l 322 250 q 351 180 322 208 q 421 151 379 151 l 483 151 q 497 138 497 151 l 497 14 q 483 0 497 0 l 421 0 m 107 714 l 314 714 q 347 728 333 714 q 361 763 361 742 q 348 801 361 786 q 311 815 335 815 q 288 809 301 815 q 257 792 275 803 l 113 704 l 79 792 l 228 882 q 314 907 268 907 q 415 865 372 907 q 457 764 457 824 q 415 660 457 703 q 314 617 374 617 l 107 617 l 107 714 m 117 815 q 138 851 132 826 q 144 914 144 875 l 144 1025 l 244 1025 l 244 935 l 244 992 q 233 912 244 947 q 203 865 221 876 l 117 815 z "},"ڕ":{"ha":393,"x_min":-50,"x_max":364,"o":"m -50 -254 q 95 -165 51 -197 q 159 -87 139 -132 q 179 36 179 -42 l 179 474 l 322 474 l 322 38 q 292 -140 322 -71 q 195 -261 261 -210 q 4 -374 129 -312 l -50 -254 m -35 -515 q 165 -660 160 -519 q 364 -515 171 -519 l 364 -625 q 250 -664 288 -631 q 213 -785 213 -697 l 119 -785 q 81 -664 119 -697 q -35 -625 43 -631 l -35 -515 z "},"ژ":{"ha":425,"x_min":-50,"x_max":424,"o":"m -50 -254 q 95 -165 51 -197 q 159 -87 139 -132 q 179 36 179 -42 l 179 474 l 322 474 l 322 38 q 292 -140 322 -71 q 195 -261 261 -210 q 4 -374 129 -312 l -50 -254 m 75 742 l 217 742 l 217 600 l 75 600 l 75 742 m 282 742 l 424 742 l 424 600 l 282 600 l 282 742 m 179 956 l 321 956 l 321 814 l 179 814 l 179 956 z "},"ﮋ":{"ha":525,"x_min":-50,"x_max":539,"o":"m -50 -254 q 95 -165 51 -197 q 159 -87 139 -132 q 179 36 179 -42 l 179 474 l 322 474 l 322 38 q 292 -140 322 -71 q 195 -261 261 -210 q 4 -374 129 -312 l -50 -254 m 421 0 q 272 68 324 0 q 219 242 219 136 l 219 474 l 322 474 l 322 250 q 351 180 322 208 q 421 151 379 151 l 525 151 q 539 138 539 151 l 539 14 q 525 0 539 0 l 421 0 m 79 742 l 221 742 l 221 600 l 79 600 l 79 742 m 293 742 l 435 742 l 435 600 l 293 600 l 293 742 m 188 956 l 329 956 l 329 814 l 188 814 l 188 956 z "},"س":{"ha":1639,"x_min":86,"x_max":1581,"o":"m 503 -258 q 294 -202 390 -258 q 142 -50 199 -146 q 86 158 86 46 l 86 418 l 229 418 l 229 167 q 266 28 229 92 q 366 -72 303 -35 q 503 -108 429 -108 q 641 -72 578 -108 q 741 28 704 -35 q 778 167 778 92 l 778 474 l 917 474 l 917 158 q 862 -50 917 46 q 712 -202 807 -146 q 503 -258 617 -258 m 1022 -3 q 880 65 926 -3 q 833 239 833 132 l 833 474 l 922 474 l 922 247 q 951 177 922 206 q 1022 149 981 149 q 1092 177 1063 149 q 1121 247 1121 206 l 1121 474 l 1236 474 l 1236 239 q 1178 67 1236 136 q 1022 -3 1121 -3 m 1363 0 q 1206 69 1264 0 q 1147 242 1147 139 l 1147 474 l 1264 474 l 1264 250 q 1292 180 1264 208 q 1363 151 1321 151 l 1438 151 l 1438 515 l 1581 515 l 1581 0 l 1363 0 z "},"ﺲ":{"ha":1765,"x_min":86,"x_max":1779,"o":"m 503 -258 q 294 -202 390 -258 q 142 -50 199 -146 q 86 158 86 46 l 86 418 l 229 418 l 229 167 q 266 28 229 92 q 366 -72 303 -35 q 503 -108 429 -108 q 641 -72 578 -108 q 741 28 704 -35 q 778 167 778 92 l 778 474 l 917 474 l 917 158 q 862 -50 917 46 q 712 -202 807 -146 q 503 -258 617 -258 m 1022 -3 q 880 65 926 -3 q 833 239 833 132 l 833 474 l 922 474 l 922 247 q 951 177 922 206 q 1022 149 981 149 q 1092 177 1063 149 q 1121 247 1121 206 l 1121 474 l 1236 474 l 1236 239 q 1178 67 1236 136 q 1022 -3 1121 -3 m 1363 -3 q 1206 67 1264 -3 q 1147 239 1147 136 l 1147 474 l 1264 474 l 1264 247 q 1292 177 1264 206 q 1363 149 1321 149 q 1432 177 1403 149 q 1461 247 1461 206 l 1461 515 l 1576 515 l 1576 239 q 1519 67 1576 136 q 1363 -3 1461 -3 m 1703 0 q 1547 69 1604 0 q 1489 242 1489 139 l 1489 515 l 1604 515 l 1604 250 q 1633 180 1604 208 q 1703 151 1661 151 l 1765 151 q 1779 138 1779 151 l 1779 14 q 1765 0 1779 0 l 1703 0 z "},"ﺴ":{"ha":1147,"x_min":-14,"x_max":1161,"o":"m 743 -3 q 588 67 646 -3 q 529 239 529 136 l 529 474 l 644 474 l 644 247 q 674 177 644 206 q 743 149 703 149 q 814 177 785 149 q 843 247 843 206 l 843 515 l 957 515 l 957 239 q 899 67 957 136 q 743 -3 842 -3 m 0 0 q -14 14 -14 0 l -14 138 q 0 151 -14 151 l 63 151 q 132 180 103 151 q 161 250 161 208 l 161 474 l 276 474 l 276 242 q 219 69 276 139 q 63 0 161 0 l 0 0 m 403 -3 q 247 67 304 -3 q 189 239 189 136 l 189 474 l 304 474 l 304 247 q 333 177 304 206 q 403 149 363 149 q 473 177 444 149 q 501 247 501 206 l 501 474 l 617 474 l 617 239 q 559 67 617 136 q 403 -3 501 -3 m 1085 0 q 928 69 986 0 q 869 242 869 139 l 869 515 l 985 515 l 985 250 q 1014 180 985 208 q 1085 151 1043 151 l 1147 151 q 1161 138 1161 151 l 1161 14 q 1147 0 1161 0 l 1085 0 z "},"ﺳ":{"ha":1021,"x_min":-14,"x_max":963,"o":"m 743 0 q 587 69 644 0 q 529 242 529 139 l 529 474 l 644 474 l 644 250 q 674 180 644 208 q 743 151 703 151 l 819 151 l 819 515 l 963 515 l 963 0 l 743 0 m 0 0 q -14 14 -14 0 l -14 138 q 0 151 -14 151 l 63 151 q 132 180 103 151 q 161 250 161 208 l 161 474 l 276 474 l 276 242 q 219 69 276 139 q 63 0 161 0 l 0 0 m 403 -3 q 247 67 304 -3 q 189 239 189 136 l 189 474 l 304 474 l 304 247 q 333 177 304 206 q 403 149 363 149 q 473 177 444 149 q 501 247 501 206 l 501 474 l 617 474 l 617 239 q 559 67 617 136 q 403 -3 501 -3 z "},"ش":{"ha":1639,"x_min":86,"x_max":1581,"o":"m 503 -258 q 294 -202 390 -258 q 142 -50 199 -146 q 86 158 86 46 l 86 418 l 229 418 l 229 167 q 266 28 229 92 q 366 -72 303 -35 q 503 -108 429 -108 q 641 -72 578 -108 q 741 28 704 -35 q 778 167 778 92 l 778 474 l 917 474 l 917 158 q 862 -50 917 46 q 712 -202 807 -146 q 503 -258 617 -258 m 1022 -3 q 880 65 926 -3 q 833 239 833 132 l 833 474 l 922 474 l 922 247 q 951 177 922 206 q 1022 149 981 149 q 1092 177 1063 149 q 1121 247 1121 206 l 1121 474 l 1236 474 l 1236 239 q 1178 67 1236 136 q 1022 -3 1121 -3 m 1363 0 q 1206 69 1264 0 q 1147 242 1147 139 l 1147 474 l 1264 474 l 1264 250 q 1292 180 1264 208 q 1363 151 1321 151 l 1438 151 l 1438 515 l 1581 515 l 1581 0 l 1363 0 m 1015 735 l 1156 735 l 1156 594 l 1015 594 l 1015 735 m 1228 735 l 1369 735 l 1369 594 l 1228 594 l 1228 735 m 1122 949 l 1264 949 l 1264 807 l 1122 807 l 1122 949 z "},"ﺶ":{"ha":1765,"x_min":86,"x_max":1779,"o":"m 503 -258 q 294 -202 390 -258 q 142 -50 199 -146 q 86 158 86 46 l 86 418 l 229 418 l 229 167 q 266 28 229 92 q 366 -72 303 -35 q 503 -108 429 -108 q 641 -72 578 -108 q 741 28 704 -35 q 778 167 778 92 l 778 474 l 917 474 l 917 158 q 862 -50 917 46 q 712 -202 807 -146 q 503 -258 617 -258 m 1022 -3 q 880 65 926 -3 q 833 239 833 132 l 833 474 l 922 474 l 922 247 q 951 177 922 206 q 1022 149 981 149 q 1092 177 1063 149 q 1121 247 1121 206 l 1121 474 l 1236 474 l 1236 239 q 1178 67 1236 136 q 1022 -3 1121 -3 m 1363 -3 q 1206 67 1264 -3 q 1147 239 1147 136 l 1147 474 l 1264 474 l 1264 247 q 1292 177 1264 206 q 1363 149 1321 149 q 1432 177 1403 149 q 1461 247 1461 206 l 1461 515 l 1576 515 l 1576 239 q 1519 67 1576 136 q 1363 -3 1461 -3 m 1703 0 q 1547 69 1604 0 q 1489 242 1489 139 l 1489 515 l 1604 515 l 1604 250 q 1633 180 1604 208 q 1703 151 1661 151 l 1765 151 q 1779 138 1779 151 l 1779 14 q 1765 0 1779 0 l 1703 0 m 1015 736 l 1156 736 l 1156 594 l 1015 594 l 1015 736 m 1228 736 l 1369 736 l 1369 594 l 1228 594 l 1228 736 m 1122 950 l 1264 950 l 1264 808 l 1122 808 l 1122 950 z "},"ﺸ":{"ha":1147,"x_min":-14,"x_max":1161,"o":"m 743 -3 q 588 67 646 -3 q 529 239 529 136 l 529 474 l 644 474 l 644 247 q 674 177 644 206 q 743 149 703 149 q 814 177 785 149 q 843 247 843 206 l 843 515 l 957 515 l 957 239 q 899 67 957 136 q 743 -3 842 -3 m 0 0 q -14 14 -14 0 l -14 138 q 0 151 -14 151 l 63 151 q 132 180 103 151 q 161 250 161 208 l 161 474 l 276 474 l 276 242 q 219 69 276 139 q 63 0 161 0 l 0 0 m 403 -3 q 247 67 304 -3 q 189 239 189 136 l 189 474 l 304 474 l 304 247 q 333 177 304 206 q 403 149 363 149 q 473 177 444 149 q 501 247 501 206 l 501 474 l 617 474 l 617 239 q 559 67 617 136 q 403 -3 501 -3 m 1085 0 q 928 69 986 0 q 869 242 869 139 l 869 515 l 985 515 l 985 250 q 1014 180 985 208 q 1085 151 1043 151 l 1147 151 q 1161 138 1161 151 l 1161 14 q 1147 0 1161 0 l 1085 0 m 396 731 l 538 731 l 538 589 l 396 589 l 396 731 m 610 731 l 751 731 l 751 589 l 610 589 l 610 731 m 503 944 l 644 944 l 644 803 l 503 803 l 503 944 z "},"ﺷ":{"ha":1021,"x_min":-14,"x_max":963,"o":"m 743 0 q 587 69 644 0 q 529 242 529 139 l 529 474 l 644 474 l 644 250 q 674 180 644 208 q 743 151 703 151 l 819 151 l 819 515 l 963 515 l 963 0 l 743 0 m 0 0 q -14 14 -14 0 l -14 138 q 0 151 -14 151 l 63 151 q 132 180 103 151 q 161 250 161 208 l 161 474 l 276 474 l 276 242 q 219 69 276 139 q 63 0 161 0 l 0 0 m 403 -3 q 247 67 304 -3 q 189 239 189 136 l 189 474 l 304 474 l 304 247 q 333 177 304 206 q 403 149 363 149 q 473 177 444 149 q 501 247 501 206 l 501 474 l 617 474 l 617 239 q 559 67 617 136 q 403 -3 501 -3 m 396 731 l 538 731 l 538 589 l 396 589 l 396 731 m 610 731 l 751 731 l 751 589 l 610 589 l 610 731 m 503 944 l 644 944 l 644 803 l 503 803 l 503 944 z "},"ص":{"ha":1767,"x_min":86,"x_max":1707,"o":"m 504 -258 q 294 -202 390 -258 q 142 -50 199 -146 q 86 158 86 46 l 86 418 l 231 418 l 231 167 q 267 28 231 92 q 367 -72 304 -35 q 504 -108 431 -108 q 642 -72 579 -108 q 742 28 706 -35 q 779 167 779 92 l 779 474 l 917 474 l 917 158 q 862 -50 917 46 q 713 -202 807 -146 q 504 -258 618 -258 m 1076 0 q 935 40 996 0 q 840 150 874 81 q 807 304 807 219 l 807 474 l 924 474 l 924 286 q 963 191 924 231 q 1057 151 1001 151 l 1425 151 q 1520 192 1481 151 q 1560 289 1560 232 q 1520 388 1560 347 q 1422 428 1481 428 q 1374 419 1399 428 q 1314 389 1350 411 l 917 151 l 865 281 l 1250 511 q 1340 556 1303 542 q 1425 569 1376 569 q 1566 531 1501 569 q 1669 428 1631 493 q 1707 285 1707 363 q 1669 142 1707 207 q 1565 38 1631 76 q 1424 0 1500 0 l 1076 0 z "},"ﺺ":{"ha":1869,"x_min":86,"x_max":1883,"o":"m 504 -258 q 294 -202 390 -258 q 142 -50 199 -146 q 86 158 86 46 l 86 418 l 231 418 l 231 167 q 267 28 231 92 q 367 -72 304 -35 q 504 -108 431 -108 q 642 -72 579 -108 q 742 28 706 -35 q 779 167 779 92 l 779 474 l 917 474 l 917 158 q 862 -50 917 46 q 713 -202 807 -146 q 504 -258 618 -258 m 1076 0 q 935 40 996 0 q 840 150 874 81 q 807 304 807 219 l 807 474 l 924 474 l 924 286 q 963 191 924 231 q 1057 151 1001 151 l 1425 151 q 1520 192 1481 151 q 1560 289 1560 232 q 1520 388 1560 347 q 1422 428 1481 428 q 1374 419 1399 428 q 1314 389 1350 411 l 917 151 l 865 281 l 1250 511 q 1340 556 1303 542 q 1425 569 1376 569 q 1566 531 1501 569 q 1669 428 1631 493 q 1707 285 1707 363 q 1669 142 1707 207 q 1565 38 1631 76 q 1424 0 1500 0 l 1076 0 m 1807 0 q 1650 69 1708 0 q 1592 242 1592 138 l 1592 283 l 1707 283 l 1707 250 q 1736 180 1707 208 q 1807 151 1765 151 l 1869 151 q 1883 138 1883 151 l 1883 14 q 1869 0 1883 0 l 1807 0 z "},"ﺼ":{"ha":1250,"x_min":-14,"x_max":1264,"o":"m 458 0 q 316 40 378 0 q 222 150 254 81 q 189 304 189 219 l 189 474 l 304 474 l 304 286 q 344 191 304 231 q 439 151 383 151 l 806 151 q 902 192 863 151 q 942 289 942 232 q 901 387 942 346 q 803 428 861 428 q 755 419 779 428 q 694 389 731 411 l 297 151 l 246 281 l 631 511 q 720 556 683 542 q 806 569 757 569 q 948 531 883 569 q 1051 428 1013 493 q 1089 285 1089 363 q 1050 142 1089 208 q 946 38 1011 76 q 804 0 881 0 l 458 0 m 0 0 q -14 14 -14 0 l -14 138 q 0 151 -14 151 l 63 151 q 132 180 103 151 q 161 250 161 208 l 161 474 l 276 474 l 276 242 q 219 69 276 139 q 63 0 161 0 l 0 0 m 1188 0 q 1031 69 1089 0 q 974 242 974 139 l 974 283 l 1089 283 l 1089 250 q 1118 180 1089 208 q 1188 151 1147 151 l 1250 151 q 1264 138 1264 151 l 1264 14 q 1250 0 1264 0 l 1188 0 z "},"ﺻ":{"ha":1147,"x_min":-14,"x_max":1089,"o":"m 458 0 q 316 40 378 0 q 222 150 254 81 q 189 304 189 219 l 189 474 l 304 474 l 304 286 q 344 191 304 231 q 439 151 383 151 l 806 151 q 902 192 863 151 q 942 289 942 232 q 901 387 942 346 q 803 428 861 428 q 755 419 779 428 q 694 389 731 411 l 297 151 l 246 281 l 631 511 q 720 556 683 542 q 806 569 757 569 q 948 531 883 569 q 1051 428 1013 493 q 1089 285 1089 363 q 1050 142 1089 208 q 946 38 1011 76 q 804 0 881 0 l 458 0 m 0 0 q -14 14 -14 0 l -14 138 q 0 151 -14 151 l 63 151 q 132 180 103 151 q 161 250 161 208 l 161 474 l 276 474 l 276 242 q 219 69 276 139 q 63 0 161 0 l 0 0 z "},"ض":{"ha":1767,"x_min":86,"x_max":1707,"o":"m 504 -258 q 294 -202 390 -258 q 142 -50 199 -146 q 86 158 86 46 l 86 418 l 231 418 l 231 167 q 267 28 231 92 q 367 -72 304 -35 q 504 -108 431 -108 q 642 -72 579 -108 q 742 28 706 -35 q 779 167 779 92 l 779 474 l 917 474 l 917 158 q 862 -50 917 46 q 713 -202 807 -146 q 504 -258 618 -258 m 1076 0 q 935 40 996 0 q 840 150 874 81 q 807 304 807 219 l 807 474 l 924 474 l 924 286 q 963 191 924 231 q 1057 151 1001 151 l 1425 151 q 1520 192 1481 151 q 1560 289 1560 232 q 1520 386 1560 346 q 1425 426 1481 426 q 1372 419 1399 426 q 1311 392 1346 411 l 914 156 l 865 281 l 1269 524 q 1425 569 1344 569 q 1566 531 1501 569 q 1669 428 1631 493 q 1707 285 1707 363 q 1669 142 1707 207 q 1565 38 1631 76 q 1424 0 1500 0 l 1076 0 m 1353 831 l 1494 831 l 1494 689 l 1353 689 l 1353 831 z "},"ﺾ":{"ha":1869,"x_min":86,"x_max":1883,"o":"m 504 -258 q 294 -202 390 -258 q 142 -50 199 -146 q 86 158 86 46 l 86 418 l 231 418 l 231 167 q 267 28 231 92 q 367 -72 304 -35 q 504 -108 431 -108 q 642 -72 579 -108 q 742 28 706 -35 q 779 167 779 92 l 779 474 l 917 474 l 917 158 q 862 -50 917 46 q 713 -202 807 -146 q 504 -258 618 -258 m 1076 0 q 935 40 996 0 q 840 150 874 81 q 807 304 807 219 l 807 474 l 924 474 l 924 286 q 963 191 924 231 q 1057 151 1001 151 l 1425 151 q 1520 192 1481 151 q 1560 289 1560 232 q 1520 386 1560 346 q 1425 426 1481 426 q 1372 419 1399 426 q 1311 392 1346 411 l 914 156 l 865 281 l 1269 524 q 1425 569 1344 569 q 1566 531 1501 569 q 1669 428 1631 493 q 1707 285 1707 363 q 1669 142 1707 207 q 1565 38 1631 76 q 1424 0 1500 0 l 1076 0 m 1807 0 q 1650 69 1708 0 q 1592 242 1592 138 l 1592 283 l 1707 283 l 1707 250 q 1736 180 1707 208 q 1807 151 1765 151 l 1869 151 q 1883 138 1883 151 l 1883 14 q 1869 0 1883 0 l 1807 0 m 1353 831 l 1493 831 l 1493 689 l 1353 689 l 1353 831 z "},"ﻀ":{"ha":1250,"x_min":-14,"x_max":1264,"o":"m 458 0 q 316 40 378 0 q 222 150 254 81 q 189 304 189 219 l 189 474 l 304 474 l 304 286 q 344 191 304 231 q 439 151 383 151 l 806 151 q 902 192 863 151 q 942 290 942 233 q 901 395 942 353 q 800 438 860 438 q 749 428 775 438 q 688 396 724 419 l 276 151 l 246 281 l 631 511 q 720 556 683 542 q 806 569 757 569 q 948 531 883 569 q 1051 428 1013 493 q 1089 285 1089 363 q 1050 142 1089 208 q 946 38 1011 76 q 804 0 881 0 l 458 0 m 0 0 q -14 14 -14 0 l -14 138 q 0 151 -14 151 l 63 151 q 132 180 103 151 q 161 250 161 208 l 161 474 l 276 474 l 276 242 q 219 69 276 139 q 63 0 161 0 l 0 0 m 1188 0 q 1031 69 1089 0 q 974 242 974 139 l 974 283 l 1089 283 l 1089 250 q 1118 180 1089 208 q 1188 151 1147 151 l 1250 151 q 1264 138 1264 151 l 1264 14 q 1250 0 1264 0 l 1188 0 m 733 831 l 875 831 l 875 689 l 733 689 l 733 831 z "},"ﺿ":{"ha":1147,"x_min":-14,"x_max":1089,"o":"m 458 0 q 316 40 378 0 q 222 150 254 81 q 189 304 189 219 l 189 474 l 304 474 l 304 286 q 344 191 304 231 q 439 151 383 151 l 806 151 q 902 192 863 151 q 942 289 942 232 q 901 387 942 346 q 803 428 861 428 q 755 419 779 428 q 694 388 731 410 l 297 151 l 246 281 l 631 511 q 720 556 683 542 q 806 569 757 569 q 948 531 883 569 q 1051 428 1013 493 q 1089 285 1089 363 q 1050 142 1089 208 q 946 38 1011 76 q 804 0 881 0 l 458 0 m 0 0 q -14 14 -14 0 l -14 138 q 0 151 -14 151 l 63 151 q 132 180 103 151 q 161 250 161 208 l 161 474 l 276 474 l 276 242 q 219 69 276 139 q 63 0 161 0 l 0 0 m 732 831 l 874 831 l 874 689 l 732 689 l 732 831 z "},"ط":{"ha":947,"x_min":78,"x_max":889,"o":"m 78 151 l 606 151 q 702 192 663 151 q 742 289 742 232 q 701 388 742 347 q 603 428 661 428 q 556 419 581 428 q 494 388 531 410 l 161 190 l 94 310 l 432 511 q 520 556 483 542 q 606 569 557 569 q 748 531 683 569 q 851 428 813 493 q 889 285 889 363 q 851 142 889 207 q 747 38 813 76 q 604 0 682 0 l 78 0 l 78 151 m 208 378 q 243 423 235 393 q 251 494 251 453 l 251 922 l 396 922 l 396 608 q 385 513 396 554 q 357 456 374 471 l 208 378 z "},"ﻂ":{"ha":1050,"x_min":78,"x_max":1064,"o":"m 78 151 l 606 151 q 702 192 663 151 q 742 289 742 232 q 701 388 742 347 q 603 428 661 428 q 556 419 581 428 q 494 388 531 410 l 161 190 l 94 310 l 432 511 q 520 556 483 542 q 606 569 557 569 q 748 531 683 569 q 851 428 813 493 q 889 285 889 363 q 851 142 889 207 q 747 38 813 76 q 604 0 682 0 l 78 0 l 78 151 m 208 378 q 243 423 235 393 q 251 494 251 453 l 251 922 l 396 922 l 396 608 q 385 513 396 554 q 357 456 374 471 l 208 378 m 988 0 q 831 69 889 0 q 774 242 774 139 l 774 285 l 889 285 l 889 250 q 917 180 889 208 q 988 151 946 151 l 1050 151 q 1064 138 1064 151 l 1064 14 q 1050 0 1064 0 l 988 0 z "},"ﻄ":{"ha":1033,"x_min":-14,"x_max":1047,"o":"m 0 0 q -14 14 -14 0 l -14 138 q 0 151 -14 151 l 590 151 q 687 192 647 151 q 726 289 726 232 q 686 387 726 346 q 588 428 646 428 q 540 419 565 428 q 479 388 515 410 l 131 181 l 78 310 l 415 511 q 505 556 468 542 q 590 569 542 569 q 732 531 667 569 q 835 428 797 493 q 874 285 874 363 q 835 142 874 208 q 731 38 796 76 q 589 0 665 0 l 0 0 m 193 378 q 228 423 219 393 q 236 494 236 453 l 236 924 l 379 924 l 379 608 q 371 516 379 553 q 347 464 363 479 l 193 378 m 971 0 q 815 69 874 0 q 757 242 757 139 l 757 285 l 874 285 l 874 250 q 902 180 874 208 q 971 151 931 151 l 1033 151 q 1047 138 1047 151 l 1047 14 q 1033 0 1047 0 l 971 0 z "},"ﻃ":{"ha":932,"x_min":-14,"x_max":874,"o":"m 0 0 q -14 14 -14 0 l -14 138 q 0 151 -14 151 l 590 151 q 687 192 647 151 q 726 289 726 232 q 686 387 726 346 q 588 428 646 428 q 540 419 565 428 q 479 388 515 410 l 131 181 l 78 310 l 415 511 q 505 556 468 542 q 590 569 542 569 q 732 531 667 569 q 835 428 797 493 q 874 285 874 363 q 835 142 874 208 q 731 38 796 76 q 589 0 665 0 l 0 0 m 193 378 q 228 423 219 393 q 236 494 236 453 l 236 922 l 379 922 l 379 608 q 371 516 379 553 q 347 464 363 479 l 193 378 z "},"ظ":{"ha":947,"x_min":78,"x_max":889,"o":"m 78 151 l 606 151 q 702 192 663 151 q 742 289 742 232 q 701 388 742 347 q 603 428 661 428 q 556 419 581 428 q 494 388 531 410 l 147 181 l 94 310 l 432 511 q 520 556 483 542 q 606 569 557 569 q 748 531 683 569 q 851 428 813 493 q 889 285 889 363 q 851 142 889 207 q 747 38 813 76 q 604 0 682 0 l 78 0 l 78 151 m 208 378 q 243 423 235 393 q 251 494 251 453 l 251 924 l 396 924 l 396 608 q 387 517 396 554 q 363 464 378 479 l 208 378 m 546 831 l 688 831 l 688 689 l 546 689 l 546 831 z "},"ﻆ":{"ha":1050,"x_min":78,"x_max":1064,"o":"m 78 151 l 606 151 q 702 192 663 151 q 742 289 742 232 q 701 388 742 347 q 603 428 661 428 q 556 419 581 428 q 494 388 531 410 l 147 181 l 94 310 l 432 511 q 520 556 483 542 q 606 569 557 569 q 748 531 683 569 q 851 428 813 493 q 889 285 889 363 q 851 142 889 207 q 747 38 813 76 q 604 0 682 0 l 78 0 l 78 151 m 208 378 q 243 423 235 393 q 251 494 251 453 l 251 922 l 396 922 l 396 608 q 387 517 396 554 q 363 464 378 479 l 208 378 m 988 0 q 831 69 889 0 q 774 242 774 139 l 774 285 l 889 285 l 889 250 q 917 180 889 208 q 988 151 946 151 l 1050 151 q 1064 138 1064 151 l 1064 14 q 1050 0 1064 0 l 988 0 m 547 831 l 689 831 l 689 689 l 547 689 l 547 831 z "},"ﻈ":{"ha":1033,"x_min":-14,"x_max":1047,"o":"m 0 0 q -14 14 -14 0 l -14 138 q 0 151 -14 151 l 590 151 q 687 192 647 151 q 726 289 726 232 q 686 387 726 346 q 588 428 646 428 q 540 419 565 428 q 479 388 515 410 l 131 181 l 78 310 l 415 511 q 505 556 468 542 q 590 569 542 569 q 732 531 667 569 q 835 428 797 493 q 874 285 874 363 q 835 142 874 208 q 731 38 796 76 q 589 0 665 0 l 0 0 m 193 378 q 228 423 219 393 q 236 494 236 453 l 236 924 l 379 924 l 379 608 q 371 516 379 553 q 347 464 363 479 l 193 378 m 971 0 q 815 69 874 0 q 757 242 757 139 l 757 285 l 874 285 l 874 250 q 902 180 874 208 q 971 151 931 151 l 1033 151 q 1047 138 1047 151 l 1047 14 q 1033 0 1047 0 l 971 0 m 531 831 l 672 831 l 672 689 l 531 689 l 531 831 z "},"ﻇ":{"ha":932,"x_min":-14,"x_max":874,"o":"m 0 0 q -14 14 -14 0 l -14 138 q 0 151 -14 151 l 590 151 q 687 192 647 151 q 726 289 726 232 q 686 387 726 346 q 588 428 646 428 q 540 419 565 428 q 479 388 515 410 l 131 181 l 78 310 l 415 511 q 505 556 468 542 q 590 569 542 569 q 732 531 667 569 q 835 428 797 493 q 874 285 874 363 q 835 142 874 208 q 731 38 796 76 q 589 0 665 0 l 0 0 m 193 378 q 228 423 219 393 q 236 494 236 453 l 236 922 l 379 922 l 379 608 q 371 516 379 553 q 347 464 363 479 l 193 378 m 532 831 l 674 831 l 674 689 l 532 689 l 532 831 z "},"ع":{"ha":768,"x_min":79,"x_max":710,"o":"m 457 -606 q 267 -555 354 -606 q 130 -417 181 -504 q 79 -228 79 -331 q 124 -58 79 -133 q 245 63 168 17 q 417 119 322 108 q 438 136 424 121 q 457 151 451 151 l 665 151 l 665 0 l 457 0 q 344 -31 396 0 q 261 -113 292 -61 q 231 -228 231 -165 q 261 -341 231 -289 q 344 -424 292 -393 q 457 -454 396 -454 l 710 -454 l 710 -606 l 457 -606 m 472 31 q 319 65 389 31 q 210 160 250 99 q 169 299 169 221 q 210 445 169 379 q 319 549 250 511 q 472 588 389 588 l 624 588 l 624 447 l 472 447 q 365 405 408 447 q 321 300 321 363 q 364 194 321 236 q 471 151 407 151 l 472 31 z "},"ﻊ":{"ha":879,"x_min":82,"x_max":893,"o":"m 460 -606 q 270 -555 357 -606 q 133 -417 183 -504 q 82 -228 82 -331 q 126 -58 82 -133 q 248 63 171 17 q 419 119 325 108 q 440 135 426 119 q 460 151 453 151 l 879 151 q 893 138 893 151 l 893 14 q 879 0 893 0 l 460 0 q 347 -31 399 0 q 264 -113 294 -61 q 233 -228 233 -165 q 264 -341 233 -289 q 347 -424 294 -393 q 460 -454 399 -454 l 713 -454 l 713 -606 l 460 -606 m 783 294 q 748 158 783 218 q 651 65 713 99 q 513 31 589 31 l 443 31 q 305 65 367 31 q 208 158 243 99 q 172 294 172 218 l 172 407 l 89 407 l 89 550 l 443 550 l 513 550 l 783 550 l 783 294 m 642 407 l 513 407 l 443 407 l 314 407 l 314 282 q 351 189 314 226 q 443 151 388 151 l 513 151 q 604 189 567 151 q 642 282 642 226 l 642 407 z "},"ﻌ":{"ha":874,"x_min":-14,"x_max":888,"o":"m 769 294 q 734 158 769 218 q 637 65 699 99 q 499 31 575 31 l 429 31 q 291 65 353 31 q 194 158 229 99 q 158 294 158 218 l 158 407 l 75 407 l 75 550 l 429 550 l 499 550 l 769 550 l 769 294 m 0 0 q -14 14 -14 0 l -14 138 q 0 151 -14 151 l 874 151 q 888 138 888 151 l 888 14 q 874 0 888 0 l 0 0 m 628 407 l 499 407 l 429 407 l 300 407 l 300 282 q 337 189 300 226 q 429 151 374 151 l 499 151 q 590 189 553 151 q 628 282 628 226 l 628 407 z "},"ﻋ":{"ha":661,"x_min":-14,"x_max":603,"o":"m 392 31 q 239 65 308 31 q 129 160 169 99 q 89 299 89 221 q 129 445 89 379 q 239 549 169 511 q 392 588 308 588 l 543 588 l 543 447 l 392 447 q 284 405 328 447 q 240 300 240 363 q 283 194 240 236 q 390 151 326 151 l 392 31 m 0 0 q -14 14 -14 0 l -14 138 q 0 151 -14 151 l 603 151 l 603 0 l 0 0 z "},"غ":{"ha":768,"x_min":79,"x_max":710,"o":"m 457 -606 q 267 -555 354 -606 q 130 -417 181 -504 q 79 -228 79 -331 q 124 -58 79 -133 q 245 63 168 17 q 417 119 322 108 q 438 136 424 121 q 457 151 451 151 l 665 151 l 665 0 l 457 0 q 344 -31 396 0 q 261 -113 292 -61 q 231 -228 231 -165 q 261 -341 231 -289 q 344 -424 292 -393 q 457 -454 396 -454 l 710 -454 l 710 -606 l 457 -606 m 472 31 q 319 65 389 31 q 210 160 250 99 q 169 299 169 221 q 210 445 169 379 q 319 549 250 511 q 472 588 389 588 l 624 588 l 624 447 l 472 447 q 365 405 408 447 q 321 300 321 363 q 364 194 321 236 q 471 151 407 151 l 472 31 m 390 843 l 532 843 l 532 701 l 390 701 l 390 843 z "},"ﻎ":{"ha":879,"x_min":82,"x_max":893,"o":"m 460 -606 q 270 -555 357 -606 q 133 -417 183 -504 q 82 -228 82 -331 q 126 -58 82 -133 q 248 63 171 17 q 419 119 325 108 q 440 135 426 119 q 460 151 453 151 l 879 151 q 893 138 893 151 l 893 14 q 879 0 893 0 l 460 0 q 347 -31 399 0 q 264 -113 294 -61 q 233 -228 233 -165 q 264 -341 233 -289 q 347 -424 294 -393 q 460 -454 399 -454 l 713 -454 l 713 -606 l 460 -606 m 443 31 q 305 65 367 31 q 208 158 243 99 q 172 294 172 218 l 172 407 l 89 407 l 89 550 l 443 550 l 513 550 l 783 550 l 783 294 q 748 158 783 218 q 651 65 713 99 q 513 31 589 31 l 443 31 m 513 151 q 604 189 567 151 q 642 282 642 226 l 642 407 l 513 407 l 443 407 l 314 407 l 314 282 q 351 189 314 226 q 443 151 388 151 l 513 151 m 393 818 l 535 818 l 535 678 l 393 678 l 393 818 z "},"ﻐ":{"ha":874,"x_min":-14,"x_max":888,"o":"m 429 31 q 290 65 353 31 q 192 158 228 99 q 157 294 157 218 l 157 407 l 75 407 l 75 550 l 429 550 l 499 550 l 769 550 l 769 294 q 734 158 769 218 q 637 65 699 99 q 499 31 575 31 l 429 31 m 0 0 q -14 14 -14 0 l -14 138 q 0 151 -14 151 l 874 151 q 888 138 888 151 l 888 14 q 874 0 888 0 l 0 0 m 499 151 q 590 189 553 151 q 628 282 628 226 l 628 407 l 499 407 l 429 407 l 300 407 l 300 282 q 337 189 300 226 q 429 151 374 151 l 499 151 m 394 818 l 536 818 l 536 678 l 394 678 l 394 818 z "},"ﻏ":{"ha":661,"x_min":-14,"x_max":603,"o":"m 301 843 l 442 843 l 442 701 l 301 701 l 301 843 m 392 31 q 239 65 308 31 q 129 160 169 99 q 89 299 89 221 q 129 445 89 379 q 239 549 169 511 q 392 588 308 588 l 543 588 l 543 447 l 392 447 q 284 405 328 447 q 240 300 240 363 q 283 194 240 236 q 390 151 326 151 l 392 31 m 0 0 q -14 14 -14 0 l -14 138 q 0 151 -14 151 l 603 151 l 603 0 l 0 0 z "},"ف":{"ha":1207,"x_min":86,"x_max":1149,"o":"m 410 0 q 248 44 322 0 q 130 162 174 88 q 86 324 86 236 l 86 474 l 229 474 l 229 331 q 253 241 229 282 q 319 176 278 200 q 410 151 361 151 l 906 151 q 976 180 947 151 q 1006 250 1006 208 l 1006 274 l 900 274 l 900 274 q 770 306 829 274 q 676 395 711 339 q 642 521 642 451 q 677 652 642 592 q 772 747 713 713 q 900 782 831 782 l 900 782 q 1026 747 969 782 q 1116 653 1083 713 q 1149 521 1149 593 l 1149 242 q 1116 121 1149 176 q 1028 33 1083 65 q 906 0 972 0 l 410 0 m 1014 407 l 1014 526 q 979 609 1014 575 q 896 643 944 643 l 896 643 q 812 610 846 643 q 778 526 778 576 q 811 441 778 475 q 896 407 844 407 l 896 407 l 1014 407 m 831 1043 l 972 1043 l 972 901 l 831 901 l 831 1043 z "},"ﻒ":{"ha":1221,"x_min":86,"x_max":1235,"o":"m 829 821 l 971 821 l 971 681 l 829 681 l 829 821 m 410 0 q 248 44 322 0 q 130 162 174 88 q 86 324 86 236 l 86 474 l 229 474 l 229 331 q 253 241 229 282 q 319 176 278 200 q 410 151 361 151 l 1221 151 q 1235 138 1235 151 l 1235 14 q 1221 0 1235 0 l 410 0 m 1183 285 q 1146 145 1183 207 q 1044 49 1108 83 q 901 14 979 14 l 901 14 q 759 49 824 14 q 657 145 694 83 q 619 285 619 207 q 657 424 619 361 q 760 524 694 488 q 901 560 825 560 l 901 560 q 1043 524 978 560 q 1146 424 1108 488 q 1183 285 1183 361 m 1032 279 q 994 371 1032 333 q 900 408 956 408 l 900 408 q 808 371 846 408 q 771 279 771 333 q 808 188 771 225 q 900 151 846 151 l 900 151 q 994 188 956 151 q 1032 279 1032 225 z "},"ﻔ":{"ha":694,"x_min":-14,"x_max":708,"o":"m 65 285 q 103 424 65 361 q 206 524 140 488 q 347 560 271 560 l 347 560 q 489 524 424 560 q 592 424 554 488 q 629 285 629 361 q 592 145 629 207 q 490 49 554 83 q 347 14 425 14 l 347 14 q 205 49 269 14 q 103 145 140 83 q 65 285 65 207 m 0 0 q -14 14 -14 0 l -14 138 q 0 151 -14 151 l 694 151 q 708 138 708 151 l 708 14 q 694 0 708 0 l 0 0 m 217 279 q 254 188 217 224 q 347 151 292 151 l 347 151 q 440 188 403 151 q 478 279 478 224 q 440 371 478 333 q 347 408 403 408 l 347 408 q 254 371 292 408 q 217 279 217 333 m 276 821 l 418 821 l 418 681 l 276 681 l 276 821 z "},"ﻓ":{"ha":635,"x_min":-14,"x_max":575,"o":"m 0 0 q -14 14 -14 0 l -14 138 q 0 151 -14 151 l 333 151 q 403 179 375 151 q 432 250 432 207 l 432 274 l 328 274 l 328 274 q 198 306 257 274 q 104 395 139 339 q 69 521 69 451 q 105 652 69 592 q 199 747 140 713 q 328 782 258 782 l 328 782 q 453 747 397 782 q 542 653 510 713 q 575 521 575 593 l 575 242 q 543 121 575 176 q 456 33 511 65 q 333 0 400 0 l 0 0 m 440 407 l 440 526 q 406 609 440 575 q 324 643 372 643 l 324 643 q 240 610 274 643 q 206 526 206 576 q 239 441 206 475 q 324 407 272 407 l 324 407 l 440 407 m 257 1043 l 399 1043 l 399 901 l 257 901 l 257 1043 z "},"ڤ":{"ha":1207,"x_min":86,"x_max":1149,"o":"m 410 0 q 248 44 322 0 q 130 162 174 88 q 86 324 86 236 l 86 474 l 229 474 l 229 331 q 253 241 229 282 q 319 176 278 200 q 410 151 361 151 l 906 151 q 976 180 947 151 q 1006 250 1006 208 l 1006 274 l 900 274 l 900 274 q 770 306 829 274 q 676 395 711 339 q 642 521 642 451 q 677 652 642 592 q 772 747 713 713 q 900 782 831 782 l 900 782 q 1026 747 969 782 q 1116 653 1083 713 q 1149 521 1149 593 l 1149 242 q 1116 121 1149 176 q 1028 33 1083 65 q 906 0 972 0 l 410 0 m 896 407 l 1014 407 l 1014 526 q 979 609 1014 575 q 896 643 944 643 l 896 643 q 812 610 846 643 q 778 526 778 576 q 811 441 778 475 q 896 407 844 407 l 896 407 m 724 1043 l 864 1043 l 864 901 l 724 901 l 724 1043 m 936 1043 l 1078 1043 l 1078 901 l 936 901 l 936 1043 m 831 1257 l 972 1257 l 972 1115 l 831 1115 l 831 1257 z "},"ﭫ":{"ha":1221,"x_min":86,"x_max":1235,"o":"m 410 0 q 248 44 322 0 q 130 162 174 88 q 86 324 86 236 l 86 474 l 229 474 l 229 331 q 253 241 229 282 q 319 176 278 200 q 410 151 361 151 l 1221 151 q 1235 138 1235 151 l 1235 14 q 1221 0 1235 0 l 410 0 m 1183 285 q 1146 145 1183 207 q 1044 49 1108 83 q 901 14 979 14 l 901 14 q 759 49 824 14 q 657 145 694 83 q 619 285 619 207 q 657 424 619 361 q 760 524 694 488 q 901 560 825 560 l 901 560 q 1043 524 978 560 q 1146 424 1108 488 q 1183 285 1183 361 m 1032 279 q 994 371 1032 333 q 900 408 956 408 l 900 408 q 808 371 846 408 q 771 279 771 333 q 808 188 771 225 q 900 151 846 151 l 900 151 q 994 188 956 151 q 1032 279 1032 225 m 725 821 l 865 821 l 865 681 l 725 681 l 725 821 m 938 821 l 1079 821 l 1079 681 l 938 681 l 938 821 m 832 1035 l 974 1035 l 974 893 l 832 893 l 832 1035 z "},"ﭭ":{"ha":642,"x_min":-14,"x_max":656,"o":"m 39 285 q 76 424 39 361 q 179 524 114 488 q 321 560 244 560 l 321 560 q 462 524 397 560 q 565 424 526 488 q 603 285 603 361 q 565 145 603 207 q 462 49 526 83 q 321 14 397 14 l 321 14 q 178 49 243 14 q 76 145 114 83 q 39 285 39 207 m 0 0 q -14 14 -14 0 l -14 138 q 0 151 -14 151 l 642 151 q 656 138 656 151 l 656 14 q 642 0 656 0 l 0 0 m 189 279 q 227 188 189 225 q 321 151 265 151 l 321 151 q 413 188 375 151 q 451 279 451 225 q 413 371 451 333 q 321 408 375 408 l 321 408 q 227 371 265 408 q 189 279 189 333 m 143 821 l 285 821 l 285 681 l 143 681 l 143 821 m 357 821 l 497 821 l 497 681 l 357 681 l 357 821 m 250 1035 l 392 1035 l 392 893 l 250 893 l 250 1035 z "},"ﭬ":{"ha":635,"x_min":-14,"x_max":575,"o":"m 0 0 q -14 14 -14 0 l -14 138 q 0 151 -14 151 l 333 151 q 403 179 375 151 q 432 250 432 207 l 432 274 l 328 274 l 328 274 q 198 306 257 274 q 104 395 139 339 q 69 521 69 451 q 105 652 69 592 q 199 747 140 713 q 328 782 258 782 l 328 782 q 453 747 397 782 q 542 653 510 713 q 575 521 575 593 l 575 242 q 543 121 575 176 q 456 33 511 65 q 333 0 400 0 l 0 0 m 324 407 l 440 407 l 440 526 q 406 609 440 575 q 324 643 372 643 l 324 643 q 240 610 274 643 q 206 526 206 576 q 239 441 206 475 q 324 407 272 407 l 324 407 m 151 1044 l 293 1044 l 293 903 l 151 903 l 151 1044 m 365 1044 l 506 1044 l 506 903 l 365 903 l 365 1044 m 258 1257 l 400 1257 l 400 1117 l 258 1117 l 258 1257 z "},"ڡ":{"ha":1207,"x_min":86,"x_max":1149,"o":"m 410 0 q 248 44 322 0 q 130 162 174 88 q 86 324 86 236 l 86 474 l 229 474 l 229 331 q 253 241 229 282 q 319 176 278 200 q 410 151 361 151 l 906 151 q 976 180 947 151 q 1006 250 1006 208 l 1006 274 l 900 274 l 900 274 q 770 306 829 274 q 676 395 711 339 q 642 521 642 451 q 677 652 642 592 q 772 747 713 713 q 900 782 831 782 l 900 782 q 1026 747 969 782 q 1116 653 1083 713 q 1149 521 1149 593 l 1149 242 q 1116 121 1149 176 q 1028 33 1083 65 q 906 0 972 0 l 410 0 m 1014 407 l 1014 526 q 979 609 1014 575 q 896 643 944 643 l 896 643 q 812 610 846 643 q 778 526 778 576 q 811 441 778 475 q 896 407 844 407 l 896 407 l 1014 407 z "},"ٯ":{"ha":986,"x_min":86,"x_max":921,"o":"m 367 272 q 405 413 367 349 q 508 515 443 476 q 649 553 572 553 l 649 553 q 786 515 724 553 q 885 413 849 478 q 921 272 921 349 l 921 -10 q 865 -218 921 -122 q 713 -370 808 -314 q 503 -426 617 -426 q 294 -370 390 -426 q 142 -218 199 -314 q 86 -10 86 -122 l 86 250 l 229 250 l 229 -1 q 266 -138 229 -75 q 366 -238 303 -201 q 503 -275 429 -275 q 641 -238 578 -275 q 741 -138 704 -201 q 778 -1 778 -75 l 778 0 l 649 0 l 649 0 q 507 35 572 0 q 404 133 442 71 q 367 272 367 196 m 517 279 q 555 188 517 225 q 649 150 593 150 l 649 150 l 779 150 l 779 279 q 742 373 779 335 q 649 411 704 411 l 649 411 q 555 373 593 411 q 517 279 517 335 z "},"ق":{"ha":986,"x_min":86,"x_max":921,"o":"m 367 272 q 405 413 367 349 q 508 515 443 476 q 649 553 572 553 l 649 553 q 786 515 724 553 q 885 413 849 478 q 921 272 921 349 l 921 -10 q 865 -218 921 -122 q 713 -370 808 -314 q 503 -426 617 -426 q 294 -370 390 -426 q 142 -218 199 -314 q 86 -10 86 -122 l 86 250 l 229 250 l 229 -1 q 266 -138 229 -75 q 366 -238 303 -201 q 503 -275 429 -275 q 641 -238 578 -275 q 741 -138 704 -201 q 778 -1 778 -75 l 778 0 l 649 0 l 649 0 q 507 35 572 0 q 404 133 442 71 q 367 272 367 196 m 517 279 q 555 188 517 225 q 649 150 593 150 l 649 150 l 779 150 l 779 279 q 741 373 779 335 q 649 411 703 411 l 649 411 q 555 373 593 411 q 517 279 517 335 m 471 821 l 613 821 l 613 681 l 471 681 l 471 821 m 685 821 l 826 821 l 826 681 l 685 681 l 685 821 z "},"ﻖ":{"ha":990,"x_min":86,"x_max":1004,"o":"m 503 -426 q 294 -370 390 -426 q 142 -218 199 -314 q 86 -10 86 -122 l 86 250 l 229 250 l 229 -1 q 266 -138 229 -75 q 366 -238 303 -201 q 503 -275 429 -275 q 641 -238 578 -275 q 741 -138 704 -201 q 778 -1 778 -75 l 778 0 l 649 0 l 649 0 q 507 35 572 0 q 404 133 442 71 q 367 272 367 196 q 405 413 367 349 q 508 515 443 476 q 649 553 572 553 l 649 553 q 786 515 724 553 q 885 413 849 478 q 921 272 921 349 l 921 -10 q 865 -218 921 -122 q 713 -370 808 -314 q 503 -426 617 -426 m 779 150 l 779 279 q 741 373 779 335 q 649 411 703 411 l 649 411 q 555 373 593 411 q 517 279 517 335 q 555 188 517 225 q 649 150 593 150 l 649 150 l 779 150 m 921 151 l 990 151 q 1004 138 1004 151 l 1004 14 q 990 0 1004 0 l 921 0 l 921 151 m 471 821 l 613 821 l 613 681 l 471 681 l 471 821 m 685 821 l 826 821 l 826 681 l 685 681 l 685 821 z "},"ﻘ":{"ha":642,"x_min":-14,"x_max":656,"o":"m 39 285 q 76 424 39 361 q 179 524 114 488 q 321 560 244 560 l 321 560 q 462 524 397 560 q 565 424 526 488 q 603 285 603 361 q 565 145 603 207 q 462 49 526 83 q 321 14 397 14 l 321 14 q 178 49 243 14 q 76 145 114 83 q 39 285 39 207 m 0 0 q -14 14 -14 0 l -14 138 q 0 151 -14 151 l 642 151 q 656 138 656 151 l 656 14 q 642 0 656 0 l 0 0 m 189 279 q 227 188 189 225 q 321 151 265 151 l 321 151 q 413 188 375 151 q 451 279 451 225 q 413 371 451 333 q 321 408 375 408 l 321 408 q 227 371 265 408 q 189 279 189 333 m 142 828 l 283 828 l 283 688 l 142 688 l 142 828 m 356 828 l 496 828 l 496 688 l 356 688 l 356 828 z "},"ﻗ":{"ha":635,"x_min":-14,"x_max":575,"o":"m 0 0 q -14 14 -14 0 l -14 138 q 0 151 -14 151 l 333 151 q 403 179 375 151 q 432 250 432 207 l 432 274 l 328 274 l 328 274 q 198 306 257 274 q 104 395 139 339 q 69 521 69 451 q 105 652 69 592 q 199 747 140 713 q 328 782 258 782 l 328 782 q 453 747 397 782 q 542 653 510 713 q 575 521 575 593 l 575 242 q 543 121 575 176 q 456 33 511 65 q 333 0 400 0 l 0 0 m 440 407 l 440 526 q 406 609 440 575 q 324 643 372 643 l 324 643 q 240 610 274 643 q 206 526 206 576 q 239 441 206 475 q 324 407 272 407 l 324 407 l 440 407 m 150 1050 l 292 1050 l 292 908 l 150 908 l 150 1050 m 364 1050 l 506 1050 l 506 908 l 364 908 l 364 1050 z "},"ك":{"ha":1214,"x_min":86,"x_max":1149,"o":"m 410 0 q 248 44 322 0 q 130 162 174 88 q 86 324 86 236 l 86 474 l 229 474 l 229 331 q 253 241 229 282 q 319 176 278 200 q 410 151 361 151 l 875 151 q 968 189 931 151 q 1006 282 1006 226 l 1006 896 l 1149 896 l 1149 282 q 1113 141 1149 206 q 1014 38 1076 76 q 875 0 951 0 l 410 0 m 471 454 l 640 515 q 669 554 669 526 q 661 582 669 572 q 635 597 653 592 l 467 639 l 426 711 l 675 890 l 724 808 l 586 710 l 646 694 q 716 663 686 685 q 758 607 746 640 q 767 553 767 581 q 740 469 767 507 q 668 414 714 432 l 507 354 l 471 454 z "},"ﻚ":{"ha":1310,"x_min":86,"x_max":1324,"o":"m 410 0 q 248 44 322 0 q 130 162 174 88 q 86 324 86 236 l 86 474 l 229 474 l 229 331 q 253 241 229 282 q 319 176 278 200 q 410 151 361 151 l 875 151 q 968 189 931 151 q 1006 282 1006 226 l 1006 894 l 1149 894 l 1149 282 q 1113 141 1149 206 q 1014 38 1076 76 q 875 0 951 0 l 410 0 m 1247 0 q 1091 69 1149 0 q 1033 242 1033 139 l 1033 894 l 1149 894 l 1149 250 q 1177 180 1149 208 q 1247 151 1206 151 l 1310 151 q 1324 138 1324 151 l 1324 14 q 1310 0 1324 0 l 1247 0 m 478 454 l 647 515 q 676 554 676 526 q 668 582 676 572 q 642 597 660 592 l 474 639 l 433 711 l 682 890 l 731 808 l 593 710 l 653 694 q 723 663 693 685 q 765 607 753 640 q 774 553 774 581 q 747 469 774 507 q 675 414 721 432 l 514 354 l 478 454 z "},"ﻜ":{"ha":732,"x_min":-14,"x_max":746,"o":"m 0 0 q -14 14 -14 0 l -14 138 q 0 151 -14 151 l 307 151 q 392 186 356 151 q 428 274 428 221 q 363 379 428 340 l 38 593 l 38 708 l 308 994 l 406 901 l 183 668 l 454 490 q 540 397 510 454 q 571 269 571 340 q 535 134 571 196 q 439 36 500 72 q 306 0 378 0 l 0 0 m 669 0 q 513 69 571 0 q 456 242 456 139 l 456 271 l 571 271 l 571 250 q 601 180 572 208 q 669 151 629 151 l 732 151 q 746 138 746 151 l 746 14 q 732 0 746 0 l 669 0 z "},"ﻛ":{"ha":629,"x_min":-14,"x_max":571,"o":"m -14 138 q 0 151 -14 151 l 307 151 q 392 186 356 151 q 428 274 428 221 q 363 379 428 340 l 38 593 l 38 708 l 308 994 l 406 901 l 183 668 l 454 490 q 540 397 510 454 q 571 269 571 340 q 535 134 571 196 q 439 36 500 72 q 306 0 378 0 l 0 0 q -14 14 -14 0 l -14 138 z "},"ک":{"ha":1208,"x_min":86,"x_max":1149,"o":"m 410 0 q 248 44 322 0 q 130 162 174 88 q 86 324 86 236 l 86 472 l 229 472 l 229 331 q 253 241 229 282 q 319 176 278 200 q 410 151 361 151 l 885 151 q 970 186 935 151 q 1006 274 1006 221 q 942 379 1006 340 l 615 593 l 615 708 l 886 994 l 985 901 l 761 668 l 1032 490 q 1118 397 1088 454 q 1149 269 1149 340 q 1113 134 1149 196 q 1017 36 1078 72 q 883 0 956 0 l 410 0 z "},"ﮏ":{"ha":1310,"x_min":86,"x_max":1324,"o":"m 410 0 q 248 44 322 0 q 130 162 174 88 q 86 324 86 236 l 86 472 l 229 472 l 229 331 q 253 241 229 282 q 319 176 278 200 q 410 151 361 151 l 885 151 q 970 186 935 151 q 1006 274 1006 221 q 942 379 1006 340 l 615 593 l 615 708 l 886 994 l 985 901 l 761 668 l 1032 490 q 1118 397 1088 454 q 1149 269 1149 340 q 1113 134 1149 196 q 1017 36 1078 72 q 883 0 956 0 l 410 0 m 1247 0 q 1092 69 1150 0 q 1033 242 1033 139 l 1033 271 l 1149 271 l 1149 250 q 1178 180 1149 208 q 1247 151 1207 151 l 1310 151 q 1324 138 1324 151 l 1324 14 q 1310 0 1324 0 l 1247 0 z "},"ﮑ":{"ha":732,"x_min":-14,"x_max":746,"o":"m 0 0 q -14 14 -14 0 l -14 138 q 0 151 -14 151 l 307 151 q 392 186 356 151 q 428 274 428 221 q 363 379 428 340 l 38 593 l 38 708 l 308 994 l 406 901 l 183 668 l 454 490 q 540 397 510 454 q 571 269 571 340 q 535 134 571 196 q 439 36 500 72 q 306 0 378 0 l 0 0 m 669 0 q 513 69 571 0 q 456 242 456 139 l 456 271 l 571 271 l 571 250 q 601 180 572 208 q 669 151 629 151 l 732 151 q 746 138 746 151 l 746 14 q 732 0 746 0 l 669 0 z "},"ﮐ":{"ha":631,"x_min":-14,"x_max":571,"o":"m -14 138 q 0 151 -14 151 l 307 151 q 392 186 356 151 q 428 274 428 221 q 363 379 428 340 l 38 593 l 38 708 l 308 994 l 406 901 l 183 668 l 454 490 q 540 397 510 454 q 571 269 571 340 q 535 134 571 196 q 439 36 500 72 q 306 0 378 0 l 0 0 q -14 14 -14 0 l -14 138 z "},"گ":{"ha":1208,"x_min":86,"x_max":1149,"o":"m 410 0 q 248 44 322 0 q 130 162 174 88 q 86 324 86 236 l 86 472 l 229 472 l 229 331 q 253 241 229 282 q 319 176 278 200 q 410 151 361 151 l 885 151 q 970 186 935 151 q 1006 274 1006 221 q 942 379 1006 340 l 615 593 l 615 708 l 886 994 l 985 901 l 761 668 l 1032 490 q 1118 397 1088 454 q 1149 269 1149 340 q 1113 134 1149 196 q 1017 36 1078 72 q 883 0 956 0 l 410 0 m 489 811 l 733 1069 l 804 997 l 560 739 l 489 811 z "},"ﮓ":{"ha":1310,"x_min":86,"x_max":1324,"o":"m 1247 0 q 1092 69 1150 0 q 1033 242 1033 139 l 1033 271 l 1149 271 l 1149 250 q 1178 180 1149 208 q 1247 151 1207 151 l 1310 151 q 1324 138 1324 151 l 1324 14 q 1310 0 1324 0 l 1247 0 m 489 811 l 733 1069 l 804 997 l 560 739 l 489 811 m 410 0 q 247 43 321 0 q 130 160 174 86 q 86 321 86 233 l 86 472 l 229 472 l 229 329 q 282 203 229 254 q 410 151 335 151 l 885 151 q 970 186 935 151 q 1006 274 1006 221 q 942 379 1006 340 l 615 593 l 615 708 l 886 994 l 985 901 l 761 668 l 1032 490 q 1118 397 1088 454 q 1149 269 1149 340 q 1113 134 1149 196 q 1017 36 1078 72 q 883 0 956 0 l 410 0 z "},"ﮕ":{"ha":869,"x_min":-14,"x_max":883,"o":"m 0 0 q -14 14 -14 0 l -14 138 q 0 151 -14 151 l 443 151 q 529 186 493 151 q 565 274 565 221 q 500 379 565 340 l 174 593 l 174 708 l 444 994 l 543 901 l 319 668 l 592 490 q 678 397 647 454 q 708 269 708 340 q 673 134 708 196 q 576 36 638 72 q 442 0 515 0 l 0 0 m 807 0 q 651 69 708 0 q 593 242 593 139 l 593 271 l 708 269 l 708 250 q 738 180 708 208 q 807 151 767 151 l 869 151 q 883 138 883 151 l 883 14 q 869 0 883 0 l 807 0 m 49 811 l 293 1069 l 364 997 l 119 739 l 49 811 z "},"ﮔ":{"ha":768,"x_min":-14,"x_max":708,"o":"m 0 0 q -14 14 -14 0 l -14 138 q 0 151 -14 151 l 443 151 q 529 186 493 151 q 565 274 565 221 q 500 379 565 340 l 174 593 l 174 708 l 444 994 l 543 901 l 319 668 l 592 490 q 678 397 647 454 q 708 269 708 340 q 673 134 708 196 q 576 36 638 72 q 442 0 515 0 l 0 0 m 49 811 l 293 1069 l 364 997 l 119 739 l 49 811 z "},"ل":{"ha":990,"x_min":86,"x_max":921,"o":"m 503 -258 q 294 -202 390 -258 q 142 -50 199 -146 q 86 158 86 46 l 86 418 l 229 418 l 229 167 q 266 28 229 92 q 366 -72 303 -35 q 503 -108 429 -108 q 641 -72 578 -108 q 741 28 704 -35 q 778 167 778 92 l 778 924 l 921 924 l 921 158 q 865 -50 921 46 q 713 -202 808 -146 q 503 -258 617 -258 z "},"ﻞ":{"ha":1085,"x_min":86,"x_max":1099,"o":"m 503 -258 q 294 -202 390 -258 q 142 -50 199 -146 q 86 158 86 46 l 86 418 l 229 418 l 229 167 q 266 28 229 92 q 366 -72 303 -35 q 503 -108 429 -108 q 641 -72 578 -108 q 741 28 704 -35 q 778 167 778 92 l 778 924 l 917 924 l 917 158 q 862 -50 917 46 q 712 -202 807 -146 q 503 -258 617 -258 m 1022 0 q 881 67 926 0 q 836 242 836 133 l 836 922 l 922 922 l 922 250 q 951 180 922 208 q 1022 151 981 151 l 1085 151 q 1099 138 1099 151 l 1099 14 q 1085 0 1099 0 l 1022 0 z "},"ﻠ":{"ha":465,"x_min":-14,"x_max":479,"o":"m 0 0 q -14 14 -14 0 l -14 138 q 0 151 -14 151 l 63 151 q 132 180 103 151 q 161 250 161 208 l 161 922 l 304 922 l 304 250 q 333 180 304 208 q 403 151 363 151 l 465 151 q 479 138 479 151 l 479 14 q 465 0 479 0 l 403 0 q 302 26 347 0 q 232 94 257 51 q 163 26 207 51 q 63 0 118 0 l 0 0 z "},"ﻟ":{"ha":365,"x_min":-14,"x_max":296,"o":"m 0 0 q -14 14 -14 0 l -14 138 q 0 151 -14 151 l 53 151 q 124 181 94 151 q 153 251 153 210 l 153 922 l 296 922 l 296 243 q 264 121 296 176 q 176 33 232 65 q 54 0 121 0 l 0 0 z "},"ڵ":{"ha":1064,"x_min":86,"x_max":1047,"o":"m 503 -258 q 294 -202 390 -258 q 142 -50 199 -146 q 86 158 86 46 l 86 418 l 229 418 l 229 167 q 266 28 229 92 q 366 -72 303 -35 q 503 -108 429 -108 q 641 -72 578 -108 q 741 28 704 -35 q 778 167 778 92 l 778 924 l 921 924 l 921 158 q 865 -50 921 46 q 713 -202 808 -146 q 503 -258 617 -258 m 649 1297 q 794 1258 743 1294 q 847 1153 846 1222 q 1047 1297 853 1293 l 1047 1188 q 932 1148 969 1182 q 894 1028 894 1114 l 801 1028 q 764 1148 801 1114 q 649 1188 726 1182 l 649 1297 z "},"م":{"ha":1001,"x_min":86,"x_max":942,"o":"m 86 294 q 121 423 86 364 q 215 516 156 482 q 343 550 274 550 l 660 550 l 660 550 q 801 515 736 550 q 904 417 867 479 q 942 279 942 354 q 903 138 942 203 q 801 35 865 74 q 660 -3 736 -3 l 660 -3 q 522 35 583 -3 q 424 138 460 72 q 389 279 389 203 l 389 407 l 343 407 q 263 374 296 407 q 229 294 229 340 l 229 -347 l 86 -347 l 86 294 m 660 149 q 753 186 715 149 q 790 279 790 224 q 753 371 790 333 q 660 408 715 408 l 660 408 l 531 408 l 531 279 q 568 186 531 224 q 660 149 606 149 l 660 149 z "},"ﻢ":{"ha":1103,"x_min":86,"x_max":1117,"o":"m 86 294 q 121 423 86 364 q 215 516 156 482 q 343 550 274 550 l 660 550 l 660 550 q 801 515 736 550 q 904 417 867 479 q 942 279 942 354 q 903 138 942 203 q 801 35 865 74 q 660 -3 736 -3 l 660 -3 q 522 35 583 -3 q 424 138 460 72 q 389 279 389 203 l 389 407 l 343 407 q 263 374 296 407 q 229 294 229 340 l 229 -347 l 86 -347 l 86 294 m 660 149 q 753 186 715 149 q 790 279 790 224 q 753 371 790 333 q 660 408 715 408 l 660 408 l 531 408 l 531 279 q 568 186 531 224 q 660 149 606 149 l 660 149 m 1040 0 q 884 69 942 0 q 826 242 826 139 l 826 279 l 942 279 l 942 250 q 971 180 942 208 q 1040 151 1000 151 l 1103 151 q 1117 138 1117 151 l 1117 14 q 1103 0 1117 0 l 1040 0 z "},"ﻤ":{"ha":896,"x_min":-14,"x_max":910,"o":"m 451 -3 q 313 35 375 -3 q 216 138 251 72 q 181 279 181 203 l 181 407 l 97 407 l 97 550 l 451 550 l 451 550 q 594 515 529 550 q 697 417 658 479 q 735 279 735 354 q 697 138 735 203 q 594 35 658 74 q 451 -3 529 -3 l 451 -3 m 0 0 q -14 14 -14 0 l -14 138 q 0 151 -14 151 l 82 151 q 151 180 122 151 q 181 250 181 208 l 181 382 l 296 382 l 296 242 q 238 69 296 139 q 82 0 181 0 l 0 0 m 451 149 q 545 186 507 149 q 583 279 583 224 q 545 370 583 333 q 451 407 507 407 l 451 407 l 322 407 l 322 279 q 360 186 322 224 q 451 149 397 149 l 451 149 m 833 0 q 676 69 735 0 q 618 242 618 139 l 618 279 l 735 279 l 735 250 q 763 180 735 208 q 833 151 792 151 l 896 151 q 910 138 910 151 l 910 14 q 896 0 910 0 l 833 0 z "},"ﻣ":{"ha":793,"x_min":-14,"x_max":735,"o":"m 451 -3 q 313 35 375 -3 q 216 138 251 72 q 181 279 181 203 l 181 407 l 97 407 l 97 550 l 451 550 l 451 550 q 594 515 529 550 q 697 417 658 479 q 735 279 735 354 q 697 138 735 203 q 594 35 658 74 q 451 -3 529 -3 l 451 -3 m 0 0 q -14 14 -14 0 l -14 138 q 0 151 -14 151 l 82 151 q 151 180 122 151 q 181 250 181 208 l 181 379 l 296 379 l 296 242 q 238 69 296 139 q 82 0 181 0 l 0 0 m 451 149 q 545 186 507 149 q 583 279 583 224 q 545 370 583 333 q 451 407 507 407 l 451 407 l 322 407 l 322 279 q 360 186 322 224 q 451 149 397 149 l 451 149 z "}}}
